<svg width="50" height="33" viewBox="0 0 50 33" fill="none" xmlns="http://www.w3.org/2000/svg">
<path d="M0.910156 23.0049C1.05453 22.6693 1.01328 22.2941 1.05453 21.9388C1.17828 20.774 1.28141 19.6092 1.38454 18.4444C1.46704 17.4967 1.57016 16.5491 1.65266 15.6014C1.75579 14.6143 1.83829 13.6272 1.94141 12.64C2.02392 11.6924 2.12704 10.725 2.20954 9.77738C2.25079 9.38253 2.29204 8.98766 2.35392 8.61255C2.41579 9.18508 2.45704 9.73788 2.51892 10.3104C2.62205 11.3765 2.70455 12.4624 2.80767 13.5285C2.89017 14.5353 2.97267 15.562 3.0758 16.5688C3.17892 17.6349 3.26143 18.701 3.36455 19.7671C3.44705 20.774 3.50893 21.8006 3.63268 22.8074C3.7358 23.5774 3.42643 24.2289 3.2408 24.9199C2.9933 25.8676 2.70455 26.7954 2.41579 27.7431C2.41579 27.8023 2.37454 27.8418 2.33329 27.9602C2.16829 27.4272 2.00329 26.9534 1.85891 26.4796C1.57016 25.5319 1.26078 24.5843 0.972032 23.6366C0.972032 23.6169 0.930781 23.5774 0.930781 23.5577C0.930781 23.3602 0.930781 23.1826 0.930781 22.9851L0.910156 23.0049Z" fill="#164526"/>
<path d="M24.7526 32.8957C24.7526 32.8957 24.7526 32.9154 24.7526 32.9351H24.4639C24.4639 32.9351 24.4639 32.9154 24.4639 32.8957C24.567 32.817 24.6701 32.7973 24.7732 32.8957H24.7526Z" fill="#DDDDDD"/>
<path d="M2.16895 7.23071C2.9527 6.9938 3.71583 6.75688 4.47896 6.51997C9.88276 4.88134 15.2659 3.22297 20.6697 1.58434C22.3404 1.07103 24.011 0.557727 25.6816 0.0444207C25.8466 -0.0148069 25.991 -0.0148069 26.156 0.0444207C33.8698 2.37404 41.5836 4.70368 49.2975 7.0333C49.38 7.05304 49.4831 7.05304 49.545 7.15175C48.6581 7.66506 47.7918 8.17836 46.9049 8.69167C41.1711 12.0282 35.4373 15.3844 29.7035 18.7209C28.4867 19.4316 27.2698 20.1226 26.0735 20.8333C25.9085 20.932 25.8054 20.932 25.6404 20.8333C18.2566 16.5492 10.8934 12.2651 3.50958 8.00066C3.07645 7.74401 2.64332 7.5071 2.18957 7.23071H2.16895Z" fill="#164526"/>
<path d="M24.7533 32.8958C24.7533 32.8958 24.547 32.8958 24.4439 32.8958C23.4539 32.8169 22.5464 32.4812 21.6595 32.0864C19.1226 30.9808 16.8126 29.5001 14.5851 27.901C13.1826 26.8941 11.8419 25.7885 10.6457 24.5645C10.1713 24.0906 9.73815 23.5774 9.40815 23.0048C9.07814 22.452 8.99564 21.8992 9.30502 21.2872C9.49065 20.9121 9.47002 20.4778 9.5319 20.0829C9.7794 18.622 10.0269 17.161 10.2744 15.7198C10.3775 15.0683 10.4807 14.4168 10.6044 13.7456C10.7075 13.7456 10.7694 13.8048 10.8313 13.8443C15.6988 16.6675 20.5664 19.5104 25.4339 22.3533C25.6402 22.4718 25.7845 22.4915 25.9908 22.3533C30.9408 19.5104 35.9115 16.6872 40.8822 13.864C40.944 13.8245 41.0265 13.7851 41.1297 13.7258C41.2328 14.2984 41.3359 14.8709 41.439 15.4237C41.7072 16.9241 41.9753 18.4443 42.264 19.9447C42.3878 20.5765 42.5115 21.2082 42.6353 21.8203C42.6972 22.1361 42.6147 22.4323 42.4497 22.7087C42.0165 23.4391 41.3978 24.0314 40.7378 24.5645C38.139 26.7361 35.2309 28.4735 32.2196 30.0529C30.4046 31.0005 28.5483 31.889 26.5683 32.501C25.9908 32.6787 25.3926 32.8366 24.7945 32.8761L24.7533 32.8958Z" fill="#164526"/>
</svg>
