<svg width="50" height="36" viewBox="0 0 50 36" fill="none" xmlns="http://www.w3.org/2000/svg">
<path fill-rule="evenodd" clip-rule="evenodd" d="M35.1414 0.0192564L37.246 0.120086C38.2364 0.170502 38.9969 0.977166 38.9438 1.90147L38.8377 3.7501C39.7751 4.0694 40.6593 4.50636 41.4552 5.02734L42.9762 3.7165C43.7013 3.0947 44.8508 3.14513 45.5052 3.83416L46.9201 5.31305C47.5745 6.00208 47.5214 7.09443 46.7963 7.71624L45.1692 9.11108C45.5759 9.90094 45.8766 10.7413 46.0535 11.6151L48.2996 11.7327C49.29 11.7832 50.0504 12.5898 49.9974 13.5141L49.8913 15.514C49.8382 16.4551 48.9893 17.1778 48.0166 17.1274L45.7528 17.0097C45.4699 17.85 45.0808 18.6399 44.5856 19.3793L46.0889 20.959C46.7432 21.6481 46.6902 22.7404 45.9651 23.3622L44.4087 24.7067C43.6836 25.3285 42.534 25.278 41.8797 24.589L40.4648 23.0933C39.6336 23.5303 38.7316 23.8664 37.7943 24.0849V18.8751C39.7397 18.0684 41.1546 16.2535 41.2784 14.1023C41.4375 11.0605 38.9792 8.4725 35.7781 8.30444C33.8504 8.20361 32.0995 9.02707 30.9676 10.3379H24.5123C24.8484 9.39679 25.3082 8.52287 25.8918 7.73301L24.866 6.65748C24.2117 5.96845 24.2647 4.8761 24.9899 4.25429L26.5462 2.90982C27.2713 2.28801 28.4209 2.33844 29.0752 3.02747L30.1894 4.20388C31.1268 3.76693 32.1526 3.4476 33.2137 3.27954L33.3021 1.61581C33.3552 0.674694 34.2041 -0.0479311 35.1768 0.00248566L35.1414 0.0192564ZM18.3754 23.8664H15.8464C15.8464 23.8664 15.7049 23.9336 15.7049 24.0008V29.0593C15.7049 29.0593 15.7756 29.1938 15.8464 29.1938H18.3754C18.3754 29.1938 18.5169 29.1265 18.5169 29.0593V24.0008C18.5169 24.0008 18.4638 23.8664 18.3754 23.8664ZM1.94543 13.1108H11.0359V10.7244C11.0359 10.0018 11.6549 9.41357 12.4153 9.41357H21.8064C22.5669 9.41357 23.1859 10.0018 23.1859 10.7244V13.1108H32.2764C33.3375 13.1108 34.2217 13.9511 34.2217 14.9594V19.4129C32.0287 20.8414 29.765 22.0682 27.4128 23.0597C25.0606 24.0513 22.6377 24.8411 20.1263 25.3621V23.5807C20.1263 22.7572 19.4365 22.085 18.57 22.085H15.6341C14.7675 22.085 14.0778 22.7572 14.0778 23.5807V25.3284C11.6372 24.7907 9.26728 24.0345 6.98583 23.0597C4.58058 22.0346 2.26377 20.7741 0 19.2953V14.9594C0 13.9511 0.884294 13.1108 1.94543 13.1108ZM34.2217 22.0682V34.1682C34.2217 34.6556 34.0096 35.1261 33.6558 35.4622C33.3021 35.7983 32.8246 36 32.294 36H1.96311C1.43254 36 0.937334 35.7983 0.601306 35.4622C0.247593 35.1261 0.0353789 34.6724 0.0353789 34.1682V21.9506C1.94543 23.127 3.92621 24.1353 5.96006 25.0091C8.57754 26.1351 11.3011 26.9754 14.1132 27.5468V29.4627C14.1132 30.2861 14.8206 30.9583 15.6872 30.9583H18.623C19.4896 30.9583 20.1794 30.2861 20.1794 29.4627V27.5804C23.0444 27.0091 25.8387 26.1351 28.5093 24.9924C30.4724 24.1521 32.3825 23.1774 34.2395 22.0514L34.2217 22.0682ZM13.4765 11.195C13.388 11.195 13.2996 11.279 13.2996 11.363V13.0604H20.9221V11.363C20.9221 11.279 20.8337 11.195 20.7453 11.195H13.4765Z" fill="#164526"/>
</svg>
