<svg width="26" height="32" viewBox="0 0 26 32" fill="none" xmlns="http://www.w3.org/2000/svg">
<path d="M14.4647 2.28575C20.3857 2.22573 25.2479 6.68731 25.5288 12.0493C25.8529 17.9114 20.8828 22.9133 14.4647 22.9133C8.15478 22.9133 3.53035 18.1716 3.40069 12.8496C3.24942 6.96747 8.4357 2.22569 14.4647 2.30572V2.28575ZM7.0743 13.2698C7.29039 13.2698 7.39844 13.2098 7.50649 13.1697C7.63615 13.1297 7.7658 13.1097 7.89546 13.0697C8.02512 13.0297 8.15477 13.0297 8.24121 13.1297C8.39248 13.3098 8.58696 13.2897 8.78145 13.2497C9.30008 13.1697 9.32168 13.1697 9.581 13.5699C9.75387 13.83 9.90514 14.09 10.3157 14.07C10.3805 14.07 10.467 14.1301 10.5102 14.1701C10.5966 14.2301 10.6615 14.2901 10.7263 14.3701C11.2665 15.0904 12.0445 15.4706 12.9305 15.7307C13.2978 15.8307 13.5355 16.0708 13.73 16.3309C13.9029 16.551 13.9029 16.751 13.6652 16.9511C13.4059 17.1712 13.1898 17.4113 12.9521 17.6313C12.8008 17.7714 12.7576 17.9315 12.9521 18.0915C13.0601 18.1916 13.125 18.3116 13.0385 18.4516C12.9521 18.5917 12.8008 18.6517 12.6495 18.6317C12.4983 18.6317 12.347 18.5917 12.1957 18.5717C12.0229 18.5517 11.8932 18.5717 11.8068 18.7318C11.5475 19.1919 11.3098 19.6721 11.3314 20.2123C11.3314 20.4524 11.4178 20.5724 11.6771 20.6525C12.9521 21.0126 14.2486 21.1526 15.5884 20.9926C17.4036 20.7725 19.0027 20.1323 20.3857 19.0319C20.4938 18.9518 20.6451 18.8918 20.6018 18.7118C20.5586 18.5517 20.4073 18.4917 20.2561 18.4516C19.8239 18.3316 19.7374 18.2316 19.9103 17.8314C20.1048 17.3713 20.2129 16.9111 20.2561 16.4309C20.3209 15.8307 20.3209 15.7707 19.7158 15.6106C19.4133 15.5306 19.3269 15.3505 19.3701 15.1105C19.3917 14.9504 19.4133 14.8103 19.4349 14.6503C19.4349 14.4702 19.3485 14.4302 19.1972 14.5102C18.9811 14.6302 18.765 14.7703 18.5489 14.9104C18.268 15.0904 17.9655 15.2305 17.6413 15.2505C17.382 15.2705 17.0795 15.2905 16.9498 15.0104C16.8634 14.8303 16.7121 14.7103 16.5176 14.6503C15.9558 14.5102 15.7613 14.09 15.6316 13.6299C15.5452 13.3698 15.5884 13.0897 15.5668 12.8296C15.502 12.4094 15.6749 12.1493 16.0855 11.9292C16.5609 11.6892 16.5393 11.6692 16.4312 11.169C16.3664 10.9289 16.4096 10.7889 16.6689 10.7288C16.8202 10.6888 16.885 10.5487 16.9066 10.4287C16.9498 10.2486 17.0579 10.1886 17.2308 10.1886C17.5117 10.1886 17.7062 10.0686 17.879 9.88851C18.2032 9.52838 18.6786 9.46834 19.154 9.42832C19.3701 9.42832 19.5646 9.52839 19.6726 9.70846C19.7375 9.8285 19.8023 9.96858 19.8239 10.1086C19.8671 10.3287 19.9752 10.3687 20.1912 10.3087C20.5802 10.2086 20.9692 10.1286 21.1421 9.72848C21.1853 9.62845 21.2933 9.52839 21.4014 9.58842C21.6823 9.72847 21.9848 9.58841 22.2874 9.64844C22.5035 9.68845 22.5035 9.5884 22.4386 9.44835C22.2874 9.0482 22.0929 8.66807 21.9632 8.26793C21.8336 7.84777 21.6175 7.52766 21.0772 7.52766C20.9476 7.52766 20.8179 7.46761 20.6883 7.42759C20.3209 7.32755 19.9752 7.42764 19.8023 7.66773C19.543 8.00786 19.8455 8.14788 20.04 8.32795C20.3857 8.66807 20.3641 8.88816 19.9319 9.14825C19.8671 9.18827 19.7807 9.24827 19.6942 9.18825C19.6294 9.12822 19.6726 9.06819 19.6942 8.98816C19.7807 8.66804 19.3917 8.18788 19.0459 8.18788C18.8299 8.18788 18.5921 8.18788 18.3761 8.18788C18.0735 8.16787 17.9006 8.26791 17.9655 8.56802C17.9871 8.7881 17.9223 8.92816 17.7278 9.06821C17.5333 9.22827 17.3172 9.40835 17.2308 9.64844C17.1875 9.78849 17.1875 9.96856 16.993 9.96856C16.7986 9.96856 16.6473 9.78851 16.6257 9.60844C16.6257 9.42838 16.5393 9.36833 16.388 9.32831C16.1719 9.26829 16.1071 9.14822 16.1071 8.92814C16.1071 8.56801 16.4744 8.1879 16.9066 8.14789C17.274 8.10787 17.2956 8.08784 17.1011 7.80774C16.885 7.50763 16.9498 7.32758 17.3172 7.32758C17.6413 7.32758 17.7278 7.1875 17.771 6.92741C17.771 6.82737 17.8358 6.72735 17.8574 6.62731C17.9006 6.38722 18.0735 6.26722 18.3328 6.2272C18.5705 6.18719 18.8082 6.14714 19.0459 6.06711C19.3701 5.96707 19.3917 5.827 19.2188 5.5469C18.9595 5.16676 18.5489 5.30684 18.2032 5.26683C17.9006 5.24682 17.7494 5.32683 17.7494 5.62694C17.7494 6.10712 17.5765 6.5073 17.1227 6.7874C16.8634 6.94746 16.2799 6.96747 16.0855 6.7874C15.8045 6.54732 15.999 6.30722 16.1071 6.08713C16.2583 5.76702 16.3015 5.44692 16.1719 5.1068C16.1071 4.88671 16.0854 4.70663 16.3232 4.52657C16.5609 4.32649 16.4744 4.14644 16.1503 4.10643C15.8261 4.06641 15.502 4.02634 15.1562 3.98633C14.4647 3.92631 13.7948 3.98637 13.1033 4.0864C13.3627 4.30648 13.233 4.56655 13.2114 4.80664C13.1682 5.12675 12.9953 5.28683 12.6495 5.26683C12.1309 5.26683 11.7852 5.5269 11.4178 5.807C11.3098 5.90704 11.2665 6.04712 11.353 6.14715C11.6771 6.44726 11.7203 6.76736 11.6123 7.18751C11.5475 7.38759 11.5259 7.52762 11.2881 7.54763C11.1153 7.56764 11.0504 7.64772 11.1801 7.78777C11.5042 8.1479 11.5042 8.14788 11.0721 8.38797C10.9856 8.42798 10.8992 8.48802 10.8127 8.52803C10.6615 8.60806 10.5534 8.58804 10.4454 8.44798C10.2509 8.16788 9.94836 8.16791 9.64583 8.16791C9.51617 8.16791 9.47295 8.24789 9.45134 8.36794C9.32168 9.04819 9.1272 9.16827 8.39248 9.02821C8.28443 9.02821 8.19799 8.9882 8.08995 8.96819C7.9819 8.96819 7.87385 8.96815 7.83063 9.04818C7.72258 9.26826 7.5281 9.46837 7.61453 9.76848C7.65775 9.90853 7.63614 10.0486 7.63614 10.1886C7.63614 10.3287 7.61453 10.4687 7.44166 10.5288C7.29039 10.5888 7.18234 10.4687 7.05269 10.3887C6.87981 10.2687 6.96625 10.1086 7.00947 9.96856C7.11752 9.60843 7.05269 9.52836 6.57728 9.3683C6.27475 9.26827 6.33958 9.54842 6.23153 9.66846C6.20992 9.68847 6.18831 9.74849 6.1667 9.7885C5.84256 10.4688 5.88578 10.7488 6.51245 11.269C6.68533 11.4291 6.75016 11.6091 6.72855 11.8292C6.70694 12.0293 6.77176 12.1694 6.87981 12.3294C7.05269 12.5895 7.48488 12.7896 7.11752 13.2097L7.0743 13.2698ZM5.32393 12.5095C5.32393 13.99 5.69129 15.3105 6.38279 16.571C6.81498 17.3512 7.39844 18.0515 8.06834 18.6718C8.13316 18.7318 8.2196 18.8918 8.34926 18.7318C8.78145 18.2516 8.69501 17.7114 8.15477 17.3312C7.63614 16.9911 7.26878 16.551 7.16074 15.9708C7.13913 15.8307 7.05269 15.7907 6.94464 15.7107C6.53406 15.4506 6.51245 15.3105 6.90142 15.0104C7.0743 14.8703 7.24717 14.7103 7.11752 14.5102C6.90142 14.1901 6.87981 13.85 6.87981 13.4698C6.87981 13.4098 6.8582 13.3498 6.81499 13.3097C6.6205 13.1497 6.59889 12.9496 6.6205 12.7096C6.6205 12.5895 6.6205 12.4695 6.49084 12.4095C6.20992 12.3094 6.10187 12.1093 6.05865 11.8493C6.01543 11.6292 5.79934 11.6292 5.60485 11.6092C5.41037 11.6092 5.36715 11.7292 5.34554 11.8692C5.32393 12.1093 5.32393 12.3494 5.30232 12.4894L5.32393 12.5095Z" fill="#164526"/>
<path d="M14.4659 31.6765C12.0024 31.6765 9.53892 31.6765 7.07544 31.6765C6.44876 31.6765 6.23267 31.4764 6.23267 30.8962C6.23267 30.6761 6.23267 30.456 6.23267 30.256C6.23267 29.8158 6.44876 29.5957 6.92417 29.5557C7.31314 29.5357 7.70211 29.5557 8.09108 29.5557C9.69019 29.5557 11.3109 29.5557 12.91 29.5557C13.3422 29.5557 13.3638 29.5557 13.3638 29.1356C13.3638 28.1352 13.3638 27.1348 13.3638 26.1545C13.3638 25.8944 13.2774 25.7743 12.9964 25.7543C10.0143 25.5342 7.37797 24.5139 5.08736 22.7532C2.25652 20.5524 0.549377 17.7114 0.117187 14.3301C-0.466269 9.72846 1.13283 5.82702 4.82805 2.68587C6.05979 1.64549 7.48602 0.865197 9.0419 0.304992C9.62535 0.0849114 9.7334 0.14498 9.97111 0.66517C10.0792 0.885251 10.1656 1.12533 10.2736 1.34541C10.4681 1.78557 10.4033 1.92559 9.9495 2.12567C8.78259 2.60584 7.6589 3.14607 6.66486 3.90635C4.22299 5.78704 2.75354 8.16788 2.32135 11.0689C1.80273 14.5702 2.86159 17.6514 5.41151 20.2523C7.37797 22.253 9.86306 23.4135 12.7803 23.7536C15.0926 24.0137 17.2967 23.6936 19.3928 22.7732C19.825 22.5732 19.9547 22.6332 20.1708 23.0533C20.3004 23.2934 20.4085 23.5536 20.5165 23.7936C20.6894 24.1938 20.603 24.4139 20.1708 24.6139C19.1551 25.0741 18.0747 25.3942 16.951 25.5943C16.6052 25.6543 16.2595 25.7143 15.8921 25.7543C15.676 25.7743 15.5896 25.8544 15.5896 26.0744C15.5896 27.1348 15.5896 28.1952 15.5896 29.2556C15.5896 29.5157 15.676 29.5958 15.9569 29.5958C17.8802 29.5958 19.825 29.5958 21.7483 29.5958C21.9211 29.5958 22.094 29.5957 22.2669 29.6357C22.5478 29.7158 22.6991 29.8759 22.7207 30.156C22.7207 30.4961 22.7207 30.8362 22.7207 31.1763C22.7207 31.5165 22.4398 31.7165 22.0076 31.7165C20.4517 31.7165 18.8958 31.7165 17.3399 31.7165C16.3675 31.7165 15.4167 31.7165 14.4443 31.7165L14.4659 31.6765Z" fill="#164526"/>
</svg>
