<svg width="29" height="32" viewBox="0 0 29 32" fill="none" xmlns="http://www.w3.org/2000/svg">
<path d="M14.6546 31.1421H14.3248C14.1805 31.104 14.0362 31.0467 13.892 31.0085C9.41933 29.8254 4.94669 28.6232 0.453446 27.44C0.103055 27.3446 0 27.211 0 26.8866C0 20.2266 0 13.5475 0 6.88753C0 6.60129 0.103057 6.42951 0.391614 6.31501C1.40156 5.91426 2.41151 5.49445 3.40085 5.07462C5.64748 4.13955 7.91471 3.20447 10.1613 2.2694C11.5835 1.67783 13.0057 1.08624 14.4279 0.475586C14.4897 0.475586 14.5515 0.475586 14.6134 0.475586C14.7164 0.513752 14.8401 0.570997 14.9431 0.59008C19.457 1.77323 23.9709 2.97546 28.4847 4.15861C29 4.29219 29 4.29222 29 4.78838C29 9.10116 29 13.3948 29 17.7076C29 20.0548 29 22.4212 29 24.7684C29 24.9974 28.9588 25.1882 28.6908 25.3027C24.9396 26.8484 21.1883 28.3942 17.4371 29.959C16.489 30.3597 15.5409 30.7032 14.6134 31.1612L14.6546 31.1421ZM14.5103 26.1805C20.6318 26.1805 25.5785 21.6578 25.5579 15.9901C25.5579 10.3034 20.6937 5.81889 14.634 5.76164C8.49183 5.70439 3.4833 10.3034 3.4833 15.8948C3.4833 21.6006 8.36816 26.1614 14.5103 26.1614V26.1805Z" fill="#164526"/>
<path d="M20.6311 14.3871C20.9609 14.5016 21.2494 14.6733 21.5998 14.6733C22.0327 14.6924 22.1769 14.597 22.2182 14.1962C22.2182 14.0436 22.2594 13.8718 22.3418 13.7383C22.4243 13.5665 22.5479 13.452 22.7747 13.4711C23.0014 13.4711 23.0014 13.6619 23.022 13.7955C23.4961 15.5511 23.3724 17.2877 22.5686 18.9479C21.27 21.6386 19.044 23.2798 15.9111 23.7569C13.3347 24.1576 11.0263 23.5279 8.98576 22.0203C8.75903 21.8486 8.71781 21.6959 8.86209 21.4669C9.08881 21.0852 9.41859 20.7799 9.76898 20.5127C10.1812 20.2074 10.4492 19.8067 10.5934 19.3487C10.7171 18.967 10.6553 18.6235 10.2843 18.3945C9.29492 17.7457 8.40864 16.9251 7.13075 16.6961C6.61547 16.6007 6.24446 16.219 5.89407 15.8755C5.81163 15.7801 5.79102 15.6847 5.79102 15.5702C5.79102 15.1122 5.87346 14.6542 5.95591 14.1962C5.99713 14.0054 6.10018 13.9481 6.32691 13.9481C6.61547 13.9481 6.88341 13.9481 7.17197 13.9481C7.56358 13.9291 7.76969 13.7573 7.87275 13.3948C7.93458 13.1849 7.95519 12.9558 7.99642 12.7459C8.05825 12.2879 8.30559 11.9253 8.73842 11.6772C8.90331 11.5818 9.08881 11.4673 9.2537 11.3719C10.0575 10.8567 10.2843 10.1888 9.85143 9.36821C9.70715 9.08196 9.76899 8.96746 10.0369 8.83388C12.2217 7.66981 14.5302 7.38356 16.9623 7.99422C17.2921 8.07055 17.4364 8.22322 17.457 8.52855C17.457 8.70029 17.457 8.87208 17.457 9.04383C17.457 9.50182 17.1684 9.78805 16.7768 9.97888C16.1585 10.2651 15.9524 10.7612 15.973 11.3719C15.973 11.7536 16.1585 11.9254 16.5707 12.0017C16.8799 12.0589 17.189 12.0398 17.4982 12.0398C18.1578 12.0398 18.9204 12.5741 19.0853 13.1657C19.1677 13.4138 19.0853 13.5093 18.7761 13.5093C18.2402 13.5093 17.7043 13.3947 17.189 13.2993C16.3646 13.1467 15.6844 13.3375 15.0455 13.8146C14.4271 14.2535 13.85 14.7306 13.7057 15.4748C13.6027 16.0091 13.7057 16.5244 14.0149 17.0014C14.2828 17.4022 14.7157 17.4594 15.1691 17.4785C15.5607 17.4785 15.9524 17.4785 16.3234 17.593C16.9005 17.7648 17.0654 18.051 16.8386 18.5663C16.4882 19.3678 16.4882 20.1883 16.7356 21.0089C16.9211 21.6577 17.3951 21.8294 17.9722 21.3905C18.8173 20.7417 19.5387 19.9593 20.054 19.0433C20.157 18.8716 20.2189 18.6617 20.2189 18.4708C20.2189 17.9937 20.4662 17.6312 20.796 17.3068C20.9609 17.135 21.1258 16.9633 21.2907 16.7916C21.5586 16.5053 21.5998 16.2 21.4762 15.8374C21.3319 15.3985 21.0639 15.0168 20.7754 14.6161C20.7342 14.5588 20.6517 14.5015 20.6517 14.368L20.6311 14.3871Z" fill="#164526"/>
</svg>
