<svg width="42" height="28" viewBox="0 0 42 28" fill="none" xmlns="http://www.w3.org/2000/svg">
<path d="M21.6089 11.4713C20.5082 11.6566 19.6276 11.7863 18.5669 11.9531C20.3281 10.3595 21.8091 8.72892 22.8698 6.59801C21.9692 6.72772 21.2087 6.83891 20.5082 6.93156C21.4889 5.67155 22.4695 4.39301 23.4702 3.11446C23.4102 3.04034 23.3301 2.96621 23.2701 2.89209C22.9098 2.91062 22.5496 2.92915 22.1893 2.94767C22.8498 1.94708 23.5102 0.96503 24.1507 0.0200195C24.7711 0.927971 25.4115 1.91003 26.092 2.92916C25.7918 2.92916 25.4315 2.8921 24.9112 2.87357C25.5716 4.46712 26.7124 5.69008 28.0333 6.96863C27.1126 6.83892 26.3521 6.72772 25.4115 6.59801C26.4522 8.72892 27.9732 10.3595 29.6944 11.9531C28.6737 11.7863 27.7531 11.6381 26.6523 11.4713C28.2934 14.2693 30.3548 16.5114 32.8365 18.6608C26.9726 19.9949 21.2887 20.1246 15.4048 18.6793C17.8664 16.567 19.9078 14.3249 21.5689 11.4713H21.6089Z" fill="#164526"/>
<path d="M31.1553 16.7339C31.8157 15.8445 32.3761 15.1033 33.0365 14.2324C32.5162 14.2695 32.236 14.288 31.8958 14.3065C32.4561 13.5839 32.9965 12.8797 33.6169 12.083C33.2167 12.0088 32.9765 11.9718 32.7163 11.9347C32.7563 11.8606 32.7764 11.7865 32.8164 11.7124C33.0766 11.1565 33.9572 10.8785 33.5169 10.0077C33.4168 9.82236 33.8971 9.37762 34.1773 8.96997C34.3774 9.50733 34.8177 9.80383 34.6376 10.4709C34.5375 10.8415 35.198 11.3788 35.5582 11.9162C35.3181 11.9533 35.0779 11.9903 34.6576 12.0459C35.278 12.8427 35.8184 13.5468 36.3988 14.288C36.0986 14.2695 35.7984 14.2509 35.4982 14.2139C35.4382 14.2694 35.3781 14.3251 35.2981 14.3806C36.1586 15.3998 37.0192 16.4374 37.9198 17.5121C36.2387 17.9568 34.4775 18.1422 32.7563 17.8827C32.176 17.7901 31.6956 17.1415 31.1753 16.7339H31.1553Z" fill="#164526"/>
<path d="M4.53594 17.4935C4.43587 17.2156 4.33581 16.9376 4.25575 16.6782C3.09497 16.4188 1.95421 16.1594 0.693359 15.8814C1.85414 14.9364 2.85481 14.1211 3.85548 13.3058C3.75542 13.1946 3.67536 13.0834 3.5753 12.9723H2.27442C2.91485 12.3052 3.49524 11.7123 4.1757 10.9896C3.77543 10.934 3.59531 10.9155 3.39517 10.897C3.81546 10.3967 4.21572 9.91488 4.61599 9.43311C5.01626 9.91488 5.45656 10.4152 5.89685 10.934H5.01626C5.73675 11.6937 6.31714 12.3237 6.93755 12.9538H5.69672C5.69672 12.9538 5.57664 13.0649 5.5166 13.1205C6.45723 14.0099 7.39786 14.8994 8.45857 15.8814C7.27778 16.1408 6.15703 16.4188 4.99625 16.6782C4.85615 16.9376 4.69605 17.2341 4.53594 17.5306H4.55595L4.53594 17.4935Z" fill="#164526"/>
<path d="M4.51659 17.5118L11.7214 16.1777C11.7214 16.1777 11.7615 16.3259 11.7615 16.3815C10.3205 16.6965 8.85951 16.956 7.43856 17.3636C6.47791 17.6416 5.51727 18.0307 4.6767 18.531C3.35581 19.3092 3.35581 20.3839 4.6767 21.1992C5.43721 21.681 6.35783 21.9219 7.15837 22.3296C7.51861 22.5149 7.99893 22.7743 8.099 23.0707C8.17906 23.3116 7.7988 23.7934 7.4986 23.9787C6.63802 24.4975 5.7174 24.9422 4.73674 25.2943C5.45723 24.8125 6.17771 24.3308 7.13835 23.7008C6.57798 23.5155 6.3178 23.4228 6.05763 23.3301C4.69672 22.8484 3.25575 22.4778 1.97489 21.8292C0.193691 20.9213 0.213704 19.6428 1.97489 18.6607C2.79544 18.1975 3.69604 17.8824 4.55662 17.5118H4.53661H4.51659Z" fill="#164526"/>
<path d="M12.1409 16.7522C11.2603 17.0116 10.3597 17.2154 9.49916 17.5119C8.87874 17.7342 7.95812 17.9936 8.13825 18.7163C8.25833 19.1981 8.97881 19.7539 9.53919 19.9207C11.2003 20.384 12.9014 20.7916 14.6226 20.9954C19.3858 21.5328 24.169 21.4957 28.9122 20.7175C30.053 20.5322 31.1537 20.2172 32.2945 19.9763C30.5133 20.8101 28.552 21.0881 26.5906 21.3104C21.8475 21.8478 17.1043 21.9034 12.3811 21.3104C10.4598 21.0696 8.57854 20.5137 6.71729 20.0134C6.277 19.9022 5.63657 19.3463 5.67659 19.0498C5.71662 18.6422 6.25698 18.1048 6.71729 17.9751C8.45846 17.4192 10.2597 17.0116 12.0409 16.5483C12.0809 16.6225 12.1009 16.6966 12.1409 16.7892V16.7522Z" fill="#164526"/>
<path d="M41.0215 21.6993C37.299 21.8475 33.3363 21.9402 29.3736 22.1996C24.9307 22.4961 20.5277 22.9778 16.3049 24.3676C14.7038 24.8864 13.1828 25.5535 12.082 27.0544C12.2021 25.9796 12.8025 25.3682 13.583 25.0531C15.4443 24.312 17.3255 23.5152 19.2869 23.089C25.8713 21.6622 32.5758 21.2731 39.3403 21.5511C40.0008 21.5696 40.6412 21.6808 41.0415 21.6993H41.0215Z" fill="#164526"/>
<path d="M13.9033 27.7959C14.0434 26.573 14.7439 25.9985 15.5844 25.5353C17.5458 24.4421 19.7472 23.9788 21.9487 23.5526C26.812 22.6076 34.7973 22.0518 40.4411 22.2556C40.4411 22.3297 40.4411 22.4038 40.4411 22.4964C38.8401 22.4964 37.239 22.4409 35.6579 22.4964C30.3344 22.6817 25.0508 23.145 19.9274 24.6459C17.7659 25.2759 15.7446 26.1468 13.9033 27.7959Z" fill="#164526"/>
<path d="M8.23975 14.955C9.16036 14.2508 9.88085 13.7135 10.5813 13.1761C10.5213 13.0834 10.4412 12.9908 10.3812 12.8982C10.141 12.8426 9.92087 12.8055 9.80079 12.787C10.2211 12.0087 10.6213 11.2305 11.1017 10.3411C11.582 11.212 11.9823 11.9902 12.4226 12.8055C12.3225 12.8055 12.1023 12.8426 11.622 12.8982C12.3625 13.6208 13.0029 14.2508 13.6234 14.8808C12.9629 15.6405 11.4619 14.8623 11.1417 15.8444C10.7614 15.6961 10.4012 15.4923 10.0009 15.3811C9.5206 15.2329 9.02027 15.1588 8.23975 14.9735V14.955Z" fill="#164526"/>
<path d="M39.4398 20.8286C38.5992 20.5136 37.8187 20.2913 37.1382 19.9392C36.3977 19.5501 36.4178 19.0313 37.1583 18.6051C37.6186 18.3457 38.1389 18.2159 38.6393 18.0121C38.9194 17.9009 39.1996 17.7527 39.5599 17.5859C39.8601 17.7527 40.1603 17.9565 39.5198 18.3271C38.9595 18.6421 38.4591 19.0498 37.9388 19.4018C38.4191 19.8465 38.8794 20.2913 39.4398 20.8101V20.8286Z" fill="#164526"/>
<path d="M33.8155 18.5498C33.9356 18.8463 34.2558 19.3095 34.1557 19.4392C33.6754 19.958 33.075 20.3657 32.3945 20.7178C32.9949 20.1063 34.0957 19.8098 33.5953 18.661C33.6754 18.6239 33.7354 18.6054 33.8155 18.5683V18.5498Z" fill="#164526"/>
</svg>
