<svg width="32" height="30" viewBox="0 0 32 30" fill="none" xmlns="http://www.w3.org/2000/svg">
<path d="M24.3659 29.6404H23.8743C21.3095 28.6113 18.7446 27.6021 16.1584 26.5731C15.8806 26.4742 15.6455 26.4148 15.3462 26.5533C13.1447 27.5823 10.9219 28.6113 8.72042 29.6602H8.22882C5.70674 28.6509 3.18466 27.6417 0.662584 26.6522C0.192365 26.4741 0 26.2367 0 25.7419C0 17.6285 0 9.51505 0 1.4016C0 0.669413 0.0427489 0.649603 0.790824 0.946436C3.14192 1.87652 5.49301 2.80662 7.8441 3.75649C8.27157 3.93459 8.63492 3.91476 9.04102 3.71687C11.0288 2.767 13.0379 1.85671 15.0256 0.926628C15.4531 0.728739 15.8378 0.708972 16.2867 0.887072C18.6805 1.85673 21.1171 2.80658 23.5109 3.77624C23.8956 3.93455 24.2163 3.93459 24.601 3.75649C26.5673 2.82641 28.5551 1.91609 30.5428 1.0058C30.7779 0.906856 30.9917 0.748535 31.2695 0.748535V26.4148C30.9703 26.5731 30.6711 26.7116 30.3505 26.8699C28.3414 27.8198 26.3109 28.7498 24.3017 29.6997L24.3659 29.6404ZM2.54346 14.5217C2.54346 17.7472 2.54346 20.9728 2.54346 24.1786C2.54346 24.614 2.69307 24.8515 3.14192 25.0296C4.72356 25.6232 6.28383 26.2565 7.8441 26.8897C8.22882 27.048 8.5708 27.0282 8.93415 26.8501C10.644 26.0388 12.3753 25.2868 14.0638 24.4557C15.1325 23.9214 16.1157 23.9214 17.2057 24.3765C19.2576 25.2274 21.3522 26.019 23.4254 26.8699C23.8529 27.048 24.2163 27.0282 24.6224 26.8304C25.8193 26.2565 27.0162 25.7023 28.2345 25.168C28.6833 24.9702 28.8543 24.7129 28.8543 24.2578C28.8543 21.2894 28.8543 18.3013 28.8543 15.333C28.8543 11.9293 28.8543 8.50581 28.8543 5.10212C28.8543 4.48866 28.7902 4.46887 28.2131 4.72613C27.3582 5.1219 26.4818 5.4979 25.6483 5.91347C24.6865 6.40819 23.7247 6.40821 22.7415 5.99264C20.6469 5.14172 18.5095 4.31053 16.4149 3.45961C15.9874 3.28151 15.6241 3.30133 15.218 3.49922C13.4867 4.33036 11.7127 5.10209 9.98146 5.93322C9.04102 6.38836 8.14333 6.40817 7.18152 6.01239C5.89911 5.47809 4.59532 4.98337 3.31291 4.46886C2.65032 4.2116 2.5862 4.2314 2.5862 4.90422C2.5862 8.11002 2.5862 11.3158 2.5862 14.5019L2.54346 14.5217Z" fill="#164526"/>
<path d="M17.2276 21.9818C17.1421 21.0715 17.4413 20.2008 17.2917 19.2707C17.1635 18.5187 16.8215 17.8657 16.5223 17.2126C16.4368 17.0148 16.2872 16.9554 16.0948 17.0544C16.0521 17.0544 16.0307 17.0939 15.9879 17.1137C14.3422 17.9449 13.9361 17.0939 13.7651 15.9264C13.5727 14.6203 13.9788 13.4923 15.2826 12.7799C15.5177 12.6414 15.7528 12.4831 15.9666 12.305C16.2444 12.0873 16.4795 11.9488 16.8215 12.2061C17.0994 12.4039 17.42 12.3446 17.6765 12.1665C17.9757 11.9686 17.7192 11.7113 17.6551 11.5134C17.5268 11.1374 17.3559 10.7615 17.0353 10.4844C16.9284 10.4053 16.8001 10.3063 16.6505 10.3459C16.4795 10.4053 16.5009 10.5438 16.5009 10.6823C16.5009 10.7219 16.5009 10.7615 16.5009 10.8011C16.5009 11.0385 16.5437 11.3947 16.2658 11.4343C15.9238 11.4937 15.9879 11.0979 15.8811 10.9C15.8383 10.8208 15.817 10.7219 15.7742 10.6427C15.646 10.4052 15.4964 10.1282 15.1544 10.2074C14.8124 10.2865 14.9406 10.6031 14.9193 10.8406C14.9193 10.9396 14.962 11.0187 14.962 11.1177C15.0689 11.7114 14.791 12.1467 14.2567 12.2654C13.7651 12.3644 13.2949 12.028 13.1453 11.4343C12.8674 10.3459 13.188 9.55433 14.2139 8.98045C14.5773 8.78256 14.791 8.64402 14.2353 8.40655C14.1071 8.34719 13.9788 8.24826 14.0216 8.10973C14.0643 7.97121 14.2139 7.91185 14.3636 7.93164C14.7483 7.95143 14.9406 7.73379 15.133 7.47653C15.646 6.78392 16.2658 6.58602 17.1421 6.78391C17.9116 6.96201 18.5955 7.37754 19.3436 7.61501C19.9634 7.8129 20.4764 7.89205 20.8397 7.23902C20.9466 7.06092 21.1603 6.9422 21.3741 6.88283C21.6733 6.78389 22.1008 6.66515 22.229 6.88283C22.4 7.17966 21.9084 7.23903 21.6947 7.37755C21.31 7.63481 21.3313 7.95144 21.9512 8.24827C22.5069 8.52531 22.742 8.90132 22.8489 9.43562C22.9771 10.0293 23.3832 10.1678 23.832 9.71263C24.6015 8.96065 25.5206 8.36701 26.3114 7.63482C26.7389 7.23904 27.0808 7.23902 27.4869 7.67438C27.7007 7.91184 27.8289 8.18893 27.9358 8.46598C28.064 8.84197 28.1281 9.21794 28.5129 9.49498C28.6838 9.61371 28.748 9.87099 28.6197 10.0689C28.5129 10.247 28.3205 10.1085 28.1923 10.0689C27.6579 9.93035 27.2946 10.148 26.974 10.5042C26.6961 10.8209 26.3328 11.0979 26.7389 11.5728C26.9098 11.7905 26.7388 12.0477 26.5892 12.2456C26.3328 12.6216 26.461 12.7601 26.9098 12.8195C28.3419 13.057 28.6411 13.5121 28.3846 14.8776C28.2777 15.4317 28.0213 15.867 27.5297 16.1836C26.8885 16.5794 26.3755 17.0543 26.3114 17.8459C26.2686 18.3208 25.9694 18.3406 25.5847 18.1229C25.2641 17.9448 25.0717 17.648 24.8152 17.4105C24.3878 17.0346 24.0672 17.0741 23.832 17.5688C23.5114 18.1823 23.2977 18.8354 23.3405 19.528C23.3405 19.8248 23.3405 20.1216 23.2336 20.4184C23.1481 20.6361 23.0199 20.7944 22.7634 20.7944C22.4855 20.7944 22.3573 20.6163 22.3145 20.4184C22.1008 19.6665 22.1863 18.8947 22.2718 18.1229C22.3573 17.2918 22.4214 16.4607 22.0153 15.6889C21.9084 15.4712 21.8016 15.1744 21.481 15.2536C21.139 15.3525 21.2672 15.6494 21.31 15.8868C21.3527 16.1243 21.3955 16.3617 21.4382 16.619C21.4382 16.7773 21.4596 16.9752 21.31 17.0939C20.113 18.2417 19.536 19.6665 19.2154 21.1902C19.0444 21.9818 18.8734 22.7733 18.4673 23.5055C18.339 23.743 18.2108 24.0794 17.8261 24.02C17.4413 23.9805 17.3986 23.6243 17.3559 23.367C17.2917 22.9119 17.2917 22.4765 17.2704 22.0213L17.2276 21.9818Z" fill="#164526"/>
<path d="M11.1137 8.32757C11.0709 8.62441 11.0282 9.05976 10.9854 9.49511C10.8572 10.3856 11.3274 11.2168 11.2633 12.1073C11.1992 12.8988 10.7717 13.8091 9.98086 14.2049C9.44652 14.4621 8.86944 14.4225 8.93356 13.631C8.97631 12.9977 8.54884 12.6613 7.95038 12.7207C7.73664 12.7405 7.56565 12.8395 7.62977 13.0373C7.88625 13.6904 7.97175 14.5017 8.52746 14.9173C9.10455 15.3328 9.83125 15.6692 10.6434 15.7088C12.0755 15.788 13.0587 16.5597 13.3365 17.7669C13.4648 18.3407 13.2724 18.8553 13.0373 19.35C12.909 19.6271 12.6098 19.726 12.332 19.6864C11.7762 19.5874 11.5839 19.8843 11.6266 20.28C11.6908 20.9924 11.3915 21.5268 10.964 22.1006C10.4511 22.7735 10.6221 23.5848 10.4938 24.3566C10.4297 24.7128 10.5366 25.2668 10.1732 25.3658C9.76713 25.4647 9.51065 24.9502 9.27554 24.6336C8.82669 23.9806 8.59158 23.2682 8.57021 22.4964C8.52746 21.5268 8.35647 20.6362 7.24505 20.2207C6.94582 20.1019 7.03131 19.8843 7.11681 19.6864C7.30917 19.2312 7.2878 18.9146 6.68934 18.7168C6.17637 18.5584 6.19774 18.1627 6.41148 17.7867C6.71071 17.2722 7.22368 16.9951 7.73664 16.7379C8.22823 16.4806 8.46334 16.164 8.31373 15.6297C8.16411 15.1152 7.75802 14.9766 7.24505 14.9766C6.64659 14.9766 6.21912 14.7194 6.00538 14.2049C5.81302 13.7497 5.47104 13.4727 5.00082 13.2748C4.23137 12.9582 4.01764 12.4634 4.21 11.7115C4.38099 11.0782 4.74434 10.5439 5.17181 10.0294C5.36417 9.79192 5.64203 9.53468 5.36417 9.23785C5.10769 8.9608 4.74434 8.98062 4.40237 9.07956C4.25275 9.11914 4.10313 9.17848 3.95352 9.23785C3.69704 9.33679 3.44055 9.41593 3.24819 9.15867C3.0772 8.92121 3.05583 8.64417 3.24819 8.42649C4.01764 7.61515 5.04357 6.90274 6.45423 7.17978C7.05269 7.29852 7.62977 7.49642 8.09999 7.87241C8.39922 8.10987 8.61296 8.0703 8.91219 7.87241C9.27554 7.65473 9.66026 7.41727 10.0877 7.25896C10.8358 6.96212 11.0923 7.15999 11.0923 7.91196C11.0923 8.01091 11.0923 8.1099 11.0923 8.32757H11.1137Z" fill="#164526"/>
<path d="M28.0839 22.5754C28.0839 22.7931 28.1267 23.0701 27.8274 23.2482C27.5282 23.4065 27.4 23.1889 27.2076 23.0504C26.9297 22.8723 26.6946 23.0503 26.5023 23.1889C26.2244 23.3867 25.9679 23.6638 25.6687 23.8419C25.0916 24.1981 24.6641 23.9804 24.5787 23.3472C24.4077 21.9422 24.9634 20.8538 26.1603 20.0227C26.3099 19.9039 26.5023 19.7456 26.6946 19.8248C26.9298 19.9237 26.6946 20.1216 26.6946 20.2601C26.6946 20.3591 26.6733 20.458 26.7801 20.5174C26.9511 20.5966 27.0366 20.4778 27.1435 20.3987C27.3572 20.2601 27.4427 19.8248 27.7419 19.9633C27.9557 20.0623 27.8061 20.458 27.8274 20.7152C27.9129 21.3287 27.9984 21.9422 28.0839 22.5952V22.5754Z" fill="#164526"/>
<path d="M11.6284 7.33828C11.6284 6.4082 12.3337 5.75513 13.1887 5.75513C13.5948 5.75513 13.7871 5.89365 13.7017 6.30921C13.5734 6.88309 13.3597 7.41741 13.0391 7.93192C12.8681 8.20896 12.6543 8.5058 12.2482 8.42664C11.8635 8.36727 11.7994 8.03087 11.6925 7.75383C11.6498 7.59551 11.6284 7.41739 11.6284 7.35802V7.33828Z" fill="#164526"/>
</svg>
