<svg width="42" height="43" viewBox="0 0 42 43" fill="none" xmlns="http://www.w3.org/2000/svg">
<path d="M0.0195487 26.0997C0.488717 25.3568 1.09473 24.7703 2.05261 24.8681C3.04959 24.9854 3.51876 25.7087 3.85109 26.5688C4.47665 28.2109 5.19995 29.7944 5.76686 31.456C6.11874 32.4725 6.47061 32.3748 7.17437 31.8079C8.34729 30.85 9.57885 29.9898 10.7713 29.071C11.436 28.5627 12.1593 28.3282 12.9999 28.3282C17.281 28.3478 21.5426 28.3478 25.8238 28.3282C26.684 28.3282 27.3877 28.5627 28.0524 29.0906C29.1275 29.9311 30.2418 30.7327 31.317 31.5537C32.1511 32.1793 32.7571 32.0229 33.135 31.0846C33.7606 29.5207 34.3666 27.9567 35.0117 26.4124C35.5591 25.0831 36.4778 24.5553 37.5139 24.9462C38.6673 25.3763 39.0583 26.4516 38.5109 27.82C37.4748 30.459 36.4192 33.0981 35.344 35.7176C34.6403 37.4574 33.3892 37.7897 31.8644 36.6559C30.1636 35.3852 28.4629 34.1146 26.7426 32.8244C26.4689 33.2545 26.5667 33.6064 26.5667 33.9387C26.5667 36.4605 26.5667 38.9823 26.5667 41.504C26.5667 42.1687 26.4103 42.5596 25.6283 42.5596C21.4645 42.5401 17.281 42.5401 13.1172 42.5596C12.2179 42.5596 12.1984 42.0319 12.1984 41.3868C12.1984 38.9432 12.1984 36.48 12.1984 34.0364C12.1984 33.7041 12.3743 33.2545 12.0029 33.0786C11.651 32.9026 11.3969 33.3327 11.1232 33.5281C9.6766 34.5838 8.26909 35.6785 6.82249 36.7342C5.37589 37.7702 4.16387 37.4378 3.47967 35.7957C2.30674 32.9807 1.17292 30.1658 0 27.3508C0 26.9207 0 26.5102 0 26.0801L0.0195487 26.0997Z" fill="#164526"/>
<path d="M0.019043 14.3118C2.1303 12.2005 4.24156 10.1089 6.31372 7.97804C6.86108 7.43068 7.19341 7.39158 7.76032 7.97804C9.65654 9.93291 11.5919 11.8683 13.5467 13.7841C14.0745 14.3119 14.0354 14.6441 13.5467 15.1524C11.6114 17.0291 9.69564 18.9448 7.83852 20.8801C7.23251 21.5057 6.84153 21.5252 6.23552 20.8801C4.20246 18.808 2.11075 16.7945 0.0385916 14.7419C0.0385916 14.6051 0.0385916 14.4682 0.0385916 14.3118H0.019043ZM11.2204 14.4682C11.1227 14.3118 11.0836 14.1945 10.9859 14.0968C9.77384 12.8848 8.56182 11.6728 7.3498 10.4608C7.03702 10.148 6.78289 10.363 6.5483 10.5976C5.43403 11.7119 4.3393 12.8261 3.20548 13.9208C2.77541 14.3509 2.83405 14.6637 3.24458 15.0547C4.31975 16.0907 5.37538 17.1659 6.43101 18.2411C6.84153 18.6712 7.15431 18.6516 7.56483 18.2411C8.64001 17.1464 9.73474 16.0712 10.8099 14.9765C10.9468 14.8397 11.064 14.6637 11.2009 14.4878L11.2204 14.4682Z" fill="#164526"/>
<path d="M22.5197 0.432654C25.452 1.84016 26.5272 3.44311 26.3708 6.25812C26.234 8.93629 23.7513 11.0475 20.8386 11.0084C18.1604 10.9693 15.8536 8.74081 15.7168 6.14084C15.5604 3.24763 17.0461 1.48826 19.5874 0.413086H22.5393L22.5197 0.432654ZM24.3573 5.65212C24.3573 3.7559 22.9303 2.36795 21.034 2.36795C19.1378 2.36795 17.7303 3.77546 17.7108 5.67169C17.7108 7.62655 19.1378 9.0341 21.0927 9.01455C22.9694 9.01455 24.3769 7.56791 24.3573 5.67169V5.65212Z" fill="#164526"/>
<path d="M19.3524 26.8036C16.3614 26.8036 14.0352 24.4578 14.0352 21.4668C14.0352 18.4368 16.381 16.13 19.4501 16.1495C22.4411 16.1495 24.7869 18.4954 24.7869 21.4668C24.7869 24.4773 22.402 26.8036 19.3524 26.8036Z" fill="#164526"/>
<path d="M35.0109 18.1438C33.017 18.1438 31.023 18.1438 29.0095 18.1438C28.0125 18.1438 27.9148 17.9678 28.3839 17.1272C30.417 13.5694 32.45 10.0116 34.4831 6.45373C34.9914 5.55449 35.1282 5.55449 35.6365 6.45373C37.65 9.97249 39.6831 13.5108 41.677 17.0491C42.2244 18.007 42.1266 18.1634 40.9928 18.1634C38.9989 18.1634 37.0049 18.1634 34.9914 18.1634L35.0109 18.1438ZM35.1087 16.1302C36.0861 16.1302 37.0635 16.1302 38.0605 16.1302C38.7252 16.1302 38.7643 15.9152 38.471 15.3874C37.4545 13.628 36.438 11.8687 35.441 10.1093C35.1869 9.6597 34.9914 9.64015 34.7372 10.1093C33.7403 11.8687 32.7237 13.6476 31.7267 15.4069C31.414 15.9738 31.6095 16.1693 32.1959 16.1498C33.1733 16.1498 34.1508 16.1498 35.1478 16.1498L35.1087 16.1302Z" fill="#164526"/>
</svg>
