<svg width="41" height="41" viewBox="0 0 41 41" fill="none" xmlns="http://www.w3.org/2000/svg">
<path d="M40.2253 26.1795C31.7706 17.7047 17.5163 17.1871 8.36278 24.9935C7.92024 25.3816 7.50099 25.7698 7.08175 26.1795C6.75567 26.503 6.56934 26.9558 6.56934 27.3871V34.6759C6.56934 35.6679 7.45442 36.4658 8.54911 36.4658H38.7579C39.8526 36.4658 40.7377 35.6463 40.7377 34.6328V27.344C40.7377 26.9127 40.5514 26.4814 40.2253 26.1579V26.1795Z" fill="#164526"/>
<path d="M23.6639 17.0359C28.745 17.0359 32.864 13.2223 32.864 8.51796C32.864 3.81362 28.745 0 23.6639 0C18.5829 0 14.4639 3.81362 14.4639 8.51796C14.4639 13.2223 18.5829 17.0359 23.6639 17.0359Z" fill="#164526"/>
</svg>
