<svg width="35" height="34" viewBox="0 0 35 34" fill="none" xmlns="http://www.w3.org/2000/svg">
<path d="M14.0955 16.7973C12.3133 15.1287 10.6111 13.5528 8.90904 11.9583C8.74884 11.81 8.62869 11.8286 8.44847 11.9027C7.60743 12.2179 6.74636 12.3477 5.82522 12.3106C4.34339 12.255 3.0618 11.7544 1.98046 10.8274C1.1194 10.0858 0.438557 9.23292 0.198259 8.15759C-0.062063 7.08226 -0.102112 5.96989 0.298383 4.89457C0.498631 4.33836 0.879102 4.28271 1.31965 4.6906C2.28084 5.58052 3.222 6.47045 4.18319 7.36038C4.56366 7.6941 4.90408 7.6941 5.26453 7.36038C5.76515 6.89687 6.26577 6.39627 6.78641 5.95131C7.42721 5.41365 7.26701 5.11704 6.78641 4.65354C5.8853 3.81923 5.02423 2.92929 4.06304 2.15061C3.56242 1.74273 3.7026 1.33486 4.34339 1.18654C6.40594 0.704499 8.32832 0.908435 10.0304 2.22478C11.1318 3.05909 11.8327 4.11584 12.1531 5.37657C12.4334 6.5446 12.3333 7.71266 11.8327 8.82506C11.7726 8.97338 11.7125 9.08463 11.8727 9.23295C13.5348 10.7532 15.1768 12.2735 16.8188 13.7938C17.0191 13.9792 17.0992 13.9792 17.2994 13.7938C19.1617 12.051 21.024 10.3268 22.8863 8.60259C24.3682 7.23062 25.83 5.87715 27.3118 4.50518C27.492 4.33832 27.6522 4.2642 27.8725 4.48668C28.9538 5.50639 30.0352 6.52607 31.1366 7.52723C31.3768 7.73117 31.3768 7.86097 31.1366 8.06491C29.6547 9.41834 28.1529 10.7347 26.7311 12.1252C25.2693 13.5343 23.7875 14.9247 22.2856 16.3152C21.8851 16.686 21.5046 17.0569 21.1041 17.4091C20.9439 17.5575 20.9439 17.6502 21.1041 17.7985C22.4458 19.0036 23.7674 20.2272 25.0891 21.4509C25.4095 21.7475 25.7299 22.0256 26.0302 22.3408C26.2105 22.5262 26.3506 22.5448 26.5909 22.4521C27.8124 21.9886 29.094 21.9329 30.3756 22.211C31.9776 22.5633 33.1791 23.4532 34.1002 24.6954C35.1615 26.123 35.1215 27.6989 34.8011 29.3119C34.701 29.8495 34.2204 30.1647 33.6396 29.6085C32.7385 28.7186 31.7974 27.8843 30.8562 27.0129C30.4557 26.6421 30.1153 26.6607 29.7148 27.0315C29.1941 27.5135 28.6535 27.9955 28.1328 28.4961C27.6923 28.9225 27.7123 29.145 28.1529 29.5529C28.6134 29.9979 29.0339 30.4614 29.5145 30.8692C29.9351 31.2215 30.2354 31.7036 30.7561 31.9817C31.0364 32.13 31.2567 32.4266 31.2166 32.7233C31.1566 33.057 30.8162 33.1497 30.4757 33.2239C30.1754 33.2795 29.895 33.3722 29.5946 33.3722C28.4132 33.4278 27.2317 33.4093 26.1504 32.8716C24.2881 31.9261 23.0866 30.5541 22.7662 28.5703C22.606 27.532 22.7061 26.5309 23.1467 25.5668C23.2468 25.3629 23.2067 25.233 23.0465 25.0662C21.5847 23.7313 20.1229 22.3779 18.6611 21.043C18.5209 20.9132 18.3607 20.7834 18.2406 20.6351C18.0203 20.3756 17.8601 20.3756 17.5998 20.6351C16.2982 21.8588 14.9766 23.0639 13.6749 24.2875C12.093 25.7522 10.511 27.2169 8.92906 28.6815C8.24822 29.2933 7.62745 29.9608 6.88654 30.517C6.46602 30.8322 5.94537 30.999 5.46478 31.2215C4.02299 31.8704 2.56118 32.4637 1.15945 33.1497C0.919151 33.2609 0.658829 33.3536 0.398507 33.4278C0.11816 33.5019 -0.0220138 33.3907 0.0180358 33.1311C0.0180358 32.9087 0.15821 32.7232 0.258334 32.5378C0.638805 31.8333 0.99925 31.1288 1.3597 30.4057C1.74017 29.6085 2.24079 28.8484 2.56118 28.0326C2.88158 27.1798 3.60247 26.6421 4.22324 26.0303C4.90408 25.3629 5.645 24.7325 6.32584 24.0465C6.98666 23.3976 7.7476 22.8228 8.3884 22.1739C8.82894 21.729 9.26949 21.284 9.73006 20.8761C10.3709 20.3199 10.9916 19.7452 11.5924 19.1704C12.2732 18.5215 12.9941 17.9097 13.6549 17.2422C13.7751 17.1125 13.715 16.8344 14.0955 16.89V16.7973Z" fill="#164526"/>
<path d="M34.9809 3.96761C35.041 4.31987 34.8808 4.59798 34.6005 4.839C33.9196 5.45082 33.2388 6.08117 32.5579 6.73007C32.3377 6.93401 32.1975 6.95255 31.9572 6.73007C30.8759 5.71037 29.7945 4.70917 28.6932 3.68947C28.4929 3.5226 28.4929 3.39282 28.6932 3.22596C29.414 2.57706 30.1149 1.90962 30.8158 1.26071C31.3164 0.79721 32.2776 0.79721 32.7782 1.26071C33.419 1.83546 34.0598 2.42875 34.6806 3.00349C34.9609 3.26305 35.021 3.59681 34.9809 3.96761Z" fill="#164526"/>
</svg>
