<svg width="39" height="22" viewBox="0 0 39 22" fill="none" xmlns="http://www.w3.org/2000/svg">
<path d="M25.4985 13.1954C25.4985 10.9686 25.4985 8.7418 25.4985 6.51496C25.4985 5.98994 25.9287 5.50111 26.5349 5.37438C26.7304 5.33817 26.926 5.33817 27.1215 5.32007C30.2502 5.32007 33.3788 5.32007 36.5271 5.32007C37.5634 5.32007 38.2087 5.89941 38.2087 6.87704C38.1696 11.1316 38.2087 15.4042 38.2087 19.6587C38.2087 20.5458 37.6221 21.0708 36.703 21.0708H26.926C26.046 21.0708 25.4985 20.5458 25.5181 19.713C25.5181 17.5405 25.5181 15.368 25.5181 13.1954H25.4985ZM26.398 6.46065V18.4638H37.2897V6.46065H26.398ZM29.8787 19.1699C29.4094 19.1699 29.1747 19.3509 29.1552 19.6768C29.1552 20.0027 29.5071 20.3648 29.8395 20.3829C30.1915 20.3829 30.5239 20.0751 30.5435 19.7492C30.5435 19.3871 30.3088 19.188 29.8787 19.188V19.1699ZM31.8341 19.1699C31.2474 19.1699 31.1888 19.2242 31.1888 19.6949C31.1888 20.1113 31.4039 20.3648 31.7754 20.3648C32.1274 20.3648 32.4598 20.0751 32.4794 19.7311C32.4794 19.369 32.2447 19.1518 31.8341 19.1518V19.1699ZM33.1246 19.7311C33.1246 20.057 33.4375 20.3829 33.7504 20.3648C34.1023 20.3648 34.4348 20.0389 34.4152 19.713C34.4152 19.369 34.1806 19.1699 33.7699 19.1699C33.242 19.1699 33.1051 19.2604 33.1051 19.7311H33.1246Z" fill="#164526"/>
<path d="M4.14455 9.39378H2.46289C2.46289 9.28515 2.46289 9.19462 2.46289 9.1041C2.46289 6.58759 2.46289 4.07109 2.46289 1.55459C2.46289 0.794207 2.85397 0.432129 3.67525 0.432129C12.0835 0.432129 20.4722 0.432129 28.8805 0.432129C29.8386 0.432129 30.2884 0.866616 30.2884 1.77183V4.23403H28.6263V2.04341H4.1641V9.39378H4.14455Z" fill="#164526"/>
<path d="M24.3652 14.3726V17.4503H7.70508V14.3726H24.3652ZM16.3284 16.5994C16.7 16.5994 17.1106 16.2192 17.1106 15.8752C17.1106 15.5131 16.7391 15.2235 16.3089 15.2235C15.8787 15.2235 15.5267 15.5131 15.5267 15.8752C15.5267 16.2554 15.9178 16.5994 16.3284 16.5994Z" fill="#164526"/>
<path d="M0.0195546 16.0924C0.0195546 14.5536 0.0195546 13.0328 0.0195546 11.4939C0.0195546 10.8422 0.234651 10.5163 1.03637 10.4801C2.52248 10.4258 4.00859 10.4439 5.47515 10.4801C6.19865 10.4801 6.55063 10.8784 6.55063 11.5664C6.55063 14.5898 6.55063 17.6313 6.55063 20.6547C6.55063 21.3608 6.1791 21.7048 5.43604 21.7048C3.98904 21.7048 2.54204 21.7048 1.07548 21.7048C0.27376 21.7048 0 21.4513 0 20.7091C0 19.1702 0 17.6132 0 16.0743L0.0195546 16.0924ZM0.645285 19.8581H5.9249V12.4354H0.645285V19.8581ZM3.75439 20.8177V20.6366C3.5784 20.528 3.40242 20.347 3.20688 20.3108C2.93312 20.2745 2.71802 20.4737 2.77668 20.7271C2.81579 20.8901 3.05044 21.1073 3.22643 21.1435C3.38286 21.1616 3.5784 20.9444 3.75439 20.8358V20.8177Z" fill="#164526"/>
<path d="M12.0459 20.9444C12.2219 20.7814 12.3392 20.5461 12.5543 20.4555C13.0432 20.2021 13.1996 19.7857 13.3169 19.3331C13.3951 19.0615 13.3951 18.79 13.4342 18.4822H19.1831C19.3005 18.9529 19.32 19.4779 19.5742 19.8762C19.8089 20.2745 20.2586 20.5823 20.6888 20.9987H12.1632C12.1632 20.9987 12.085 20.9444 12.0459 20.9262V20.9444Z" fill="#164526"/>
</svg>
