<svg width="42" height="36" viewBox="0 0 42 36" fill="none" xmlns="http://www.w3.org/2000/svg">
<path d="M20.7297 35.4395C14.3606 35.4395 8.01096 35.4395 1.6418 35.4395C1.34874 35.4395 1.03615 35.4395 0.743087 35.4395C0.371878 35.4395 0.0202085 35.3309 0.000671178 34.9511C-0.0188661 34.4627 0.391417 34.4084 0.8017 34.3903C1.23152 34.3903 1.66134 34.3903 2.09116 34.3903C2.40376 34.3903 2.85311 34.517 2.87265 34.0286C2.87265 33.703 3.04849 33.3412 2.59913 33.0699C1.25106 32.274 1.1143 31.2429 1.97394 30.049C2.18885 29.7415 1.97394 29.5426 1.87625 29.2893C1.60273 28.4934 1.77856 27.7879 2.57959 27.3176C3.2634 26.9196 3.98628 26.9378 4.59194 27.4262C5.21713 27.9146 5.54926 28.5657 5.11944 29.3074C4.86546 29.7234 5.02175 29.9767 5.27574 30.3384C5.92047 31.2971 5.7251 32.2921 4.65055 32.9071C4.02535 33.2688 3.96674 33.6849 4.08397 34.1733C4.22073 34.734 4.78731 34.4084 5.17805 34.4808C6.42844 34.6979 6.83872 34.2999 6.79965 33.0518C6.70196 29.2531 6.79965 25.4545 6.74104 21.6739C6.74104 20.6429 7.05364 20.1726 8.1868 20.3354C9.00736 20.462 9.24181 20.1725 9.24181 19.3947C9.20273 15.7951 9.24181 12.1954 9.20273 8.59572C9.20273 7.87217 9.26135 7.31143 10.2773 7.47423C10.7853 7.56467 11.0197 7.34761 11.1955 6.91348C11.5863 5.88242 12.6218 5.17696 12.9539 4.09164C13.0125 3.92884 13.2274 3.69366 13.3837 3.67557C15.0639 3.51277 14.556 2.35511 14.595 1.43258C14.595 1.19743 14.595 0.962276 14.595 0.727122C14.595 0.45579 14.7709 0.274902 15.0639 0.274902C15.4351 0.274902 15.611 0.455788 15.611 0.781386C15.611 1.0889 15.611 1.41447 15.611 1.72198C15.6305 2.55407 15.2398 3.54896 16.7637 3.6575C17.1349 3.67558 17.4475 4.09161 17.4865 4.4353C17.6428 5.57489 18.9128 6.0814 19.1472 7.16672C19.2644 7.74556 19.8701 7.47424 20.2218 7.45615C21.1986 7.38379 21.5894 7.76366 21.4526 8.61383C21.2768 9.71725 21.5698 10.1695 22.957 10.1152C26.3565 9.98858 26.3565 10.079 26.3565 13.2264C26.3565 16.392 26.3565 19.5575 26.3565 22.705C26.3565 23.0306 26.0439 23.6094 26.7082 23.6456C27.431 23.6637 27.0989 23.0667 27.0989 22.7411C27.1184 18.7435 27.138 14.764 27.0989 10.7664C27.0989 9.89811 27.3529 9.57251 28.3297 9.60869C29.9513 9.66296 31.5729 9.66296 33.1945 9.60869C34.0932 9.57251 34.3668 9.88002 34.3668 10.7121C34.3277 14.7097 34.3668 18.6892 34.3472 22.6869C34.3472 23.3019 34.3277 23.7541 35.2459 23.7179C36.0665 23.6818 35.9884 24.3149 35.9884 24.8394C35.9884 27.7336 35.9884 30.6098 36.0079 33.504C36.0079 33.8477 35.6367 34.4808 36.4377 34.5169C37.0825 34.5169 37.9226 34.8425 38.3524 34.336C38.6845 33.9381 38.5087 33.2507 37.7858 32.9794C37.7076 32.9432 37.649 32.889 37.5904 32.8166C37.1801 32.4367 36.7699 31.7855 37.0238 31.4599C37.9421 30.3023 36.7503 28.7105 38.0202 27.6975C38.5868 27.2453 39.2902 27.2453 39.9349 27.589C40.5992 27.9327 40.9118 28.5476 40.6969 29.1988C40.4819 29.8139 40.6382 30.248 40.9508 30.8088C41.4783 31.7856 41.029 32.5814 40.0912 33.106C39.5637 33.4135 39.6028 33.8296 39.6614 34.2275C39.7395 34.7883 40.267 34.4446 40.5992 34.5351C40.9118 34.6255 41.4588 34.336 41.4979 34.8968C41.537 35.4575 41.029 35.4575 40.5796 35.4575C37.6295 35.4575 34.6794 35.4575 31.7488 35.4575C28.0758 35.4575 24.4027 35.4575 20.7297 35.4575V35.4395Z" fill="#164526"/>
<path d="M16.8799 22.6506C16.8799 19.1233 16.919 15.614 16.8604 12.0867C16.8604 11.2546 17.0948 11.0195 17.9935 11.0376C20.1231 11.0918 22.2722 11.0738 24.4017 11.0376C25.066 11.0376 25.3786 11.1099 25.3786 11.8516C25.3591 19.1594 25.3591 26.4854 25.3786 33.7933C25.3786 34.3721 25.1832 34.5168 24.5776 34.4987C22.3113 34.4625 20.0449 34.4625 17.7981 34.4987C17.0753 34.4987 16.8799 34.3178 16.8799 33.6485C16.919 29.9765 16.8799 26.3045 16.8799 22.6144V22.6506Z" fill="#70A9CB" stroke="#164526" stroke-miterlimit="10"/>
<path d="M10.4331 14.3479C10.4331 12.6114 10.4526 10.8749 10.4331 9.13833C10.4331 8.57758 10.6089 8.3967 11.2146 8.41479C14.028 8.45097 16.8413 8.45097 19.6547 8.41479C20.4362 8.41479 20.4362 8.77656 20.4166 9.28304C20.4166 9.75335 20.4166 10.1694 19.7133 10.079C19.5375 10.0609 19.3812 10.079 19.2053 10.079C18.1112 10.1694 16.7046 9.62672 16.0208 10.3141C15.3565 10.9834 15.8254 12.2858 15.8058 13.2988C15.7863 15.3609 15.7668 17.4049 15.8058 19.467C15.8058 20.1363 15.6105 20.3715 14.8681 20.3353C13.6763 20.281 12.4845 20.281 11.2927 20.3353C10.5112 20.3715 10.394 20.0639 10.4136 19.4489C10.4526 17.7486 10.4136 16.0483 10.4136 14.3479H10.4331Z" fill="#70A9CB"/>
<path d="M28.1735 17.0794C28.1735 15.3067 28.2516 13.5159 28.1539 11.7432C28.0953 10.8026 28.4665 10.6217 29.3652 10.6759C30.4202 10.7483 31.4948 10.7302 32.5693 10.6759C33.2727 10.6398 33.429 10.893 33.429 11.4899C33.4094 15.2886 33.4094 19.0872 33.429 22.8678C33.429 23.4647 33.2922 23.7179 32.5889 23.6998C31.3971 23.6456 30.2053 23.6456 29.0136 23.6998C28.2907 23.736 28.193 23.4466 28.193 22.8859C28.2321 20.9504 28.193 19.0149 28.193 17.0794H28.1735Z" fill="#70A9CB"/>
<path d="M26.3559 29.6509C26.3559 28.3124 26.395 26.9557 26.3559 25.6172C26.3364 25.0021 26.4536 24.7127 27.2351 24.7308C29.5405 24.785 31.8459 24.785 34.1513 24.7308C34.9133 24.7308 35.0696 24.966 35.0696 25.6172C35.0305 28.2943 35.05 30.9895 35.0696 33.6666C35.0696 34.2093 35.0305 34.5168 34.2685 34.5349C33.3894 34.5349 33.5847 34.0646 33.5847 33.6124C33.5847 32.5451 33.5847 31.4779 33.5847 30.4107C33.5457 28.855 32.3148 27.6793 30.7323 27.6431C29.0912 27.6069 27.7431 28.8189 27.704 30.3926C27.6845 31.5322 27.6845 32.6898 27.704 33.8294C27.704 34.2997 27.6454 34.5349 27.0202 34.5349C26.3559 34.5349 26.395 34.2093 26.395 33.7933C26.395 32.4185 26.395 31.0257 26.395 29.6509H26.3559Z" fill="#70A9CB"/>
<path d="M32.4709 32.2197C32.4709 34.517 32.4709 34.4626 29.9506 34.5531C28.8565 34.5893 28.5635 34.2818 28.6611 33.3231C28.7588 32.4186 28.6611 31.5142 28.6807 30.6098C28.7197 29.434 29.5599 28.62 30.6149 28.6562C31.6113 28.6743 32.3732 29.4702 32.4514 30.5736C32.4904 31.1163 32.4514 31.677 32.4514 32.2197H32.4709Z" fill="#70A9CB"/>
<path d="M11.7827 28.6379C10.7668 28.6379 9.7313 28.6017 8.71536 28.6379C7.89479 28.6741 7.95341 28.2399 7.97295 27.7334C7.99248 27.245 7.81665 26.7024 8.7349 26.7205C10.8254 26.7747 12.9159 26.7747 15.0064 26.7205C15.8856 26.7024 15.8074 27.1727 15.8269 27.6973C15.8269 28.258 15.8269 28.6921 14.9868 28.6379C13.9318 28.5655 12.8573 28.6379 11.7827 28.6379Z" fill="#70A9CB"/>
<path d="M11.8203 34.5173C10.9607 34.5173 10.101 34.445 9.26092 34.5173C8.16683 34.6258 7.85424 34.2641 7.95192 33.2873C8.01053 32.7265 8.16683 32.5456 8.77249 32.5456C10.863 32.5818 12.9535 32.5818 15.044 32.5456C15.9622 32.5275 15.8059 33.034 15.8255 33.5405C15.8255 34.0651 15.9427 34.5716 15.0244 34.5173C13.9694 34.445 12.8949 34.5173 11.8203 34.5173Z" fill="#70A9CB"/>
<path d="M11.8984 31.5326C10.8238 31.5326 9.76882 31.4964 8.69426 31.5326C7.8737 31.5688 7.97139 31.0804 7.97139 30.592C7.97139 30.1217 7.8737 29.6333 8.69426 29.6514C10.8238 29.6875 12.9534 29.6875 15.083 29.6514C15.9035 29.6514 15.8058 30.1036 15.8058 30.592C15.8058 31.0623 15.9035 31.5507 15.083 31.5326C14.0279 31.4964 12.9534 31.5326 11.8788 31.5326H11.8984Z" fill="#70A9CB"/>
<path d="M11.7619 25.7621C10.785 25.7621 9.80817 25.7079 8.83131 25.7621C8.04982 25.8164 7.93259 25.4908 7.95213 24.8758C7.95213 24.3331 8.01074 24.0075 8.75316 24.0256C10.8241 24.0618 12.9146 24.0799 14.9856 24.0256C15.8647 24.0075 15.767 24.4417 15.8061 24.9843C15.8452 25.6355 15.5717 25.7983 14.9269 25.7621C13.8719 25.7259 12.7974 25.7621 11.7424 25.7621H11.7619Z" fill="#70A9CB"/>
<path d="M11.8789 21.4386C12.934 21.4386 14.0085 21.4748 15.0635 21.4386C15.7083 21.4206 15.845 21.6738 15.8255 22.1984C15.8255 22.6868 15.7669 23.0124 15.0831 23.0124C12.9535 22.9762 10.8435 22.9943 8.7139 23.0124C8.06917 23.0124 7.93241 22.7591 7.95195 22.2346C7.95195 21.7462 7.99103 21.4025 8.67483 21.4386C9.72984 21.4748 10.8044 21.4386 11.8594 21.4386H11.8789Z" fill="#70A9CB"/>
<path d="M12.251 6.75065C12.544 5.68342 13.1497 5.30354 14.1461 5.35781C14.908 5.39399 15.6895 5.35781 16.4515 5.35781C16.8618 5.35781 17.1939 5.44825 17.487 5.71958C17.7214 5.95473 18.034 6.20798 17.9559 6.51549C17.8386 6.94962 17.3893 6.71446 17.0962 6.73255C15.5137 6.75064 13.9507 6.73255 12.251 6.73255V6.75065Z" fill="#70A9CB"/>
<path d="M4.61192 31.2071C4.61192 32.003 4.20163 32.2924 3.67412 32.3105C3.12708 32.3105 2.7168 32.003 2.7168 31.4422C2.7168 30.8453 3.04893 30.4835 3.7132 30.5016C4.29932 30.5197 4.61192 30.8634 4.61192 31.2071Z" fill="#164526"/>
<path d="M39.2515 32.3828C38.6458 32.3104 38.216 32.0391 38.1965 31.4964C38.1574 31.008 38.4895 30.6824 39.0366 30.6463C39.6422 30.6101 40.0134 30.8814 40.033 31.4602C40.033 31.9667 39.7204 32.238 39.2515 32.3647V32.3828Z" fill="#164526"/>
<path d="M16.724 5.10351C15.8058 5.10351 15.0438 5.10351 14.3014 5.10351C14.1256 5.10351 13.8325 5.17575 13.8325 4.8867C13.8325 4.76025 13.9302 4.57961 14.0474 4.50735C14.5163 4.16411 16.1575 4.47121 16.724 5.12156V5.10351Z" fill="#164526"/>
<path d="M4.33831 28.7464C4.33831 29.1443 4.08432 29.3433 3.71311 29.3614C3.26376 29.3795 2.99023 29.1986 3.00977 28.7464C3.00977 28.3846 3.24422 28.1494 3.61543 28.1313C4.04525 28.1313 4.29923 28.3665 4.35784 28.7464H4.33831Z" fill="#164526"/>
<path d="M39.2116 29.5245C38.8209 29.4884 38.606 29.2713 38.5864 28.9276C38.5864 28.6382 38.7232 28.385 39.0749 28.3488C39.4656 28.3126 39.7196 28.4935 39.7587 28.8553C39.7977 29.217 39.5828 29.4341 39.2116 29.5245Z" fill="#164526"/>
<path d="M21.4727 22.5784C21.4727 23.0126 21.4923 23.5733 20.8475 23.5371C20.2614 23.5009 20.2614 22.9402 20.281 22.506C20.281 22.0719 20.281 21.5112 20.9257 21.5654C21.5509 21.6016 21.4727 22.1624 21.4727 22.5965V22.5784Z" fill="#164526"/>
<path d="M21.4716 30.7546C21.4716 31.1887 21.5302 31.7314 20.8659 31.6952C20.2212 31.6771 20.2994 31.1344 20.2994 30.7184C20.2994 30.3024 20.2212 29.7597 20.905 29.7959C21.5693 29.8321 21.4325 30.3747 21.4716 30.7546Z" fill="#164526"/>
<path d="M21.4729 18.3455C21.4339 18.7616 21.5902 19.3042 20.9454 19.3585C20.2616 19.4128 20.3007 18.8701 20.3007 18.4541C20.3007 18.0561 20.1639 17.4954 20.8282 17.4592C21.512 17.4049 21.4534 17.9295 21.4729 18.3455Z" fill="#164526"/>
<path d="M21.4711 26.9017C21.4711 27.0826 21.5101 27.6433 20.8459 27.6071C20.2207 27.571 20.2988 27.0102 20.2793 26.5942C20.2793 26.16 20.2793 25.6174 20.9045 25.6536C21.5297 25.6898 21.4711 26.2324 21.4515 26.9198L21.4711 26.9017Z" fill="#164526"/>
<path d="M21.4727 14.4021C21.4336 14.8181 21.5118 15.3608 20.828 15.2884C20.2028 15.2341 20.3005 14.6915 20.3005 14.2754C20.3005 13.8594 20.2614 13.3168 20.9452 13.3891C21.6095 13.4434 21.4532 13.986 21.4727 14.4021Z" fill="#164526"/>
<path d="M22.5269 26.576C22.5659 26.2142 22.3706 25.6896 22.9957 25.6535C23.7382 25.6173 23.5623 26.1961 23.5623 26.5941C23.5623 26.992 23.7577 27.589 23.0544 27.589C22.3706 27.589 22.5855 26.974 22.5464 26.576H22.5269Z" fill="#164526"/>
<path d="M19.2646 22.5422C19.245 22.9402 19.3427 23.501 18.7957 23.519C18.0533 23.519 18.2096 22.904 18.19 22.4337C18.19 22.0358 18.1509 21.5293 18.7371 21.5473C19.4209 21.5654 19.2255 22.1624 19.2646 22.5422Z" fill="#164526"/>
<path d="M22.5083 18.3999C22.5669 18.02 22.3325 17.4231 23.0749 17.4773C23.7782 17.5316 23.5047 18.1104 23.5242 18.4903C23.5242 18.834 23.7001 19.3586 23.0358 19.3586C22.2934 19.3586 22.5669 18.7797 22.4888 18.3999H22.5083Z" fill="#164526"/>
<path d="M22.5267 22.5241C22.5267 22.108 22.4095 21.5654 23.0151 21.5473C23.7185 21.5292 23.5622 22.108 23.5622 22.5241C23.5622 22.922 23.738 23.5371 23.0347 23.5009C22.3704 23.4828 22.5658 22.8858 22.5267 22.5241Z" fill="#164526"/>
<path d="M22.5078 30.7548C22.586 30.4111 22.2929 29.796 23.0353 29.8141C23.7582 29.8141 23.5433 30.4111 23.5433 30.7909C23.5433 31.1346 23.7582 31.6592 23.1135 31.6954C22.3906 31.7315 22.5664 31.1708 22.5274 30.7548H22.5078Z" fill="#164526"/>
<path d="M19.2845 26.5756C19.1868 26.9917 19.4408 27.6248 18.7179 27.5886C18.0536 27.5524 18.2099 26.9736 18.1904 26.5756C18.1904 26.1958 18.0927 25.6893 18.6984 25.6712C19.4408 25.635 19.1868 26.25 19.2845 26.5937V26.5756Z" fill="#164526"/>
<path d="M19.2644 14.3118C19.1472 14.6736 19.4793 15.2886 18.7369 15.2705C18.0531 15.2705 18.1899 14.7097 18.1899 14.2937C18.1899 13.8777 18.0922 13.335 18.7955 13.3893C19.4403 13.4254 19.1863 13.9681 19.2644 14.3118Z" fill="#164526"/>
<path d="M23.562 14.3661C23.5034 14.7278 23.7183 15.2705 23.0932 15.2886C22.2921 15.2886 22.5656 14.6555 22.5266 14.2394C22.507 13.8777 22.3898 13.3712 23.0541 13.4074C23.7965 13.4435 23.4644 14.0224 23.562 14.3841V14.3661Z" fill="#164526"/>
<path d="M19.264 18.4178C19.1468 18.7796 19.4789 19.3946 18.6779 19.3404C18.0722 19.3042 18.1504 18.8158 18.1699 18.454C18.1699 18.056 17.9941 17.4953 18.6974 17.4591C19.4594 17.4411 19.1468 18.038 19.264 18.4178Z" fill="#164526"/>
<path d="M19.2648 30.7184C19.1476 31.0621 19.4993 31.6771 18.7373 31.6771C18.0535 31.6771 18.1707 31.1164 18.1707 30.7184C18.1707 30.3024 18.0535 29.7597 18.7764 29.7959C19.4211 29.8321 19.1671 30.3566 19.2648 30.7184Z" fill="#164526"/>
<path d="M13.0904 15.3067C12.4652 15.1259 11.3711 15.6323 11.3711 14.7641C11.3711 13.8054 12.4847 14.2033 13.1099 14.2033C13.696 14.2033 14.7706 13.8235 14.7706 14.6917C14.7706 15.7409 13.6374 15.0354 13.0904 15.3067Z" fill="#164526"/>
<path d="M13.1094 17.387C12.4647 17.2242 11.3901 17.6764 11.3901 16.8443C11.3901 15.8675 12.5038 16.3017 13.129 16.3017C13.7151 16.3017 14.7896 15.8856 14.7896 16.7719C14.7896 17.803 13.6565 17.1337 13.1094 17.387Z" fill="#164526"/>
<path d="M13.1504 9.68115C13.6779 9.82567 14.7916 9.46436 14.772 9.95212C14.7525 10.4038 13.6779 10.1689 13.1114 10.1689C12.5252 10.1689 11.4312 10.3676 11.4116 9.9702C11.4116 9.48244 12.5643 9.82567 13.1504 9.68115Z" fill="#164526"/>
<path d="M13.1501 19.3405C12.7203 19.3405 12.31 19.3405 11.8802 19.3405C11.5285 19.3405 11.2941 19.1596 11.3136 18.8521C11.3136 18.5446 11.5676 18.3999 11.9193 18.3999C12.6812 18.3999 13.4432 18.3999 14.1856 18.3999C14.5178 18.3999 14.7717 18.4904 14.7913 18.834C14.8108 19.2501 14.5178 19.3586 14.127 19.3405C13.7949 19.3405 13.4627 19.3405 13.1111 19.3405H13.1501Z" fill="#164526"/>
<path d="M12.9727 13.1539C12.4842 12.973 11.4097 13.5519 11.3901 12.6655C11.3901 11.7611 12.4647 12.1771 13.0313 12.1952C13.6369 12.1952 14.5552 11.7249 14.7896 12.7017C14.8873 13.0816 14.5747 13.172 12.9531 13.172L12.9727 13.1539Z" fill="#164526"/>
<path d="M29.6203 15.7409C29.1514 15.6686 29.0147 15.343 28.9951 14.9631C28.9951 14.6014 29.0147 14.1853 29.5031 14.1491C30.0697 14.0949 30.1674 14.529 30.1869 14.9451C30.1869 15.343 30.0501 15.6324 29.6008 15.7409H29.6203Z" fill="#164526"/>
<path d="M29.6384 20.154C29.6384 20.3347 29.5603 20.5154 29.2086 20.5154C28.857 20.5154 28.7983 20.3166 28.7788 20.154C28.7788 19.9734 28.8179 19.7747 29.1695 19.7566C29.5603 19.7566 29.6384 19.9553 29.6384 20.154Z" fill="#164526"/>
<path d="M29.6196 20.9866C30.0885 21.0408 30.1862 21.3664 30.1862 21.7463C30.1862 22.1804 30.0689 22.5603 29.5219 22.5241C29.053 22.4879 28.9749 22.09 28.9944 21.7282C28.9944 21.3664 29.0725 21.0227 29.6 21.0047L29.6196 20.9866Z" fill="#164526"/>
<path d="M29.5411 13.4074C29.0527 13.335 29.0136 12.9732 29.0331 12.6115C29.0331 12.2316 29.1503 11.8879 29.6583 11.9422C30.1467 11.9965 30.2054 12.3401 30.1858 12.72C30.1858 13.0999 30.0491 13.4074 29.5216 13.4074H29.5411Z" fill="#164526"/>
<path d="M29.5026 16.4463C30.0301 16.4644 30.1864 16.7538 30.1864 17.1518C30.1864 17.5316 30.1473 17.8934 29.6394 17.9476C29.1118 18.0019 29.0337 17.6221 29.0142 17.2603C29.0142 16.8985 29.0532 16.5548 29.5026 16.4463Z" fill="#164526"/>
<path d="M31.9831 14.1309C32.5692 14.2213 32.5692 14.5831 32.5692 14.9449C32.5692 15.3067 32.5301 15.7227 32.0221 15.7046C31.5337 15.7046 31.4946 15.3066 31.4751 14.9268C31.4751 14.5288 31.5728 14.2394 31.9635 14.1309H31.9831Z" fill="#164526"/>
<path d="M32.5882 17.1699C32.5491 17.4955 32.6664 17.9116 32.0803 17.9296C31.5528 17.9296 31.4941 17.604 31.4941 17.2242C31.4941 16.8624 31.4941 16.5006 32.0216 16.4645C32.5882 16.4283 32.5491 16.8262 32.5882 17.188V17.1699Z" fill="#164526"/>
<path d="M32.5882 19.5213C32.5687 19.8288 32.5882 20.2629 32.0412 20.2448C31.5332 20.2448 31.4941 19.8469 31.4941 19.467C31.4941 19.0872 31.5528 18.6892 32.0412 18.6892C32.5492 18.6892 32.5687 19.1053 32.5687 19.5213H32.5882Z" fill="#164526"/>
<path d="M32.5885 21.71C32.5885 22.0537 32.6276 22.4878 32.1001 22.5059C31.6117 22.5421 31.4749 22.1984 31.4945 21.8004C31.4945 21.4386 31.4749 21.0588 32.0024 21.0045C32.569 20.9502 32.5495 21.3482 32.5885 21.71Z" fill="#164526"/>
<path d="M32.5878 12.6839C32.5488 13.0276 32.5878 13.4436 32.0213 13.3894C31.4937 13.3351 31.5133 12.9552 31.5133 12.5934C31.5133 12.2498 31.611 11.9603 32.0408 11.9422C32.6269 11.9242 32.5683 12.3221 32.5878 12.6658V12.6839Z" fill="#164526"/>
</svg>
