<svg width="318" height="43" viewBox="0 0 318 43" fill="none" xmlns="http://www.w3.org/2000/svg">
<path d="M11.6758 19.6562C14.9961 19.6562 17.0391 20.6679 17.8047 22.6913L17.9219 23.4765C17.9219 24.0781 17.5859 24.9804 16.9141 26.1835V26.2421C16.9141 26.4218 17.3438 26.6835 18.2031 27.0273C19.4766 27.6835 20.1133 28.6562 20.1133 29.9453L20.1719 30.4609C20.1719 32.1171 18.7852 33.8788 16.0117 35.746C15.0352 36.4179 11.5078 36.7538 5.42969 36.7538H3.85938V36.8124C3.85938 37.5937 3.55859 37.9843 2.95703 37.9843C2.48047 37.9843 2.16406 37.6132 2.00781 36.871C1.72656 36.871 1.53906 36.4765 1.44531 35.6874V35.4062C1.44531 34.9921 1.63281 34.4296 2.00781 33.7187V33.6601L1.94922 29.0546H1.77344L1.72656 29.1015C1.24219 28.9374 1 28.4882 1 27.7538C1 26.9179 1.29688 26.2617 1.89062 25.7851V25.7265L1.83203 23.2538C1.12109 22.6054 0.765625 22.0429 0.765625 21.5663C0.765625 21.0429 1.16016 20.7421 1.94922 20.664C2.11328 20.3671 2.39453 20.2187 2.79297 20.2187L3.46094 20.5585C6.5625 20.1054 9.30078 19.8046 11.6758 19.6562ZM3.63672 23.8749V25.6796H5.54688C11.5 25.6796 14.7266 25.2656 15.2266 24.4374C15.4297 24.4374 15.5977 24.1367 15.7305 23.5351C15.7305 22.9726 14.7734 22.6913 12.8594 22.6913H11.7344C9.16406 22.6913 6.53906 22.9531 3.85938 23.4765C3.71094 23.5859 3.63672 23.7187 3.63672 23.8749ZM3.69531 28.9374L3.74219 31.4687V32.7578L3.80078 33.7187H3.85938C10.2344 33.7187 13.7422 33.5312 14.3828 33.1562C16.9688 32.3046 18.2617 31.3671 18.2617 30.3437C18.2617 28.7343 16.5352 27.9296 13.082 27.9296C7.56641 28.3515 4.4375 28.6874 3.69531 28.9374ZM39.3977 19.8554C41.8039 19.8554 43.7531 20.8281 45.2453 22.7734C46.1047 24.0859 46.5344 25.3788 46.5344 26.6523C46.5344 29.8398 44.175 32.8593 39.4562 35.7109C37.2219 36.6874 35.3273 37.1757 33.7727 37.1757C31.3586 37.1757 29.4641 36.0117 28.0891 33.6835C27.5812 32.582 27.3 31.457 27.2453 30.3085C27.2453 28.0507 28.3703 25.7851 30.6203 23.5117C32.2609 21.9492 34.4367 20.8242 37.1477 20.1367L39.3977 19.8554ZM29.4367 29.8632V30.4843C29.4367 31.9453 30.3547 33.0507 32.1906 33.8007C32.6828 34.0273 33.3391 34.1406 34.1594 34.1406H34.6164C36.5539 34.1406 39.1398 33.0156 42.3742 30.7656C43.6477 29.6015 44.2844 28.4765 44.2844 27.3906V26.7109C44.2844 25.5156 43.7609 24.6171 42.7141 24.0156C41.675 23.2656 40.4562 22.8906 39.0578 22.8906C36.4719 22.8906 33.7727 24.1093 30.9602 26.5468C29.9445 27.7578 29.4367 28.8632 29.4367 29.8632ZM64.1195 19.1992C66.2992 19.1992 68.2094 20.0234 69.85 21.6718C70.4125 22.3749 70.6937 23.1796 70.6937 24.0859C70.6937 26.2343 69.0648 27.7538 65.807 28.6445L65.2445 28.7031L61.0258 28.4218V28.4804L70.5883 33.4843C70.7758 33.6874 70.9242 34.1367 71.0336 34.832C70.9086 35.6913 70.5336 36.121 69.9086 36.121C69.7445 36.121 64.9281 33.7421 55.4594 28.9843H55.2836V29.0429L55.3422 36.8593C55.3422 37.2734 55.0219 37.5351 54.3812 37.6445C53.8031 37.6445 53.4125 37.4023 53.2094 36.9179L53.2562 35.2304V31.7968L53.2094 27.8593C52.4594 27.6406 52.0844 27.0781 52.0844 26.1718L52.0258 25.6679C52.0258 25.0429 52.4203 24.6679 53.2094 24.5429V23.3593C52.7953 23.1328 52.5141 22.7382 52.3656 22.1757C52.1 21.7851 51.9672 21.4296 51.9672 21.1093C51.9672 20.6093 52.4164 20.289 53.3148 20.1484C53.3148 19.9296 53.6156 19.7226 54.2172 19.5273L55.1195 19.9257C59.4555 19.4413 62.4555 19.1992 64.1195 19.1992ZM55.2836 23.0781V24.8242C55.2836 24.9413 57.1039 25.2226 60.7445 25.6679C62.6195 25.8554 64.0609 25.9492 65.0687 25.9492C66.8422 25.9492 67.9516 25.3671 68.3969 24.2031L68.5023 23.746C68.0336 22.6601 66.9672 22.1171 65.3031 22.1171C63.1703 22.1171 59.8305 22.4374 55.2836 23.0781Z" fill="#164526"/>
<path d="M93.5523 19.1171C94.3023 19.1171 94.6773 19.664 94.6773 20.7578H94.7359C94.7359 21.4609 94.3414 21.9296 93.5523 22.164L83.4273 27.5546V27.6718C84.482 28.2578 89.0211 30.5078 97.0445 34.4218C97.232 34.5937 97.3258 34.8749 97.3258 35.2656C97.0836 36.4609 96.6344 37.0585 95.9781 37.0585L93.1656 35.664C85.0563 31.6874 80.9469 29.6992 80.8375 29.6992L80.8961 35.7109V36.1679C80.8961 36.8788 80.5406 37.2343 79.8297 37.2343H79.7125C79.2516 37.2343 78.9352 36.9921 78.7633 36.5078L78.8219 35.664V29.4765C78.5563 28.9921 78.4234 28.5038 78.4234 28.0117C78.0484 27.1992 77.8609 26.6171 77.8609 26.2656C77.8609 25.9609 78.1813 25.7538 78.8219 25.6445L78.7633 23.5703V21.2031L78.7047 20.3007C78.7047 19.8945 79.0797 19.6132 79.8297 19.457C80.3297 19.457 80.6656 19.8124 80.8375 20.5234L80.7906 20.7578L80.8375 25.3632H80.9547C89.1188 21.1992 93.2984 19.1171 93.4938 19.1171H93.5523ZM115.298 18.9179C115.923 18.9179 116.411 19.4648 116.762 20.5585V20.7226L116.598 21.6249C118.919 27.289 120.212 30.3437 120.477 30.789C121.563 30.9843 122.106 31.4921 122.106 32.3124C122.106 32.6171 121.919 33.0273 121.544 33.5429C121.809 34.6132 122.145 35.4765 122.552 36.1328V36.3085C122.395 37.0898 122.005 37.4804 121.38 37.4804C120.598 37.4804 120.145 36.957 120.02 35.9101L119.177 33.9413L116.259 33.8828H113.446L108.102 33.9999C107.915 34.0156 107.313 34.8593 106.298 36.5312C105.97 36.8671 105.653 37.0351 105.348 37.0351C104.708 37.0351 104.313 36.621 104.165 35.7929H104.106C104.106 35.5976 104.536 34.9062 105.395 33.7187L105.454 33.6601V33.6015C105.259 33.3281 105.13 32.9921 105.067 32.5937C105.341 31.4687 105.903 30.9062 106.755 30.9062H107.2C111.473 24.6249 113.61 21.3046 113.61 20.9453L113.552 20.664C113.552 20.039 114.005 19.496 114.911 19.0351L115.298 18.9179ZM110.012 30.789V30.9062H117.548L117.829 30.8476V30.7304L114.911 23.5351H114.794C114.341 24.0898 112.747 26.5078 110.012 30.789ZM156.667 18.6132C158.964 18.6132 161.12 19.7382 163.136 21.9882C163.441 22.5038 163.593 22.9531 163.593 23.3359C163.593 24.3515 162.636 25.6445 160.722 27.2148C159.925 27.8554 158.839 28.1757 157.464 28.1757L156.784 28.1171C155.105 28.1171 152.011 27.9101 147.503 27.496V27.5546L147.667 36.2148C147.667 36.6601 147.312 36.9609 146.601 37.1171H146.542C146.066 37.1171 145.73 36.8163 145.534 36.2148L145.593 35.3124L145.476 27.7773C145.476 27.3398 145.308 26.9453 144.972 26.5937L144.913 26.0898C144.913 25.0038 145.081 24.4609 145.417 24.4609L145.37 23.7812V22.6562L144.573 21.3671C144.464 21.1874 144.409 20.9453 144.409 20.6406C144.409 20.3046 144.71 19.9843 145.312 19.6796C145.312 19.1562 145.687 18.8359 146.437 18.7187C146.726 18.7187 147.042 18.9648 147.386 19.457H147.445C150.765 19.0429 153.839 18.7617 156.667 18.6132ZM147.445 22.5507V24.6835C151.968 25.0976 155.308 25.3046 157.464 25.3046C159.363 25.3046 160.597 24.8163 161.167 23.8398V23.4531C161.167 22.6718 160.55 22.1445 159.316 21.871L155.542 21.7656C153.995 21.7656 151.296 22.0273 147.445 22.5507ZM172.436 19.0351C172.584 19.0351 172.924 19.1484 173.455 19.3749H178.741L183.862 19.4335C184.362 19.4335 184.791 19.996 185.151 21.121L185.209 21.5078C185.014 22.1874 184.506 22.5273 183.686 22.5273L173.397 22.6913L173.455 24.2148V26.0078H182.174C183.057 26.0078 183.62 26.3828 183.862 27.1328L183.967 27.8124C183.967 28.6328 183.483 29.0429 182.514 29.0429H173.514V33.6601H173.561L183.967 33.7187C184.444 33.7187 184.858 34.3163 185.209 35.5117C185.209 36.0898 184.78 36.4648 183.92 36.6367L173.737 36.8124C173.495 37.5234 173.1 37.8788 172.553 37.8788C171.944 37.8788 171.53 37.371 171.311 36.3554C170.678 35.3945 170.362 34.832 170.362 34.6679C170.362 34.1679 170.737 33.8124 171.487 33.6015L171.428 33.2148V28.8203C170.678 28.1406 170.303 27.5429 170.303 27.0273C170.303 26.4882 170.659 26.1484 171.37 26.0078V22.5742C170.76 21.957 170.405 21.2656 170.303 20.4999C170.303 19.8984 170.717 19.5234 171.545 19.3749C171.991 19.1484 172.288 19.0351 172.436 19.0351ZM197.814 19.1757C198.408 19.1757 198.748 19.5312 198.834 20.2421H202.314C203.337 20.2421 204.013 20.8788 204.341 22.1523V22.2695C204.341 22.6913 204.005 22.9726 203.334 23.1132H198.892C198.939 31.8867 198.994 36.2734 199.056 36.2734C199.056 36.7343 198.701 37.0351 197.99 37.1757H197.931C197.22 37.0117 196.865 36.6913 196.865 36.2148L196.97 35.4296L196.865 24.2382L196.806 23.1132H194.955C193.189 23.1132 192.306 22.9999 192.306 22.7734C191.931 22.289 191.744 21.7851 191.744 21.2617C191.744 20.6445 192.158 20.3046 192.986 20.2421H196.806C196.916 19.5312 197.252 19.1757 197.814 19.1757ZM223.368 19.1992C225.548 19.1992 227.458 20.0234 229.098 21.6718C229.661 22.3749 229.942 23.1796 229.942 24.0859C229.942 26.2343 228.313 27.7538 225.055 28.6445L224.493 28.7031L220.274 28.4218V28.4804L229.837 33.4843C230.024 33.6874 230.173 34.1367 230.282 34.832C230.157 35.6913 229.782 36.121 229.157 36.121C228.993 36.121 224.177 33.7421 214.708 28.9843H214.532V29.0429L214.591 36.8593C214.591 37.2734 214.27 37.5351 213.63 37.6445C213.052 37.6445 212.661 37.4023 212.458 36.9179L212.505 35.2304V31.7968L212.458 27.8593C211.708 27.6406 211.333 27.0781 211.333 26.1718L211.274 25.6679C211.274 25.0429 211.669 24.6679 212.458 24.5429V23.3593C212.044 23.1328 211.762 22.7382 211.614 22.1757C211.348 21.7851 211.216 21.4296 211.216 21.1093C211.216 20.6093 211.665 20.289 212.563 20.1484C212.563 19.9296 212.864 19.7226 213.466 19.5273L214.368 19.9257C218.704 19.4413 221.704 19.1992 223.368 19.1992ZM214.532 23.0781V24.8242C214.532 24.9413 216.352 25.2226 219.993 25.6679C221.868 25.8554 223.309 25.9492 224.317 25.9492C226.091 25.9492 227.2 25.3671 227.645 24.2031L227.751 23.746C227.282 22.6601 226.216 22.1171 224.552 22.1171C222.419 22.1171 219.079 22.4374 214.532 23.0781ZM249.262 19.8554C251.668 19.8554 253.617 20.8281 255.109 22.7734C255.969 24.0859 256.398 25.3788 256.398 26.6523C256.398 29.8398 254.039 32.8593 249.32 35.7109C247.086 36.6874 245.191 37.1757 243.637 37.1757C241.223 37.1757 239.328 36.0117 237.953 33.6835C237.445 32.582 237.164 31.457 237.109 30.3085C237.109 28.0507 238.234 25.7851 240.484 23.5117C242.125 21.9492 244.301 20.8242 247.012 20.1367L249.262 19.8554ZM239.301 29.8632V30.4843C239.301 31.9453 240.219 33.0507 242.055 33.8007C242.547 34.0273 243.203 34.1406 244.023 34.1406H244.48C246.418 34.1406 249.004 33.0156 252.238 30.7656C253.512 29.6015 254.148 28.4765 254.148 27.3906V26.7109C254.148 25.5156 253.625 24.6171 252.578 24.0156C251.539 23.2656 250.32 22.8906 248.922 22.8906C246.336 22.8906 243.637 24.1093 240.824 26.5468C239.809 27.7578 239.301 28.8632 239.301 29.8632ZM278.706 21.3203C279.566 21.5703 279.995 22.1679 279.995 23.1132C279.995 23.4335 279.491 24.1679 278.484 25.3163L270.948 34.7617V34.9257C271.355 35.621 271.558 36.0742 271.558 36.2851C271.456 36.957 271.12 37.2929 270.55 37.2929C270.159 37.2929 269.804 37.0507 269.484 36.5663H269.425L268.804 36.8476C268.14 36.8476 267.73 36.207 267.573 34.9257C267.573 34.6913 267.741 34.3554 268.077 33.9179C266.741 31.1992 264.792 27.6757 262.23 23.3476C261.964 23.1054 261.831 22.8242 261.831 22.5038C261.831 22.0273 262.261 21.6874 263.12 21.4843C263.597 21.4843 263.972 21.9531 264.245 22.8906C266.402 26.5078 268.128 29.5663 269.425 32.0663H269.484C269.577 32.0663 271.394 29.7968 274.933 25.2578C276.761 22.9218 277.851 21.6288 278.202 21.3788L278.706 21.3203ZM287.913 19.6796H287.971C288.721 19.8046 289.096 20.1406 289.096 20.6874L288.932 22.3163V33.3437L288.991 36.0976C288.991 36.5742 288.651 36.8749 287.971 36.9999C287.299 36.914 286.963 36.5937 286.963 36.039H286.905L286.963 35.0898V23.0546L286.905 20.4648C287.108 19.9413 287.444 19.6796 287.913 19.6796ZM307.267 19.7851C308.689 19.7851 310.658 20.2538 313.173 21.1913C313.431 21.4413 313.56 21.7812 313.56 22.2109C313.56 23.0703 313.166 23.5937 312.377 23.7812C310.447 23.2968 308.759 23.0546 307.314 23.0546H307.267C304.377 23.0546 301.939 24.2538 299.955 26.6523C299.314 27.6445 298.994 28.7304 298.994 29.9101C298.994 32.6523 300.568 34.0234 303.716 34.0234H304.056C307.064 34.0234 309.97 33.0663 312.775 31.1523C313.15 30.7773 313.525 30.5898 313.9 30.5898C314.759 30.707 315.189 31.1015 315.189 31.7734V31.9374C315.189 32.8437 314.611 33.5742 313.455 34.1288C312.173 35.0585 310.502 35.8281 308.439 36.4374C306.736 36.8124 305.443 36.9999 304.56 36.9999C300.638 36.9999 298.22 35.4999 297.306 32.4999C296.931 31.0703 296.744 29.9999 296.744 29.289C296.744 26.7968 298.205 24.3788 301.127 22.0351C303.65 20.5351 305.697 19.7851 307.267 19.7851Z" fill="#126B7E"/>
<path d="M64.2448 3.98237C64.3481 3.93606 64.4514 3.89332 64.5511 3.84701C65.0355 4.07142 65.3633 3.97881 65.6055 3.5478C65.5983 3.47656 65.5912 3.40888 65.5841 3.33764C65.7301 3.23434 65.8797 3.13104 66.0258 3.02774C66.0579 3.02062 66.0899 3.01349 66.122 3.00281C66.2466 3.0313 66.3713 3.0883 66.4924 3.08117C66.6242 3.07405 66.8023 2.93157 66.8736 2.97787C67.4649 3.36614 68.0882 2.93869 68.6866 3.06336C68.8078 3.0883 69.0393 2.99925 69.0713 2.90663C69.1105 2.79621 68.993 2.63235 68.9431 2.48987C69.05 2.38301 69.1568 2.27615 69.2637 2.16929C69.4097 2.20135 69.5558 2.2334 69.7018 2.26546C69.7374 2.09805 69.7695 1.92707 69.8051 1.75965C69.7553 1.37139 69.9405 1.22178 70.3109 1.25384C70.4748 1.32508 70.6386 1.43551 70.8096 1.45688C71.0981 1.48894 71.3902 1.44263 71.6823 1.464C72.3876 1.52099 72.3947 1.52099 72.4019 0.797899C72.4695 0.698162 72.5408 0.598424 72.6085 0.498687C72.6797 0.47019 72.7509 0.445256 72.8222 0.41676C72.8578 0.41676 72.8934 0.41676 72.929 0.413198C73.0395 0.413198 73.1535 0.413198 73.2639 0.413198C73.328 0.41676 73.3885 0.420322 73.4527 0.427446C73.5666 0.480877 73.6771 0.530745 73.7911 0.584176L73.8302 0.598424L73.8694 0.584176C74.0083 0.559242 74.1508 0.534307 74.2897 0.512935C74.4963 0.445256 74.7065 0.381139 74.9131 0.31346C75.3405 0.744468 76.3165 0.744468 76.8972 0.31346C77.0005 0.267154 77.1073 0.224409 77.2106 0.178102C77.2676 0.90476 77.8447 0.227971 78.094 0.616234C78.1261 0.370453 78.1439 0.238657 78.1617 0.106861H78.3719C78.5072 0.235095 78.6889 0.491563 78.7744 0.463066C79.07 0.363329 79.33 0.163854 79.6079 0C79.6898 0.0071241 79.7717 0.0142482 79.8537 0.0249343C79.8857 0.0391825 79.9142 0.0569928 79.9463 0.071241L80.0531 0.106861C80.0994 0.641169 80.1529 0.691037 80.4735 0.495125L81.7273 0.523621C82.0016 0.641169 82.2759 0.762278 82.5501 0.879826C82.5893 0.929695 82.6321 0.976001 82.6748 1.02231C82.6606 1.16123 82.6214 1.30015 82.6356 1.43551C82.7033 2.10517 83.3694 2.48275 83.9286 2.17641C84.2065 2.10161 84.4843 2.03037 84.7622 1.95556L84.812 1.96981L84.8619 1.96269C84.9438 2.67866 85.3606 2.03749 85.6135 2.22272C85.5565 2.009 85.5209 1.8772 85.4888 1.7454C85.5601 1.72403 85.6349 1.6991 85.7061 1.67773C86.0873 2.25834 86.6786 2.2904 87.2877 2.28327C87.423 2.31533 87.5619 2.34383 87.6973 2.37232C87.8006 2.38657 87.9075 2.39726 88.0108 2.40795C88.0464 2.50768 88.082 2.60386 88.1319 2.71428C88.1176 2.7036 88.0891 2.68222 88.0606 2.66441C87.9894 2.76415 87.9181 2.86389 87.8469 2.96006C87.8861 2.98856 87.9288 3.01349 87.968 3.04199C88.0286 2.93513 88.0891 2.82827 88.1319 2.71428C88.7766 3.17022 89.4356 3.24859 90.0874 2.5718C90.2869 3.07405 90.1017 3.7259 90.8212 3.7544C90.9316 3.8292 91.0421 3.90401 91.1525 3.97881C91.2665 4.04293 91.384 4.15691 91.498 4.15691C92.0074 4.15691 92.0537 4.49174 92.0929 4.88357C92.1499 5.425 92.2532 5.95931 92.3386 6.49718C92.4028 6.51499 92.4704 6.53636 92.5346 6.55417C92.677 6.39388 92.8195 6.23715 92.962 6.07686C93.1187 6.14097 93.279 6.20865 93.4358 6.27277C93.4749 6.2977 93.5141 6.3262 93.5569 6.35113C93.735 6.59691 93.9095 6.84626 94.0876 7.09204C93.9629 7.39481 93.8632 7.70827 93.7029 7.99324C93.5284 8.30314 93.6032 8.50617 93.8846 8.67715C93.6032 8.99774 93.2577 9.14734 92.8266 9.0761C92.7803 8.9728 92.734 8.87306 92.6913 8.76976C92.328 8.93362 92.1356 8.71277 91.9148 8.47055C91.8293 8.37794 91.5906 8.38862 91.4268 8.40287C91.0492 8.43493 90.6716 8.54536 90.2976 8.53467C89.603 8.51686 88.912 8.42425 88.2174 8.39575C88.1176 8.39219 88.0072 8.56673 87.9039 8.65934C87.7294 8.65934 87.5548 8.65934 87.3803 8.65934L87.1915 8.45987C87.1523 8.5596 87.1096 8.6629 87.0668 8.76264C86.9279 8.76264 86.789 8.76264 86.6465 8.76264C86.6251 8.44206 86.4435 8.39575 86.1549 8.40644C85.8058 8.41712 85.7168 8.60591 85.7061 8.898C85.6741 8.96568 85.6384 9.02979 85.6064 9.09391C85.3499 9.14378 85.097 9.20077 84.8405 9.24708C84.5199 9.30407 84.1958 9.34682 83.8752 9.39668C83.8503 9.36463 83.8253 9.33613 83.8004 9.30407C83.7719 9.27558 83.747 9.24708 83.7185 9.22214C83.6116 9.2079 83.5083 9.19721 83.4015 9.18296C83.259 9.04404 83.1201 8.90868 82.9776 8.76976C83.0132 8.73771 83.0488 8.70209 83.0844 8.66647C83.1236 8.66647 83.1664 8.66647 83.2056 8.66647C83.1735 8.63441 83.1414 8.60235 83.1094 8.56673C83.031 8.52754 82.9526 8.4848 82.8743 8.44562C82.8351 8.41712 82.7995 8.38863 82.7603 8.36369C82.5003 8.36369 82.2402 8.36369 81.9802 8.36013C81.6667 8.353 81.3462 8.32095 81.1787 8.67359C81.1574 8.74483 81.1324 8.81607 81.1111 8.89087C81.1111 8.93718 81.1111 8.98349 81.1111 9.03336C81.0042 9.16159 80.8973 9.28626 80.794 9.41449C80.6516 9.41449 80.5055 9.41449 80.363 9.41093C80.2633 9.2827 80.1671 9.15803 80.0674 9.02979L79.8394 8.99774C79.818 8.86238 79.8002 8.72346 79.7824 8.5881C79.729 8.57029 79.6756 8.55248 79.6221 8.53467C79.4654 8.78757 79.3087 9.03692 79.1519 9.28982C79.07 9.33257 78.9881 9.37531 78.9062 9.41449C78.6354 9.30051 78.3825 9.25064 78.2686 9.62109C78.2721 9.76358 78.2792 9.90606 78.2864 10.045C78.1368 10.2516 77.9836 10.4582 77.834 10.6683H77.6416C77.6024 10.6683 77.5597 10.6683 77.5205 10.6648C77.6024 10.3869 77.6844 10.1091 77.7627 9.83125C78.0228 9.73508 78.0833 9.60328 77.8447 9.41093C77.8126 9.30051 77.777 9.19009 77.7449 9.07966C77.7485 9.02979 77.7734 8.96924 77.7592 8.93006C77.7022 8.7947 77.6345 8.6629 77.5704 8.53111C77.492 8.65578 77.403 8.77333 77.3353 8.90512C77.3068 8.95855 77.3317 9.04048 77.3317 9.10816C77.3317 9.14022 77.3246 9.17228 77.3104 9.20433C77.0681 9.17228 76.8295 9.13666 76.5873 9.10103C76.4163 8.99061 76.2453 8.87663 76.0708 8.7662C75.9176 8.22477 75.5828 8.16422 75.0235 8.57385H74.9202C74.8846 8.57385 74.8525 8.57385 74.8169 8.57385C74.7635 8.46343 74.7101 8.35657 74.6531 8.24614C74.6103 8.27108 74.5676 8.29957 74.5248 8.32451C74.5854 8.41 74.6459 8.49549 74.7101 8.58098C74.5996 8.79114 74.4928 9.0013 74.3859 9.2079C74.1793 9.07254 73.9727 8.93718 73.7626 8.80182C73.7376 8.71277 73.7091 8.62372 73.6842 8.53467C73.6415 8.58454 73.5987 8.63441 73.556 8.68428L73.4491 8.69496C73.3102 8.62728 73.1713 8.55604 73.0323 8.48836C72.929 8.44206 72.8257 8.39931 72.7224 8.353C72.7224 8.32451 72.7153 8.29957 72.7118 8.27464C72.7545 8.08229 73.0715 7.83651 72.612 7.73677C72.5443 7.87213 72.4731 8.00392 72.4054 8.13928C72.3021 8.14641 72.1953 8.15709 72.092 8.16422C72.0207 8.19271 71.9495 8.21765 71.8782 8.24614C71.8391 8.28533 71.7999 8.32807 71.7571 8.36725C71.6182 8.36725 71.4793 8.36725 71.3439 8.37082C70.9735 8.40287 70.5389 8.21408 70.2967 8.68071C70.0972 8.65578 69.8977 8.62728 69.6983 8.60235C69.7339 8.5881 69.7695 8.57741 69.8051 8.56673C69.8051 8.56673 69.8016 8.56673 69.798 8.56673C69.7303 8.56317 69.6662 8.55604 69.5985 8.55248C69.5237 8.56317 69.4454 8.57029 69.3706 8.58098C69.2245 8.73058 69.0749 8.87663 68.8754 9.08322C68.2628 8.92649 67.5575 8.74127 66.8557 8.56317C66.6812 8.53111 66.5067 8.49905 66.3357 8.47055H66.3321C66.3677 8.57385 66.4034 8.67359 66.439 8.76976C66.3001 8.74127 66.1611 8.71277 66.0187 8.68428C65.8085 8.11079 65.2884 8.45987 64.9287 8.34232C64.8468 8.31738 64.6829 8.54892 64.5547 8.6629C64.4514 8.70209 64.3481 8.74127 64.2448 8.77689C64.17 8.74839 64.0987 8.72346 64.0275 8.69496L64.0417 8.65578C63.9384 8.35657 63.8102 8.13572 63.5039 8.48836C63.4362 8.48836 63.3721 8.48836 63.3044 8.4848C62.9553 8.44562 62.6098 8.39931 62.2607 8.36725C61.99 8.34232 61.6765 8.40643 61.6552 7.98611C61.6338 7.53729 61.5982 7.09204 61.5839 6.64322C61.5554 5.92369 61.6338 5.83107 62.3604 5.56748C62.4816 5.52118 62.5777 5.40363 62.681 5.31458C62.7166 5.3217 62.7487 5.33239 62.7772 5.3502C62.8983 5.43569 63.0194 5.52474 63.1441 5.61023C63.2011 5.48912 63.2545 5.36801 63.3222 5.25402C63.4896 4.9655 63.6499 4.67341 63.8387 4.39913C63.9491 4.2424 64.1058 4.12129 64.2448 3.98593V3.98237ZM78.0976 8.84101C78.4467 8.94787 78.639 9.00486 78.9133 9.08679C78.8812 8.84813 78.8599 8.69496 78.8278 8.46343C78.582 8.5881 78.4146 8.67715 78.0976 8.83744V8.84101ZM73.417 8.1001C73.36 8.03954 73.3209 7.98968 73.2746 7.95406C73.2674 7.95049 73.1819 8.01817 73.1855 8.03954C73.2033 8.09654 73.2425 8.14641 73.2852 8.18559C73.2924 8.19271 73.3529 8.14284 73.417 8.1001ZM76.573 8.63084C76.63 8.59522 76.6692 8.57029 76.7084 8.54536C76.6763 8.50261 76.6443 8.4563 76.6158 8.41356C76.5801 8.44206 76.5231 8.46343 76.5125 8.50261C76.5018 8.53467 76.5481 8.57741 76.5766 8.63084H76.573Z" fill="#164526"/>
<path d="M72.6046 34.3346C72.6509 34.1245 72.6972 33.9179 72.7435 33.7077C72.8041 33.6365 72.8646 33.5652 72.9216 33.494C73.3241 33.1342 73.0926 32.9383 72.7399 32.7637V31.7165C72.9038 31.8305 73.0712 31.948 73.3206 32.1226C73.3027 31.8198 73.2921 31.6132 73.2778 31.3746C73.0712 31.3852 72.9038 31.3924 72.7399 31.403V30.2525C73.2279 30.0317 73.3206 29.6007 73.2636 29.1411C73.2458 29.0094 73.0356 28.8989 72.9145 28.7814C72.9608 28.6425 73.0071 28.5071 73.057 28.3682V28.158C73.0213 28.0191 72.9857 27.8802 72.9537 27.7377C73.4452 27.5311 73.5699 26.6157 73.1674 26.1668C73.1674 26.1312 73.1674 26.0956 73.1674 26.06C73.4239 25.8854 73.5948 25.7002 73.2671 25.4331C73.2636 25.2265 73.2422 25.0127 73.2564 24.8097C73.3134 24.0047 73.3811 23.2032 73.4452 22.3982C73.4844 22.188 73.52 21.9779 73.5592 21.7677C73.748 21.6181 73.9404 21.4649 74.2396 21.2263C73.951 21.18 73.8228 21.1622 73.6946 21.1408C73.6803 21.0695 73.6696 21.0019 73.6554 20.9306L73.7907 20.3037C73.919 20.1897 74.0437 20.0757 74.1719 19.9617L73.7907 19.5699V18.3161C73.9332 18.2413 74.0757 18.1665 74.2182 18.0917C74.1363 17.9563 74.0508 17.821 73.9689 17.682C73.9795 17.5787 73.9902 17.4754 74.0009 17.3721V17.0587C74.0437 16.8948 74.0864 16.7274 74.1113 16.6241C73.8691 16.3641 73.6625 16.1432 73.4524 15.9224L73.7765 15.3738C73.9582 15.3062 74.1398 15.242 74.3215 15.1744C74.35 15.1387 74.3749 15.1031 74.4034 15.0675C74.4462 14.9286 74.4889 14.7897 74.5317 14.6507C74.5566 14.6116 74.5815 14.5759 74.61 14.5403C74.8273 14.2126 74.4925 14.0274 74.4212 13.7709C74.5922 13.6925 74.7596 13.6106 74.9306 13.5323L75.0339 13.5038C75.2084 13.3292 75.383 13.1547 75.5575 12.9801C75.4507 12.9801 75.3402 12.9801 75.2334 12.9801C75.3011 12.8412 75.3687 12.6987 75.4364 12.5598L75.7855 12.4138C75.7143 12.3247 75.6466 12.2357 75.5753 12.1466C75.6715 11.6978 75.7712 11.2454 75.8674 10.7966C76.0063 10.5971 76.1417 10.3976 76.2771 10.1946C76.3732 10.0486 76.4658 9.90252 76.562 9.75648L76.5941 9.73511C76.7045 9.80991 76.8149 9.88471 76.9254 9.95952L76.6903 10.4689C76.5513 10.6007 76.4089 10.7325 76.2129 10.9177C76.3982 10.9533 76.4908 10.9747 76.5834 10.9925C76.6226 11.0353 76.6653 11.078 76.7081 11.1207C76.6938 11.4912 76.9681 11.5589 77.2459 11.623C77.2459 11.6907 77.2459 11.7584 77.2424 11.826C77.0571 11.9044 76.8684 11.9792 76.6831 12.0576C77.164 11.9721 77.2388 12.2285 77.2317 12.5776C76.847 12.9516 76.4623 13.3257 76.0811 13.6997C76.017 13.7424 75.9529 13.7852 75.8888 13.8243C75.8532 13.892 75.8176 13.9633 75.7784 14.0309C75.6751 14.2375 75.5718 14.4477 75.472 14.6579C75.3011 14.6721 75.1265 14.6864 74.9555 14.7006C74.9555 14.7398 74.952 14.7825 74.9484 14.8253C75.0873 14.8751 75.2263 14.925 75.3616 14.9749C75.3616 15.0782 75.3687 15.1815 75.3723 15.2848C75.3509 15.5626 75.3153 15.8405 75.3082 16.1219C75.3046 16.3249 75.3652 16.5351 75.3402 16.7345C75.2476 17.4398 75.1301 18.1415 75.0232 18.8468V21.0482C74.9484 21.5718 74.8772 22.0954 74.8024 22.619C74.2075 22.7401 74.5174 23.075 74.6278 23.3635C74.5566 23.9227 74.4212 24.4855 74.4248 25.0448C74.439 29.1447 74.4853 33.2482 74.521 37.3481C74.521 37.4336 74.5032 37.5333 74.5352 37.6046C74.7098 37.9822 74.4818 38.0142 74.2039 38.0142C73.5093 38.0142 72.8112 38.0142 72.1166 38.0142C72.1095 37.9109 72.1023 37.8076 72.0952 37.7007C72.2484 36.7568 72.398 35.8164 72.5512 34.8725C72.5832 34.8297 72.6153 34.787 72.6473 34.7478C72.6366 34.616 72.6295 34.4842 72.6188 34.3489H72.6153L72.6046 34.3346Z" fill="#164526"/>
<path d="M77.2253 12.5705C77.2324 12.2214 77.1576 11.9649 76.6768 12.0504C76.862 11.972 77.0508 11.8972 77.236 11.8189C77.3464 11.8296 77.4818 11.883 77.5601 11.8402C78.2049 11.4876 78.8674 11.1563 79.4623 10.736C79.7579 10.5294 79.9325 10.1447 80.1676 9.8455C80.2139 9.78851 80.2958 9.76001 80.3635 9.71726C80.4098 9.74932 80.4561 9.77782 80.5024 9.80988C80.4632 9.74932 80.424 9.68521 80.3813 9.62465C80.367 9.59615 80.3599 9.5641 80.3599 9.53204C80.3599 9.49285 80.3599 9.45367 80.3635 9.41449C80.506 9.41449 80.652 9.41449 80.7945 9.41805C80.937 10.02 81.2219 9.55697 81.4499 9.50354C81.6992 9.48217 81.9486 9.4608 82.3369 9.42874C81.4642 9.9488 80.6983 10.4083 79.9325 10.8642C79.9574 10.9426 79.9823 11.021 80.0073 11.0993C80.4454 11.078 80.8907 11.0993 81.3181 11.0281C82.2549 10.8642 83.1846 10.6505 84.1179 10.4582C84.1571 10.4582 84.1962 10.4617 84.239 10.4617V10.7823C84.1713 10.8215 84.1036 10.8571 84.0359 10.8963C83.9291 10.9319 83.8222 10.9675 83.7154 11.0032C82.9816 11.1421 82.2478 11.281 81.5176 11.4199L80.2602 11.5232C80.1569 11.5588 80.05 11.5945 79.9467 11.6265C79.7722 11.6265 79.5976 11.6301 79.4231 11.6336C79.074 11.7726 78.7249 11.9079 78.3759 12.0468C78.3367 12.0682 78.3011 12.0932 78.2619 12.1181C78.1942 12.1537 78.1229 12.1929 78.0553 12.2285C77.8487 12.3247 77.6421 12.4173 77.4319 12.5135L77.3286 12.5705C77.2966 12.5883 77.2609 12.6025 77.2289 12.6203C77.236 12.599 77.2324 12.5812 77.2146 12.5705H77.2253Z" fill="#164526"/>
<path d="M73.7767 15.3667L73.4525 15.9152C73.2602 15.7086 73.0643 15.4985 72.8719 15.2919C72.7544 15.1779 72.6368 15.0639 72.5193 14.9499C72.4089 14.8074 72.2949 14.665 72.1809 14.5225C71.9814 14.3194 71.7819 14.1128 71.5825 13.9098C71.4435 13.8029 71.3046 13.6996 71.1693 13.5928C71.123 13.4895 71.0767 13.3862 71.0303 13.2829C70.8701 12.9302 70.7062 12.5776 70.5459 12.2285C70.4996 12.1252 70.4533 12.0255 70.4034 11.9222L70.3286 11.7085C70.3179 11.6052 70.3108 11.5019 70.3001 11.3986C70.2752 11.3273 70.2503 11.2561 70.2253 11.1848C70.1897 11.1172 70.1541 11.0495 70.1149 10.9818C69.9653 10.7253 69.8192 10.4689 69.6696 10.2088C69.3989 10.0806 69.1318 9.95237 68.8611 9.82414C68.8219 9.78496 68.7863 9.74221 68.7471 9.70303C68.7471 9.63535 68.7471 9.57123 68.7471 9.50355C69.1175 9.63535 69.4915 9.76358 70.0258 9.95237C69.7266 9.52136 69.4595 9.18297 69.7872 8.79471C69.7729 8.73415 69.7623 8.67003 69.748 8.60948L69.7231 8.62373L69.7017 8.60236L70.3037 8.68072C70.2823 9.3112 70.3286 9.92744 70.7347 10.4511L70.8309 10.6897C70.5815 10.6398 70.4426 10.6968 70.5708 10.9782C70.7952 11.4876 70.9413 12.0647 71.2761 12.4921C72.0598 13.4895 72.936 14.4156 73.7731 15.3702L73.7767 15.3667Z" fill="#164526"/>
<path d="M87.9076 8.65934C88.0109 8.56673 88.1213 8.39219 88.221 8.39575C88.9156 8.42425 89.6067 8.51686 90.3013 8.53467C90.6753 8.54536 91.0529 8.43493 91.4304 8.40288C91.5943 8.38863 91.833 8.37438 91.9184 8.47055C92.1393 8.71634 92.3316 8.93362 92.695 8.76977C92.7413 8.87307 92.7876 8.9728 92.8303 9.0761C92.5276 9.07967 92.2212 9.11172 91.922 9.08323C91.7653 9.06898 91.6228 8.94075 91.4732 8.86594H91.1562C91.0172 8.91581 90.8783 8.95856 90.7358 9.00842C90.5969 9.0298 90.458 9.05473 90.3155 9.0761C90.2906 9.00842 90.2657 8.94431 90.2407 8.87663C90.2122 8.88731 90.1873 8.89444 90.1588 8.90512C90.1802 8.96924 90.198 9.03336 90.2193 9.09748C90.0056 9.17228 89.7955 9.24708 89.5817 9.32188C89.5105 9.3575 89.4428 9.39313 89.3716 9.42518C89.2612 9.45368 89.1543 9.47861 89.0439 9.50711C88.88 9.57123 88.7162 9.63178 88.5523 9.6959V9.71015C88.5096 9.61753 88.4668 9.52848 88.4241 9.43587C88.7838 9.30764 89.1472 9.18296 89.5069 9.05829C89.5069 9.03336 89.5034 9.00486 89.4998 8.97993C89.1436 8.95499 88.791 8.9265 88.4348 8.90156C88.3742 8.8695 88.3137 8.84101 88.2531 8.80895L88.335 8.99774C88.3279 9.02623 88.3208 9.05473 88.3208 9.08679C88.2175 9.16872 88.1177 9.25421 88.0144 9.33613C87.9468 9.38244 87.8791 9.42875 87.815 9.47149C87.7045 9.58904 87.5941 9.70659 87.4873 9.82057L87.2807 9.81345C87.1809 9.73508 87.0812 9.65672 86.9814 9.58191C87.2913 9.27558 87.5977 8.96924 87.9076 8.65934Z" fill="#164526"/>
<path d="M62.6811 5.31099C62.5742 5.39648 62.4816 5.51759 62.3605 5.56389C61.6339 5.83105 61.5591 5.92366 61.584 6.63963C61.6018 7.08845 61.6339 7.53727 61.6552 7.98252C61.6766 8.40285 61.9901 8.33873 62.2608 8.36366C62.6099 8.39572 62.9554 8.44203 63.3045 8.48121C63.3045 8.51327 63.2973 8.54533 63.2831 8.57382C63.219 8.63794 63.1549 8.70206 63.0907 8.76261C62.8556 8.73412 62.617 8.65931 62.389 8.68781C61.8013 8.75905 61.4095 8.50258 61.1031 8.04308C61.0675 7.96828 60.982 7.86854 61.0034 7.81867C61.2456 7.24162 60.868 6.63607 61.1067 6.06258C61.3168 5.7883 61.5234 5.51046 61.7336 5.23618C61.8013 5.20056 61.8725 5.16138 61.9402 5.12576C62.0791 5.0937 62.2216 5.05808 62.3605 5.02246C62.4674 5.11864 62.5707 5.21481 62.6775 5.31099H62.6811Z" fill="#164526"/>
<path d="M88.1179 2.71067C88.0823 2.61093 88.0467 2.51475 88.0146 2.41502C88.0503 2.40433 88.0859 2.39008 88.1179 2.37939C88.2212 2.41145 88.3281 2.44707 88.4314 2.48269C88.4635 2.49338 88.4991 2.50407 88.5347 2.51475C88.7556 2.52188 88.9764 2.53969 89.1972 2.53612C89.6389 2.53256 90.0842 2.51831 90.5259 2.50763L90.7289 3.15236C90.761 3.3554 90.793 3.55843 90.8251 3.76147C90.1056 3.73297 90.2908 3.08468 90.0913 2.57887C89.4395 3.25566 88.7805 3.17729 88.1179 2.71067Z" fill="#164526"/>
<path d="M68.9466 2.49701C68.9965 2.63949 69.114 2.80335 69.0749 2.91377C69.0428 3.00282 68.8113 3.09543 68.6902 3.0705C68.0917 2.94583 67.4684 3.37327 66.8771 2.98501C66.8058 2.9387 66.6277 3.08119 66.4959 3.08831C66.3748 3.09543 66.2466 3.03844 66.1255 3.00994C66.3036 2.91377 66.4781 2.81759 66.6562 2.71786C66.7239 2.71073 66.7952 2.70361 66.8628 2.69292C67.5574 2.62524 68.2983 3.04913 68.9466 2.49701Z" fill="#164526"/>
<path d="M92.9658 6.08041C92.8233 6.2407 92.6808 6.39743 92.5383 6.55772C92.4742 6.53991 92.4065 6.51854 92.3424 6.50073C92.2569 5.96286 92.1536 5.42855 92.0966 4.88712C92.0574 4.4953 92.0111 4.16403 91.5018 4.16046C91.3842 4.16046 91.2702 4.04292 91.1562 3.98236L92.0824 4.06429L92.1038 4.08566C92.3353 4.38843 92.5348 4.68408 92.3353 5.10441C92.289 5.20058 92.4493 5.39293 92.5134 5.53898L92.5348 5.74558C92.5205 5.77407 92.5134 5.80613 92.5134 5.83819C92.5134 5.88093 92.5134 5.92368 92.5134 5.96642L92.5063 5.9593C92.5454 5.98779 92.5811 6.01629 92.6202 6.04123C92.7378 6.05547 92.8518 6.06616 92.9693 6.08041H92.9658Z" fill="#164526"/>
<path d="M64.2449 3.98236C64.106 4.12128 63.9493 4.23883 63.8388 4.39556C63.65 4.66984 63.4898 4.96192 63.3223 5.25045C63.2547 5.36444 63.2012 5.48911 63.1442 5.60665C63.0231 5.52117 62.902 5.43211 62.7773 5.34663C62.845 5.21839 62.9091 5.09016 62.9733 4.96192C63.0837 4.70189 63.1977 4.4383 63.3081 4.17827C63.3758 4.14622 63.4434 4.11416 63.5111 4.0821C63.65 4.07141 63.789 4.06429 63.9243 4.0536C64.0276 4.03223 64.1345 4.0073 64.2378 3.98236H64.2449Z" fill="#164526"/>
<path d="M76.9079 0.317031C76.3273 0.751601 75.3513 0.751601 74.9238 0.317031C75.1696 0.277849 75.4154 0.235104 75.6576 0.195922C75.7609 0.153177 75.8642 0.110433 75.9711 0.067688C76.1456 0.067688 76.3202 0.067688 76.4947 0.067688C76.5268 0.0783741 76.5624 0.0854982 76.5944 0.0926223C76.6621 0.128243 76.7298 0.163863 76.7975 0.199484C76.8366 0.22798 76.8794 0.252915 76.9186 0.281411L76.9079 0.317031Z" fill="#164526"/>
<path d="M67.5964 9.30054C67.2117 9.12244 66.827 8.94433 66.4423 8.76623C66.4067 8.66649 66.3711 8.57032 66.3354 8.47058H66.339C66.5136 8.49552 66.6881 8.52757 66.8591 8.55963C66.8448 8.57032 66.827 8.581 66.8235 8.59525C66.8199 8.60594 66.8235 8.63444 66.8306 8.638C67.4682 8.93009 68.1093 9.21861 68.747 9.50714C68.747 9.57482 68.747 9.63893 68.747 9.70661C68.608 9.67812 68.4727 9.64962 68.3373 9.61756C68.0915 9.5107 67.8458 9.4074 67.5964 9.30054Z" fill="#164526"/>
<path d="M70.318 1.26093C70.6671 1.21463 71.0162 1.16832 71.3653 1.12202C71.4686 1.12202 71.5754 1.12202 71.6787 1.11845C71.8176 1.0579 71.9601 0.997343 72.099 0.936789L72.3092 0.829927C72.3413 0.822803 72.3733 0.815679 72.4054 0.804993C72.3983 1.52809 72.3911 1.52809 71.6858 1.4711C71.3973 1.44972 71.1017 1.49603 70.8131 1.46397C70.6422 1.4426 70.4819 1.33218 70.3145 1.26093H70.318Z" fill="#164526"/>
<path d="M83.9323 2.17992C83.3695 2.48626 82.7034 2.11224 82.6393 1.43902C82.6251 1.30366 82.6642 1.16474 82.6785 1.02582C82.7105 1.0365 82.7426 1.04363 82.7711 1.04719C82.9777 1.59218 83.3553 1.94839 83.9252 2.09087C83.9252 2.11937 83.9288 2.14786 83.9323 2.17636V2.17992Z" fill="#164526"/>
<path d="M65.6056 3.55134C65.3634 3.98235 65.0357 4.07496 64.5513 3.85055C64.5584 3.78643 64.5655 3.72232 64.5726 3.6582C64.7329 3.38392 64.9182 3.15239 65.2886 3.23788C65.3278 3.30556 65.3705 3.37324 65.4133 3.44091C65.4774 3.47653 65.5415 3.51572 65.6056 3.55134Z" fill="#164526"/>
<path d="M94.0915 7.09918C94.1343 7.20604 94.1734 7.31647 94.2162 7.42333C94.2162 7.45895 94.2126 7.49101 94.2126 7.52663C94.1984 7.66555 94.1877 7.80091 94.177 7.93983C93.746 8.21767 94.3373 8.27466 94.291 8.46701C94.1877 8.53469 94.0844 8.60237 93.9811 8.67005C93.949 8.67361 93.9205 8.68073 93.8885 8.68429C93.6106 8.51332 93.5358 8.31028 93.7068 8.00038C93.8635 7.71898 93.9633 7.40196 94.0915 7.09918Z" fill="#164526"/>
<path d="M65.2919 8.80181H65.185C65.0461 8.76975 64.9072 8.73413 64.7683 8.69851C64.697 8.68426 64.6293 8.67001 64.5581 8.65933C64.6863 8.54534 64.8502 8.31381 64.9321 8.33874C65.2955 8.45273 65.8119 8.10365 66.0221 8.6807C65.8119 8.71276 65.6018 8.74125 65.3916 8.77331C65.356 8.77687 65.3239 8.78756 65.2919 8.80181Z" fill="#164526"/>
<path d="M78.1693 0.106878C78.1515 0.238673 78.1337 0.370469 78.1017 0.616251C77.8559 0.227987 77.2788 0.904777 77.2183 0.178119C77.2183 0.149622 77.2218 0.124688 77.2254 0.0961914C77.5388 0.0961914 77.8523 0.0997535 78.1658 0.103316L78.1693 0.106878Z" fill="#164526"/>
<path d="M79.6115 0.00360107C79.3372 0.163893 79.0737 0.363368 78.778 0.466667C78.6961 0.495164 78.5144 0.235134 78.3755 0.110463C78.4111 0.0997764 78.4467 0.0890903 78.4788 0.0748421C78.6177 0.0748421 78.7566 0.0748421 78.8991 0.0748421C79.1342 0.0534698 79.3729 0.0320975 79.608 0.00716312L79.6115 0.00360107Z" fill="#164526"/>
<path d="M73.752 19.9903L73.7876 19.5699L74.1687 19.9618C74.0405 20.0758 73.9158 20.1897 73.7876 20.3037C73.7733 20.2681 73.7626 20.2325 73.752 20.2004V19.9903Z" fill="#164526"/>
<path d="M81.731 0.527171C81.9661 0.256455 82.2047 0.245769 82.4541 0.512923C82.4612 0.580602 82.4683 0.644718 82.4754 0.712397C82.5004 0.762266 82.5289 0.815697 82.5538 0.865565V0.883376C82.2831 0.765828 82.0088 0.644718 81.7345 0.527171H81.731Z" fill="#164526"/>
<path d="M73.6949 21.1407C73.8232 21.1621 73.9478 21.1799 74.2399 21.2262C73.9371 21.4649 73.7484 21.6181 73.5596 21.7677C73.6059 21.5611 73.6522 21.3509 73.6985 21.1407H73.6949Z" fill="#164526"/>
<path d="M69.4847 1.98763C69.5951 1.91283 69.702 1.84159 69.8124 1.76678C69.7768 1.9342 69.7447 2.10518 69.7091 2.2726C69.5631 2.24054 69.417 2.20848 69.271 2.17642C69.271 2.14792 69.2781 2.11943 69.2817 2.09449C69.3494 2.05887 69.4206 2.02325 69.4883 1.98763H69.4847Z" fill="#164526"/>
<path d="M75.4616 14.6472C75.4545 14.7505 75.4438 14.8538 75.4367 14.9571C75.4082 14.9571 75.3797 14.9571 75.3512 14.9642C75.2123 14.9143 75.0733 14.8644 74.938 14.8146C74.938 14.7754 74.9416 14.7326 74.9451 14.6899C75.1161 14.6757 75.2906 14.6614 75.4616 14.6472Z" fill="#164526"/>
<path d="M80.1569 0.103274C80.2637 0.235069 80.3706 0.366865 80.4775 0.498661C80.1569 0.694574 80.1034 0.641143 80.0571 0.110398C80.0892 0.0925875 80.1248 0.0925875 80.1569 0.106836V0.103274Z" fill="#164526"/>
<path d="M62.3642 5.02246C62.2252 5.05452 62.0828 5.09014 61.9438 5.12576C62.0828 5.0937 62.2252 5.05808 62.3642 5.02246Z" fill="#164526"/>
<path d="M75.8605 14.0024C75.8285 14.0096 75.8 14.0167 75.7715 14.0203C75.8071 13.9526 75.8427 13.8813 75.8819 13.8137L75.8641 14.0024H75.8605Z" fill="#164526"/>
<path d="M92.4917 3.32343H92.5344L92.5166 3.35905L92.4917 3.32343Z" fill="#164526"/>
<path d="M88.5524 9.71011V9.69586C88.5844 9.70299 88.6165 9.71011 88.6664 9.71723C88.6165 9.71367 88.5809 9.71011 88.5488 9.70655L88.5524 9.71011Z" fill="#164526"/>
<path d="M84.1247 10.4546C84.3669 10.3228 84.6091 10.1946 84.9368 10.0129C84.7195 9.92745 84.5949 9.87402 84.4702 9.82415C84.431 9.79566 84.3918 9.77072 84.3491 9.74223L84.2458 9.71373C84.1389 9.64249 84.0321 9.57125 83.9288 9.50001C83.9145 9.46439 83.8967 9.43233 83.8789 9.39671C84.1995 9.34684 84.5236 9.30053 84.8442 9.2471C85.1007 9.20436 85.3536 9.1438 85.6101 9.09393C85.8523 9.31122 86.0945 9.52494 86.3332 9.74223C86.2975 9.90608 86.2584 10.0664 86.2227 10.2302L86.2334 10.2658C86.1907 10.2908 86.1479 10.3193 86.1052 10.3442C85.9734 10.3478 85.8416 10.3549 85.7062 10.3585C85.4391 10.2267 85.1862 10.1412 85.0722 10.5401C84.862 10.6078 84.6519 10.679 84.4453 10.7467C84.374 10.647 84.3064 10.5508 84.2351 10.4511C84.1959 10.4511 84.1567 10.4475 84.114 10.4475L84.1247 10.4546Z" fill="#164526"/>
<path d="M75.2339 10.0557C75.0985 9.94168 74.9631 9.82769 74.8242 9.71371C74.6995 9.58191 74.5749 9.45368 74.4502 9.32188C74.4288 9.2827 74.411 9.24708 74.3896 9.2079C74.5001 8.99773 74.6069 8.78757 74.7138 8.58097C74.7494 8.58097 74.785 8.57741 74.8207 8.57385C74.8563 8.57385 74.8883 8.57385 74.924 8.57385H75.0273C75.5865 8.16422 75.9213 8.22477 76.0745 8.7662C75.8394 8.88731 75.6007 9.00842 75.3514 9.13309C75.4689 9.27914 75.5331 9.3575 75.5972 9.43943C75.4761 9.64603 75.355 9.85263 75.2339 10.0592V10.0557Z" fill="#164526"/>
<path d="M85.71 1.68127C85.9486 1.67415 86.2265 1.58509 86.4224 1.67415C86.7394 1.81663 87.003 2.07666 87.2915 2.28682C86.686 2.29394 86.0911 2.26545 85.71 1.68127Z" fill="#164526"/>
<path d="M71.6715 10.1056C71.5647 9.52494 71.4578 8.94788 71.3545 8.36727C71.4934 8.36727 71.6323 8.36727 71.7677 8.36371C71.814 8.88733 71.8603 9.41451 71.9066 9.93813C71.8674 10.0343 71.8318 10.1269 71.7926 10.2231C71.7534 10.1839 71.7143 10.1447 71.6715 10.1056Z" fill="#164526"/>
<path d="M76.7049 11.1136C76.9792 10.964 77.2535 10.8144 77.5277 10.6648C77.5669 10.6648 77.6097 10.6648 77.6488 10.6684C77.6488 10.7075 77.6524 10.7503 77.656 10.7895C77.517 11.0637 77.3817 11.338 77.2428 11.6159C76.9649 11.5517 76.6942 11.4876 76.7049 11.1136Z" fill="#164526"/>
<path d="M76.591 9.72437C76.591 9.51777 76.591 9.30761 76.591 9.10101C76.8332 9.13307 77.0718 9.16869 77.3141 9.20431C77.1823 9.45366 77.0505 9.703 76.9187 9.95234C76.8082 9.87754 76.6978 9.80274 76.5874 9.72793L76.591 9.72437Z" fill="#164526"/>
<path d="M83.4054 9.18295C83.0706 9.26132 82.7322 9.33968 82.3973 9.41805C82.376 9.37886 82.3581 9.34324 82.3403 9.30406C82.5541 9.12596 82.7678 8.95142 82.9815 8.77332C83.124 8.91224 83.2629 9.04759 83.4054 9.18651V9.18295Z" fill="#164526"/>
<path d="M84.8693 1.96625C85.0759 1.89501 85.286 1.82377 85.4926 1.74896C85.5283 1.88076 85.5603 2.01255 85.6173 2.22628C85.3644 2.03749 84.9476 2.68222 84.8657 1.96625H84.8693Z" fill="#164526"/>
<path d="M78.0977 8.8446C78.4147 8.68074 78.5821 8.59525 78.8279 8.47058C78.8599 8.70211 78.8813 8.85528 78.9134 9.09394C78.6391 9.01201 78.4467 8.95146 78.0977 8.84816V8.8446Z" fill="#164526"/>
<path d="M79.8467 8.99773C79.6187 9.09391 79.3907 9.19365 79.1592 9.28982C79.3159 9.03692 79.4726 8.78757 79.6294 8.53467C79.6828 8.55248 79.7362 8.57029 79.7897 8.5881C79.811 8.72346 79.8288 8.86238 79.8467 8.99773Z" fill="#164526"/>
<path d="M77.7519 9.07964L77.3352 9.10458C77.3352 9.0369 77.3138 8.95854 77.3387 8.90154C77.4064 8.76975 77.4955 8.6522 77.5738 8.52753C77.638 8.65932 77.7092 8.78756 77.7626 8.92648C77.7804 8.96922 77.7555 9.02621 77.7484 9.07608L77.7519 9.07964Z" fill="#164526"/>
<path d="M72.7228 8.27108L72.4165 8.13573C72.4842 8.00037 72.5554 7.86857 72.6231 7.73322C73.0826 7.83295 72.7656 8.07517 72.7228 8.26752V8.27108Z" fill="#164526"/>
<path d="M78.9135 9.41445C78.771 9.55693 78.6285 9.69585 78.4896 9.83833L78.2759 9.62105C78.3934 9.25059 78.6428 9.30403 78.9135 9.41445Z" fill="#164526"/>
<path d="M64.0418 8.65575L63.5039 8.48834C63.8102 8.13926 63.9385 8.35654 64.0418 8.65575Z" fill="#164526"/>
<path d="M88.1499 2.72852C88.0894 2.83538 88.0288 2.94225 87.9683 3.04555C87.9291 3.01705 87.8864 2.99212 87.8472 2.96362C87.9184 2.86388 87.9896 2.76414 88.0609 2.66797C88.0894 2.68934 88.1179 2.70715 88.1499 2.72496V2.72852Z" fill="#164526"/>
<path d="M77.77 9.83127C77.7985 9.69235 77.8235 9.54987 77.8519 9.41095C78.0906 9.6033 78.0336 9.7351 77.77 9.83127Z" fill="#164526"/>
<path d="M74.8209 8.57026C74.7853 8.57026 74.7497 8.57382 74.714 8.57739C74.6535 8.4919 74.5929 8.40641 74.5288 8.32092C74.5716 8.29598 74.6143 8.26749 74.657 8.24255C74.7105 8.35298 74.7639 8.45984 74.8209 8.57026Z" fill="#164526"/>
<path d="M73.4172 8.10015C73.3531 8.13934 73.2925 8.19277 73.2854 8.18564C73.2426 8.1429 73.2035 8.09303 73.1857 8.0396C73.1821 8.02179 73.2676 7.95055 73.2747 7.95411C73.3246 7.98973 73.3602 8.0396 73.4172 8.10015Z" fill="#164526"/>
<path d="M78.2759 9.62109L78.4896 9.83838C78.4219 9.90606 78.3578 9.9773 78.2937 10.045C78.2901 9.9025 78.283 9.76001 78.2759 9.62109Z" fill="#164526"/>
<path d="M87.3838 8.65931C87.2805 8.69493 87.1736 8.73055 87.0703 8.76261C87.1095 8.66288 87.1522 8.55958 87.195 8.45984L87.3838 8.65931Z" fill="#164526"/>
<path d="M76.5727 8.63086C76.5442 8.57743 76.5015 8.53112 76.5086 8.50263C76.5193 8.467 76.5763 8.44207 76.6119 8.41357C76.644 8.45632 76.676 8.50263 76.7045 8.54537C76.6653 8.5703 76.6226 8.59524 76.5692 8.63086H76.5727Z" fill="#164526"/>
<path d="M80.2849 9.41092C80.2136 9.28269 80.1459 9.15802 80.0747 9.02979C80.1744 9.15802 80.2706 9.28269 80.3704 9.41092H80.2849Z" fill="#164526"/>
<path d="M73.7662 8.79826L73.7163 8.79114L73.6664 8.80182C73.6308 8.76264 73.5952 8.72346 73.5596 8.68427C73.6023 8.63441 73.6451 8.58454 73.6878 8.53467C73.7127 8.62372 73.7412 8.71277 73.7662 8.80182V8.79826Z" fill="#164526"/>
<path d="M81.1858 8.67712C81.1645 8.74837 81.1395 8.81961 81.1182 8.89441C81.1395 8.82317 81.1645 8.75193 81.1858 8.67712Z" fill="#164526"/>
<path d="M83.0879 8.67003C83.0915 8.63797 83.1021 8.60591 83.1164 8.57385C83.1484 8.60591 83.1805 8.63797 83.2126 8.67359C83.1734 8.67359 83.1306 8.67359 83.0915 8.67359L83.0879 8.67003Z" fill="#164526"/>
<path d="M77.6526 10.7894C77.6526 10.7503 77.6491 10.7075 77.6455 10.6683H77.8379C77.7737 10.7075 77.7132 10.7503 77.6491 10.7894H77.6526Z" fill="#164526"/>
<path d="M93.4395 6.27631C93.4786 6.30124 93.5178 6.32974 93.5606 6.35467C93.5214 6.32974 93.4822 6.30124 93.4395 6.27631Z" fill="#164526"/>
<path d="M69.8129 8.56317C69.8129 8.56317 69.7982 8.57424 69.8019 8.57055C69.8092 8.56686 69.8092 8.56686 69.8129 8.56317Z" fill="#164526"/>
<path d="M82.8816 8.44918C82.8424 8.42068 82.8068 8.39218 82.7676 8.36725C82.8068 8.39574 82.8424 8.42424 82.8816 8.44918Z" fill="#164526"/>
<path d="M83.8041 9.30409C83.7756 9.2756 83.7507 9.2471 83.7222 9.22217C83.7507 9.25066 83.7756 9.27916 83.8041 9.30409Z" fill="#164526"/>
<path d="M74.4182 13.7638C73.5134 12.9659 72.6086 12.1715 71.711 11.3629C71.6113 11.2703 71.5721 11.11 71.5044 10.9854C71.7395 11.021 71.9781 11.053 72.2132 11.0851C72.313 11.2276 72.4127 11.3701 72.5125 11.5161C72.5837 11.5482 72.6549 11.5802 72.7226 11.6158C73.4564 12.2534 74.1902 12.891 74.924 13.5251C74.753 13.6035 74.5856 13.6854 74.4146 13.7638H74.4182Z" fill="#164526"/>
<path d="M75.5972 9.43585C75.843 9.77068 76.0745 10.1483 76.559 9.74219C76.4664 9.88823 76.3702 10.0343 76.274 10.1803C76.1386 10.3834 75.9997 10.5828 75.8644 10.7823C75.6542 10.5401 75.444 10.2979 75.2339 10.0556C75.355 9.84905 75.4761 9.64245 75.5972 9.43585Z" fill="#164526"/>
<path d="M72.7441 30.2525C72.8011 29.7609 72.8581 29.2729 72.9187 28.7814C73.0398 28.9025 73.25 29.0093 73.2678 29.1411C73.3283 29.6042 73.2357 30.0317 72.7441 30.2525Z" fill="#164526"/>
<path d="M72.9541 27.7377C73.0253 27.2141 73.0966 26.6904 73.1678 26.1668C73.5703 26.6156 73.4492 27.5275 72.9541 27.7377Z" fill="#164526"/>
<path d="M72.7441 31.7165V31.403C72.9116 31.3959 73.0754 31.3852 73.282 31.3745C73.2963 31.6096 73.3069 31.8198 73.3248 32.1225C73.0718 31.948 72.908 31.834 72.7441 31.7165Z" fill="#164526"/>
<path d="M73.7915 18.3125C73.8521 18.1023 73.9091 17.8921 73.9696 17.6784C74.0515 17.8138 74.137 17.9491 74.219 18.088C74.0765 18.1628 73.934 18.2376 73.7915 18.3125Z" fill="#164526"/>
<path d="M72.9219 33.494C72.8613 33.2517 72.8008 33.0095 72.7402 32.7637C73.0893 32.9347 73.3244 33.1342 72.9219 33.494Z" fill="#164526"/>
<path d="M74.7921 22.6048C74.7351 22.8541 74.6745 23.0999 74.6175 23.3493C74.5071 23.0607 74.2008 22.7259 74.7921 22.6048Z" fill="#164526"/>
<path d="M75.0269 13.4966C75.0945 13.3221 75.1622 13.1475 75.2263 12.9694C75.3332 12.9694 75.4436 12.9694 75.5505 12.9694C75.3759 13.144 75.2014 13.3185 75.0269 13.493V13.4966Z" fill="#164526"/>
<path d="M73.1606 26.0635L73.2604 25.4366C73.5881 25.7037 73.4171 25.8925 73.1606 26.0635Z" fill="#164526"/>
<path d="M76.6873 10.4582C76.6517 10.6327 76.616 10.8073 76.5804 10.9818C76.4878 10.964 76.3952 10.9426 76.21 10.907C76.4059 10.7218 76.5484 10.59 76.6873 10.4582Z" fill="#164526"/>
<path d="M75.4331 12.5491C75.4794 12.4102 75.5257 12.2748 75.572 12.1359C75.6433 12.225 75.7109 12.314 75.7822 12.4031L75.4331 12.5491Z" fill="#164526"/>
<path d="M74.5317 14.6472C74.5567 14.608 74.5816 14.5724 74.6101 14.5367C74.5852 14.5759 74.5602 14.6115 74.5317 14.6472Z" fill="#164526"/>
<path d="M80.3667 9.71727C80.3667 9.68521 80.3738 9.65315 80.3881 9.62109C80.4273 9.68165 80.4664 9.74577 80.5092 9.80632C80.4629 9.77426 80.4166 9.74577 80.3703 9.71371L80.3667 9.71727Z" fill="#164526"/>
<path d="M84.2422 10.4582C84.3134 10.5579 84.3811 10.6541 84.4523 10.7538C84.3811 10.761 84.3134 10.7717 84.2422 10.7788V10.4582Z" fill="#164526"/>
<path d="M80.2847 9.41095H80.3702C80.3702 9.45013 80.3702 9.48932 80.3666 9.5285C80.3381 9.48932 80.3132 9.45013 80.2847 9.41095Z" fill="#164526"/>
<path d="M71.2512 10.7752L71.2405 10.9569C71.1052 10.8678 70.9698 10.7788 70.8345 10.6862L70.7383 10.4475C70.9093 10.5579 71.0802 10.6648 71.2548 10.7717L71.2512 10.7752Z" fill="#164526"/>
<path d="M86.3365 9.74222C86.5502 9.68879 86.7675 9.63536 86.9812 9.57837C87.081 9.65673 87.1807 9.7351 87.2804 9.8099C86.9314 9.94882 86.5787 10.0877 86.2261 10.2302C86.2617 10.0664 86.3009 9.90608 86.3365 9.74222Z" fill="#164526"/>
<path d="M88.4346 8.89797C88.4025 8.93003 88.3705 8.96209 88.3349 8.99415L88.2529 8.80536C88.3135 8.83742 88.374 8.86591 88.4346 8.89797Z" fill="#164526"/>
<path d="M90.3154 9.07966C90.2834 9.09391 90.2549 9.10104 90.2192 9.10104C90.1979 9.03692 90.1801 8.9728 90.1587 8.90868C90.1872 8.898 90.2121 8.89087 90.2406 8.88019C90.2656 8.94787 90.2905 9.01198 90.3154 9.07966Z" fill="#164526"/>
<path d="M85.0791 10.5473C85.1931 10.1483 85.446 10.2302 85.7131 10.3656C85.503 10.4262 85.2928 10.4867 85.0791 10.5473Z" fill="#164526"/>
<path d="M92.5024 5.95929C92.5416 5.98779 92.5772 6.01628 92.6164 6.04122C92.5772 6.01272 92.5416 5.98422 92.5024 5.95929Z" fill="#164526"/>
<path d="M65.292 8.80181C65.3241 8.78756 65.3597 8.78044 65.3917 8.77332C65.3597 8.784 65.3241 8.79113 65.292 8.80181Z" fill="#164526"/>
<path d="M74.1934 42.05C74.1934 42.0215 74.1934 41.9966 74.1969 41.9681C74.2076 41.9895 74.2219 42.0144 74.2325 42.0358C74.2183 42.0393 74.2076 42.0464 74.1934 42.05Z" fill="#164526"/>
<path d="M72.2132 11.0851C71.9746 11.053 71.7395 11.021 71.5044 10.9854C71.5471 10.9854 71.5863 10.9854 71.6255 10.9925C71.6398 10.6968 71.654 10.4012 71.6647 10.1055C71.6896 10.0521 71.7146 9.99868 71.7395 9.94525C71.8214 10.0129 71.8998 10.0806 71.9817 10.1483C72.0245 10.3228 72.0708 10.4974 72.1135 10.6719C72.1384 10.7111 72.1634 10.7538 72.1919 10.793C72.199 10.8928 72.2061 10.9889 72.2097 11.0887L72.2132 11.0851Z" fill="#164526"/>
<path d="M72.7224 11.6123C72.6511 11.5803 72.5799 11.5482 72.5122 11.5126C72.5834 11.5446 72.6547 11.5767 72.7224 11.6123Z" fill="#164526"/>
<path d="M72.0742 8.55963H72.117L72.0992 8.59525L72.0742 8.55963Z" fill="#164526"/>
<path d="M72.1956 10.793C72.1706 10.7538 72.1457 10.7111 72.1172 10.6719C72.1421 10.7111 72.1671 10.7538 72.1956 10.793Z" fill="#164526"/>
<path d="M83.9287 9.49994C84.0356 9.57118 84.1424 9.64242 84.2457 9.71366C84.1389 9.64242 84.032 9.57118 83.9287 9.49994Z" fill="#164526"/>
<path d="M84.3491 9.74225C84.3883 9.77074 84.4275 9.79568 84.4702 9.82418C84.431 9.79568 84.3919 9.77074 84.3491 9.74225Z" fill="#164526"/>
<path d="M71.622 10.9854L71.6113 11.2312C71.4546 11.0923 71.2978 10.9498 71.1411 10.8108C71.1803 10.7966 71.2195 10.7859 71.2587 10.7717C71.3798 10.8429 71.5009 10.9141 71.6184 10.989L71.622 10.9854Z" fill="#164526"/>
</svg>
