<svg width="914" height="576" viewBox="0 0 914 576" fill="none" xmlns="http://www.w3.org/2000/svg">
<path d="M74.4429 54.5445C75.8577 53.9103 77.2726 53.3248 78.6386 52.6906C85.2737 55.7642 89.7622 54.4957 93.0798 48.5924C92.9822 47.6167 92.8846 46.6897 92.787 45.714C94.7873 44.2991 96.8364 42.8843 98.8367 41.4695C99.2758 41.3719 99.7149 41.2743 100.154 41.1279C101.862 41.5182 103.569 42.2988 105.228 42.2013C107.033 42.1037 109.472 40.1522 110.448 40.7864C118.547 46.1043 127.085 40.2498 135.281 41.9573C136.94 42.2988 140.111 41.0791 140.55 39.8107C141.087 38.2983 139.477 36.054 138.794 34.1025C140.257 32.6389 141.721 31.1753 143.185 29.7116C145.185 30.1507 147.185 30.5898 149.185 31.0289C149.673 28.7359 150.112 26.3941 150.6 24.1011C149.917 18.7832 152.454 16.7341 157.528 17.1732C159.772 18.149 162.017 19.6614 164.358 19.9541C168.31 20.3932 172.311 19.759 176.311 20.0517C185.971 20.8323 186.069 20.8323 186.166 10.9284C187.093 9.56237 188.069 8.19632 188.996 6.83026C189.972 6.43996 190.948 6.09845 191.923 5.70815C192.411 5.70815 192.899 5.70815 193.387 5.65936C194.899 5.65936 196.461 5.65936 197.973 5.65936C198.851 5.70815 199.681 5.75694 200.559 5.85451C202.12 6.58632 203.632 7.26935 205.194 8.00116L205.73 8.19632L206.267 8.00116C208.17 7.65965 210.121 7.31814 212.024 7.02541C214.854 6.09845 217.732 5.22027 220.562 4.29331C226.416 10.1966 239.784 10.1966 247.736 4.29331C249.151 3.65907 250.615 3.07362 252.03 2.43938C252.81 12.392 260.714 3.12241 264.129 8.44025C264.568 5.07391 264.812 3.26877 265.056 1.46363H267.934C269.788 3.21998 272.277 6.73269 273.447 6.34239C277.497 4.97633 281.058 2.24423 284.864 0C285.986 0.0975752 287.108 0.19515 288.23 0.341513C288.669 0.536663 289.059 0.780601 289.499 0.975752L290.962 1.46363C291.596 8.78177 292.328 9.46479 296.719 6.78147L313.892 7.17178C317.649 8.78177 321.406 10.4405 325.162 12.0505C325.699 12.7336 326.284 13.3678 326.87 14.002C326.675 15.9048 326.138 17.8075 326.333 19.6614C327.26 28.8335 336.383 34.005 344.043 29.8092C347.849 28.7847 351.654 27.8089 355.459 26.7844L356.142 26.9795L356.825 26.882C357.948 36.6883 363.656 27.9065 367.12 30.4435C366.339 27.5162 365.851 25.7111 365.412 23.9059C366.388 23.6132 367.412 23.2717 368.388 22.979C373.608 30.9313 381.707 31.3704 390.05 31.2728C391.904 31.7119 393.806 32.1022 395.66 32.4925C397.075 32.6877 398.539 32.834 399.954 32.9804C400.442 34.3465 400.929 35.6637 401.612 37.1761C401.417 37.0298 401.027 36.7371 400.637 36.4931C399.661 37.8592 398.685 39.2252 397.709 40.5425C398.246 40.9328 398.832 41.2743 399.368 41.6646C400.198 40.201 401.027 38.7373 401.612 37.1761C410.443 43.421 419.469 44.4943 428.397 35.2246C431.129 42.1037 428.592 51.0318 438.447 51.4221C439.96 52.4467 441.472 53.4712 442.984 54.4957C444.546 55.3739 446.156 56.9351 447.717 56.9351C454.693 56.9351 455.328 61.5211 455.864 66.8878C456.645 74.3035 458.06 81.6216 459.231 88.9886C460.109 89.2325 461.036 89.5252 461.914 89.7692C463.865 87.5737 465.817 85.4271 467.768 83.2316C469.915 84.1098 472.111 85.0368 474.257 85.9149C474.794 86.2565 475.331 86.6468 475.916 86.9883C478.355 90.3546 480.746 93.7697 483.185 97.1361C481.478 101.283 480.112 105.576 477.916 109.479C475.526 113.724 476.55 116.505 480.404 118.847C476.55 123.237 471.818 125.287 465.914 124.311C465.28 122.896 464.646 121.53 464.061 120.115C459.084 122.359 456.45 119.334 453.425 116.017C452.254 114.748 448.985 114.895 446.741 115.09C441.569 115.529 436.398 117.041 431.275 116.895C421.762 116.651 412.297 115.383 402.783 114.992C401.417 114.944 399.905 117.334 398.49 118.603C396.099 118.603 393.709 118.603 391.318 118.603L388.733 115.871C388.196 117.237 387.61 118.651 387.025 120.017C385.122 120.017 383.22 120.017 381.268 120.017C380.975 115.627 378.487 114.992 374.535 115.139C369.754 115.285 368.534 117.871 368.388 121.871C367.949 122.798 367.461 123.677 367.022 124.555C363.509 125.238 360.045 126.018 356.533 126.653C352.142 127.433 347.702 128.019 343.311 128.702C342.97 128.263 342.628 127.872 342.287 127.433C341.896 127.043 341.555 126.653 341.165 126.311C339.701 126.116 338.286 125.97 336.823 125.774C334.871 123.872 332.968 122.018 331.017 120.115C331.505 119.676 331.993 119.188 332.48 118.7C333.017 118.7 333.603 118.7 334.139 118.7C333.7 118.261 333.261 117.822 332.822 117.334C331.749 116.797 330.675 116.212 329.602 115.675C329.065 115.285 328.577 114.895 328.041 114.553C324.479 114.553 320.918 114.553 317.356 114.504C313.063 114.407 308.672 113.968 306.379 118.798C306.086 119.774 305.745 120.749 305.452 121.774C305.452 122.408 305.452 123.042 305.452 123.725C303.988 125.482 302.525 127.189 301.11 128.946C299.159 128.946 297.158 128.946 295.207 128.897C293.841 127.14 292.523 125.433 291.157 123.677L288.035 123.237C287.742 121.384 287.498 119.481 287.254 117.627C286.523 117.383 285.791 117.139 285.059 116.895C282.912 120.359 280.766 123.774 278.619 127.238C277.497 127.823 276.375 128.409 275.253 128.946C271.545 127.384 268.081 126.701 266.52 131.775C266.568 133.727 266.666 135.678 266.764 137.581C264.714 140.411 262.617 143.24 260.568 146.119H257.933C257.396 146.119 256.811 146.119 256.274 146.07C257.396 142.265 258.518 138.459 259.592 134.654C263.153 133.336 263.983 131.531 260.714 128.897C260.275 127.384 259.787 125.872 259.348 124.36C259.397 123.677 259.738 122.847 259.543 122.31C258.762 120.457 257.835 118.651 256.957 116.846C255.884 118.554 254.664 120.164 253.737 121.969C253.347 122.701 253.688 123.823 253.688 124.75C253.688 125.189 253.591 125.628 253.396 126.067C250.078 125.628 246.809 125.14 243.492 124.652C241.15 123.14 238.808 121.579 236.418 120.066C234.32 112.651 229.734 111.821 222.074 117.432H220.659C220.171 117.432 219.732 117.432 219.244 117.432C218.513 115.919 217.781 114.456 217 112.943C216.415 113.285 215.829 113.675 215.244 114.017C216.073 115.187 216.903 116.358 217.781 117.529C216.268 120.408 214.805 123.286 213.341 126.116C210.511 124.262 207.682 122.408 204.803 120.554C204.462 119.334 204.072 118.115 203.73 116.895C203.145 117.578 202.559 118.261 201.974 118.944L200.51 119.091C198.607 118.164 196.705 117.188 194.802 116.261C193.387 115.627 191.972 115.041 190.557 114.407C190.557 114.017 190.46 113.675 190.411 113.334C190.996 110.699 195.339 107.333 189.045 105.967C188.118 107.821 187.142 109.626 186.215 111.48C184.8 111.577 183.337 111.724 181.922 111.821C180.946 112.211 179.97 112.553 178.995 112.943C178.458 113.48 177.921 114.065 177.336 114.602C175.433 114.602 173.53 114.602 171.677 114.651C166.603 115.09 160.651 112.504 157.333 118.895C154.601 118.554 151.869 118.164 149.137 117.822C149.625 117.627 150.112 117.481 150.6 117.334C150.6 117.334 150.552 117.334 150.503 117.334C149.576 117.285 148.698 117.188 147.771 117.139C146.746 117.285 145.673 117.383 144.648 117.529C142.648 119.578 140.599 121.579 137.867 124.408C129.475 122.262 119.815 119.725 110.204 117.285C107.814 116.846 105.423 116.407 103.081 116.017H103.032C103.52 117.432 104.008 118.798 104.496 120.115C102.593 119.725 100.691 119.334 98.7391 118.944C95.8606 111.089 88.7377 115.871 83.8101 114.261C82.688 113.919 80.4438 117.09 78.6874 118.651C77.2726 119.188 75.8577 119.725 74.4429 120.213C73.4184 119.822 72.4426 119.481 71.4669 119.091L71.662 118.554C70.2472 114.456 68.4908 111.431 64.2951 116.261C63.3681 116.261 62.4899 116.261 61.563 116.212C56.7818 115.675 52.0494 115.041 47.2682 114.602C43.5604 114.261 39.267 115.139 38.9743 109.382C38.6816 103.235 38.1937 97.1361 37.9986 90.9889C37.6083 81.1338 38.6816 79.8653 48.6343 76.255C50.293 75.6208 51.6103 74.0108 53.0251 72.7911C53.513 72.8887 53.9521 73.035 54.3424 73.279C56.0012 74.4499 57.66 75.6695 59.3675 76.8405C60.1481 75.1817 60.8799 73.5229 61.8069 71.9617C64.0999 68.0099 66.2954 64.0093 68.8811 60.2527C70.3935 58.106 72.5402 56.4472 74.4429 54.5933V54.5445ZM264.178 121.091C268.959 122.554 271.594 123.335 275.35 124.457C274.911 121.188 274.618 119.09 274.179 115.919C270.813 117.627 268.52 118.847 264.178 121.042V121.091ZM200.071 110.943C199.29 110.114 198.754 109.431 198.119 108.943C198.022 108.894 196.851 109.821 196.9 110.114C197.144 110.894 197.68 111.577 198.266 112.114C198.363 112.211 199.193 111.528 200.071 110.943ZM243.297 118.212C244.077 117.724 244.614 117.383 245.151 117.041C244.712 116.456 244.272 115.822 243.882 115.236C243.394 115.627 242.614 115.919 242.467 116.456C242.321 116.895 242.955 117.481 243.346 118.212H243.297Z" fill="#164526"/>
<path d="M188.947 470.264C189.582 467.385 190.216 464.555 190.85 461.677C191.679 460.701 192.509 459.725 193.289 458.75C198.802 453.822 195.631 451.139 190.801 448.748V434.405C193.045 435.966 195.338 437.576 198.754 439.966C198.51 435.819 198.363 432.99 198.168 429.721C195.339 429.867 193.045 429.965 190.801 430.111V414.353C197.485 411.328 198.754 405.425 197.973 399.131C197.729 397.326 194.851 395.814 193.192 394.204C193.826 392.301 194.46 390.447 195.143 388.544V385.666C194.655 383.763 194.168 381.86 193.729 379.909C200.461 377.079 202.169 364.541 196.656 358.394C196.656 357.906 196.656 357.418 196.656 356.93C200.168 354.539 202.51 352.002 198.022 348.343C197.973 345.514 197.68 342.586 197.875 339.806C198.656 328.78 199.583 317.802 200.461 306.776C200.998 303.898 201.486 301.019 202.022 298.141C204.608 296.092 207.243 293.994 211.341 290.725C207.389 290.091 205.633 289.847 203.876 289.554C203.681 288.579 203.535 287.652 203.34 286.676L205.194 278.089C206.95 276.528 208.658 274.967 210.414 273.406L205.194 268.039V250.866C207.145 249.841 209.097 248.817 211.048 247.792C209.926 245.938 208.755 244.084 207.633 242.182C207.779 240.767 207.926 239.352 208.072 237.937V233.644C208.658 231.4 209.243 229.107 209.584 227.692C206.267 224.13 203.437 221.105 200.559 218.081L204.998 210.567C207.487 209.64 209.975 208.762 212.463 207.835C212.853 207.347 213.195 206.859 213.585 206.371C214.171 204.469 214.756 202.566 215.341 200.663C215.683 200.127 216.024 199.639 216.415 199.151C219.391 194.662 214.805 192.126 213.829 188.613C216.171 187.539 218.464 186.417 220.806 185.344L222.22 184.954C224.611 182.563 227.002 180.173 229.392 177.782C227.929 177.782 226.416 177.782 224.953 177.782C225.88 175.879 226.806 173.928 227.733 172.025L232.515 170.025C231.539 168.805 230.612 167.585 229.636 166.366C230.953 160.218 232.319 154.022 233.637 147.875C235.539 145.143 237.393 142.411 239.247 139.63C240.565 137.63 241.833 135.63 243.15 133.629L243.589 133.336C245.102 134.361 246.614 135.386 248.127 136.41L244.907 143.387C243.004 145.192 241.052 146.997 238.369 149.534C240.906 150.022 242.175 150.315 243.443 150.558C243.98 151.144 244.565 151.729 245.151 152.315C244.955 157.389 248.712 158.316 252.518 159.194C252.518 160.121 252.518 161.048 252.469 161.975C249.932 163.048 247.346 164.073 244.809 165.146C251.395 163.975 252.42 167.488 252.322 172.269C247.053 177.392 241.784 182.514 236.564 187.637C235.686 188.223 234.808 188.808 233.929 189.345C233.442 190.272 232.954 191.247 232.417 192.174C231.002 195.004 229.587 197.882 228.221 200.761C225.88 200.956 223.489 201.151 221.147 201.346C221.147 201.883 221.098 202.468 221.05 203.054C222.952 203.737 224.855 204.42 226.709 205.103C226.709 206.518 226.806 207.933 226.855 209.348C226.563 213.153 226.075 216.958 225.977 220.813C225.928 223.594 226.758 226.472 226.416 229.204C225.148 238.864 223.538 248.475 222.074 258.135V288.286C221.05 295.458 220.074 302.629 219.049 309.801C210.902 311.46 215.146 316.046 216.659 319.998C215.683 327.657 213.829 335.366 213.878 343.025C214.073 399.18 214.707 455.383 215.195 511.538C215.195 512.709 214.951 514.075 215.39 515.051C217.781 520.222 214.658 520.661 210.853 520.661C201.339 520.661 191.777 520.661 182.263 520.661C182.166 519.246 182.068 517.831 181.971 516.368C184.069 503.439 186.118 490.559 188.216 477.63C188.655 477.045 189.094 476.46 189.533 475.923C189.386 474.118 189.289 472.313 189.142 470.459H189.094L188.947 470.264Z" fill="#164526"/>
<path d="M252.226 172.171C252.324 167.39 251.299 163.877 244.713 165.048C247.25 163.975 249.836 162.951 252.373 161.877C253.885 162.024 255.739 162.755 256.812 162.17C265.643 157.34 274.717 152.803 282.865 147.046C286.914 144.216 289.305 138.947 292.525 134.849C293.159 134.068 294.281 133.678 295.208 133.093C295.842 133.532 296.477 133.922 297.111 134.361C296.574 133.532 296.037 132.653 295.452 131.824C295.257 131.434 295.159 130.995 295.159 130.556C295.159 130.019 295.159 129.482 295.208 128.946C297.16 128.946 299.16 128.946 301.111 128.994C303.063 137.239 306.966 130.897 310.088 130.165C313.503 129.873 316.919 129.58 322.236 129.141C310.283 136.264 299.794 142.557 289.305 148.802C289.646 149.875 289.988 150.949 290.329 152.022C296.33 151.729 302.429 152.022 308.283 151.046C321.114 148.802 333.848 145.875 346.63 143.24C347.167 143.24 347.703 143.289 348.289 143.289V147.68C347.362 148.217 346.435 148.705 345.508 149.241C344.044 149.729 342.581 150.217 341.117 150.705C331.067 152.608 321.017 154.51 311.015 156.413L293.793 157.828C292.378 158.316 290.915 158.804 289.5 159.243C287.109 159.243 284.719 159.291 282.328 159.34C277.547 161.243 272.766 163.097 267.985 165C267.448 165.292 266.96 165.634 266.423 165.975C265.496 166.463 264.521 167 263.594 167.488C260.764 168.805 257.934 170.073 255.056 171.391L253.641 172.171C253.202 172.415 252.714 172.61 252.275 172.854C252.373 172.562 252.324 172.318 252.08 172.171H252.226Z" fill="#164526"/>
<path d="M204.996 210.47L200.557 217.983C197.922 215.153 195.239 212.275 192.604 209.445C190.994 207.884 189.384 206.323 187.774 204.761C186.262 202.81 184.701 200.858 183.14 198.907C180.408 196.126 177.675 193.296 174.943 190.516C173.041 189.052 171.138 187.637 169.284 186.173C168.65 184.759 168.015 183.344 167.381 181.929C165.186 177.099 162.942 172.269 160.746 167.488C160.112 166.073 159.478 164.707 158.795 163.292L157.77 160.365C157.624 158.95 157.526 157.535 157.38 156.12C157.038 155.145 156.697 154.169 156.355 153.193C155.867 152.266 155.379 151.339 154.843 150.412C152.794 146.899 150.793 143.387 148.744 139.825C145.037 138.069 141.377 136.313 137.67 134.556C137.133 134.02 136.645 133.434 136.108 132.897C136.108 131.97 136.108 131.092 136.108 130.165C141.182 131.97 146.305 133.727 153.623 136.313C149.525 130.409 145.866 125.774 150.354 120.457C150.159 119.627 150.013 118.749 149.818 117.92L149.476 118.115L149.183 117.822L157.429 118.895C157.136 127.531 157.77 135.971 163.332 143.143L164.649 146.412C161.234 145.729 159.331 146.509 161.088 150.363C164.161 157.34 166.162 165.244 170.748 171.098C181.481 184.759 193.483 197.443 204.948 210.518L204.996 210.47Z" fill="#164526"/>
<path d="M398.538 118.603C399.953 117.334 401.466 114.944 402.832 114.992C412.345 115.383 421.81 116.651 431.324 116.895C436.446 117.041 441.618 115.529 446.789 115.09C449.033 114.895 452.302 114.7 453.473 116.017C456.498 119.383 459.132 122.359 464.109 120.115C464.743 121.53 465.377 122.896 465.963 124.311C461.816 124.36 457.62 124.799 453.522 124.408C451.375 124.213 449.424 122.457 447.375 121.432H443.033C441.13 122.115 439.227 122.701 437.276 123.384C435.373 123.677 433.47 124.018 431.519 124.311C431.177 123.384 430.836 122.506 430.494 121.579C430.104 121.725 429.762 121.823 429.372 121.969C429.665 122.847 429.909 123.725 430.201 124.603C427.274 125.628 424.396 126.653 421.468 127.677C420.493 128.165 419.566 128.653 418.59 129.092C417.078 129.482 415.614 129.824 414.102 130.214C411.857 131.092 409.613 131.922 407.369 132.8V132.995C406.783 131.726 406.198 130.507 405.612 129.238C410.54 127.482 415.516 125.774 420.444 124.067C420.444 123.725 420.395 123.335 420.346 122.993C415.468 122.652 410.638 122.262 405.759 121.92C404.929 121.481 404.1 121.091 403.271 120.652L404.393 123.237C404.295 123.628 404.198 124.018 404.198 124.457C402.783 125.579 401.417 126.75 400.002 127.872C399.075 128.506 398.148 129.141 397.27 129.726C395.757 131.336 394.245 132.946 392.781 134.507L389.952 134.41C388.586 133.336 387.22 132.263 385.854 131.239C390.098 127.043 394.294 122.847 398.538 118.603Z" fill="#164526"/>
<path d="M53.0253 72.7423C51.5617 73.9132 50.2932 75.572 48.6344 76.2062C38.6817 79.8653 37.6572 81.1338 37.9987 90.9401C38.2426 97.0873 38.6817 103.235 38.9745 109.333C39.2672 115.09 43.5605 114.212 47.2683 114.553C52.0495 114.992 56.7819 115.627 61.5631 116.163C61.5631 116.602 61.4655 117.041 61.2704 117.432C60.3922 118.31 59.514 119.188 58.6359 120.017C55.4159 119.627 52.1471 118.603 49.0247 118.993C40.9748 119.969 35.6081 116.456 31.4124 110.162C30.9245 109.138 29.7536 107.772 30.0463 107.089C33.3639 99.1852 28.1924 90.8913 31.4612 83.0365C34.3396 79.2799 37.1693 75.4744 40.0478 71.7178C40.9748 71.2299 41.9505 70.6932 42.8775 70.2054C44.7802 69.7663 46.7317 69.2784 48.6344 68.7905C50.098 70.1078 51.5129 71.4251 52.9765 72.7423H53.0253Z" fill="#164526"/>
<path d="M401.419 37.1273C400.931 35.7613 400.443 34.444 400.004 33.078C400.492 32.9316 400.98 32.7365 401.419 32.5901C402.834 33.0292 404.297 33.5171 405.712 34.0049C406.151 34.1513 406.639 34.2977 407.127 34.444C410.152 34.5416 413.177 34.7855 416.201 34.7367C422.251 34.688 428.349 34.4928 434.399 34.3464L437.18 43.177C437.619 45.9579 438.058 48.7388 438.497 51.5197C428.642 51.1294 431.179 42.25 428.447 35.3222C419.519 44.5918 410.493 43.5185 401.419 37.1273Z" fill="#164526"/>
<path d="M138.843 34.2001C139.526 36.1516 141.136 38.3958 140.599 39.9082C140.16 41.1279 136.989 42.3964 135.33 42.0549C127.134 40.3473 118.596 46.2018 110.497 40.884C109.522 40.2497 107.082 42.2012 105.277 42.2988C103.618 42.3964 101.862 41.6158 100.203 41.2255C102.643 39.9082 105.033 38.591 107.472 37.2249C108.399 37.1273 109.375 37.0298 110.302 36.8834C119.816 35.9564 129.964 41.7621 138.843 34.2001Z" fill="#164526"/>
<path d="M467.816 83.2804C465.865 85.4758 463.913 87.6225 461.962 89.8179C461.084 89.574 460.157 89.2813 459.278 89.0373C458.108 81.6704 456.693 74.3523 455.912 66.9365C455.375 61.5699 454.741 57.0327 447.765 56.9839C446.155 56.9839 444.593 55.3739 443.032 54.5445L455.717 55.6666L456.01 55.9593C459.181 60.1063 461.913 64.1556 459.181 69.9126C458.547 71.2298 460.742 73.8644 461.62 75.8647L461.913 78.6943C461.718 79.0846 461.62 79.5237 461.62 79.9628C461.62 80.5483 461.62 81.1337 461.62 81.7192L461.523 81.6216C462.059 82.0119 462.547 82.4022 463.084 82.7437C464.694 82.9389 466.255 83.0852 467.865 83.2804H467.816Z" fill="#164526"/>
<path d="M74.4423 54.5445C72.5396 56.4472 70.3929 58.0572 68.8805 60.2039C66.2948 63.9605 64.0993 67.9611 61.8063 71.9129C60.8793 73.4741 60.1475 75.1816 59.3669 76.7916C57.7081 75.6207 56.0494 74.401 54.3418 73.2301C55.2688 71.4738 56.1469 69.7174 57.0251 67.9611C58.5375 64.3996 60.0987 60.7893 61.6111 57.2278C62.5381 56.7887 63.4651 56.3496 64.392 55.9105C66.2948 55.7642 68.1975 55.6666 70.0514 55.5202C71.4662 55.2275 72.9299 54.886 74.3447 54.5445H74.4423Z" fill="#164526"/>
<path d="M247.884 4.3421C239.931 10.2942 226.563 10.2942 220.709 4.3421C224.075 3.80544 227.442 3.21999 230.759 2.68332C232.174 2.09787 233.589 1.51242 235.053 0.926971C237.443 0.926971 239.834 0.926971 242.224 0.926971C242.663 1.07333 243.151 1.17091 243.59 1.26848C244.517 1.75636 245.444 2.24424 246.371 2.73211C246.908 3.12241 247.493 3.46393 248.03 3.85423L247.884 4.3421Z" fill="#164526"/>
<path d="M120.352 127.384C115.083 124.945 109.814 122.506 104.545 120.066C104.057 118.7 103.569 117.383 103.082 116.017H103.13C105.521 116.358 107.912 116.797 110.253 117.237C110.058 117.383 109.814 117.529 109.765 117.724C109.717 117.871 109.765 118.261 109.863 118.31C118.596 122.31 127.378 126.262 136.111 130.214C136.111 131.141 136.111 132.019 136.111 132.946C134.208 132.556 132.354 132.166 130.5 131.726C127.134 130.263 123.767 128.848 120.352 127.384Z" fill="#164526"/>
<path d="M157.626 17.2708C162.407 16.6365 167.188 16.0023 171.969 15.3681C173.384 15.3681 174.848 15.3681 176.263 15.3193C178.165 14.4899 180.117 13.6605 182.02 12.8311L184.898 11.3675C185.337 11.2699 185.776 11.1723 186.215 11.026C186.118 20.9298 186.02 20.9299 176.36 20.1492C172.409 19.8565 168.359 20.4908 164.407 20.0517C162.066 19.7589 159.87 18.2465 157.577 17.2708H157.626Z" fill="#164526"/>
<path d="M344.094 29.858C336.385 34.0538 327.262 28.9311 326.384 19.7102C326.189 17.8563 326.725 15.9536 326.921 14.0508C327.36 14.1972 327.799 14.2948 328.189 14.3436C331.019 21.8081 336.19 26.6868 343.996 28.6383C343.996 29.0286 344.045 29.4189 344.094 29.8092V29.858Z" fill="#164526"/>
<path d="M93.0808 48.6412C89.7632 54.5445 85.2748 55.813 78.6396 52.7394C78.7372 51.8612 78.8348 50.983 78.9324 50.1049C81.1278 46.3482 83.6648 43.177 88.7387 44.3479C89.2753 45.2749 89.8608 46.2018 90.4462 47.1288C91.3244 47.6167 92.2026 48.1533 93.0808 48.6412Z" fill="#164526"/>
<path d="M483.233 97.2336C483.818 98.6972 484.355 100.21 484.94 101.673C484.94 102.161 484.891 102.6 484.891 103.088C484.696 104.991 484.55 106.845 484.403 108.747C478.5 112.553 486.599 113.334 485.965 115.968C484.55 116.895 483.135 117.822 481.72 118.749C481.281 118.798 480.891 118.895 480.452 118.944C476.646 116.602 475.622 113.821 477.963 109.577C480.11 105.723 481.476 101.381 483.233 97.2336Z" fill="#164526"/>
<path d="M88.7861 120.554H87.3225C85.4197 120.115 83.517 119.627 81.6143 119.139C80.6386 118.944 79.7116 118.749 78.7358 118.603C80.4922 117.041 82.7364 113.87 83.8585 114.212C88.8349 115.773 95.9091 110.992 98.7875 118.895C95.9091 119.334 93.0306 119.725 90.1521 120.164C89.6643 120.213 89.2252 120.359 88.7861 120.554Z" fill="#164526"/>
<path d="M265.152 1.46365C264.908 3.26879 264.664 5.07394 264.225 8.44028C260.859 3.12243 252.955 12.3921 252.126 2.43941C252.126 2.04911 252.175 1.70759 252.224 1.31729C256.517 1.31729 260.81 1.36608 265.103 1.41487L265.152 1.46365Z" fill="#164526"/>
<path d="M284.911 0.0487671C281.154 2.24421 277.544 4.97631 273.494 6.39115C272.372 6.78145 269.884 3.21996 267.981 1.51239C268.469 1.36603 268.957 1.21967 269.396 1.02452C271.299 1.02452 273.202 1.02452 275.153 1.02452C278.373 0.731793 281.642 0.439068 284.862 0.0975547L284.911 0.0487671Z" fill="#164526"/>
<path d="M204.659 273.796L205.147 268.039L210.367 273.406C208.611 274.967 206.903 276.528 205.147 278.089C204.952 277.601 204.806 277.113 204.659 276.674V273.796Z" fill="#164526"/>
<path d="M313.939 7.22057C317.159 3.51272 320.428 3.36635 323.843 7.02542C323.941 7.95239 324.039 8.83056 324.136 9.75753C324.478 10.4406 324.868 11.1724 325.209 11.8554V12.0993C321.502 10.4893 317.745 8.83056 313.988 7.22057H313.939Z" fill="#164526"/>
<path d="M203.877 289.554C205.634 289.847 207.341 290.091 211.342 290.725C207.195 293.994 204.609 296.092 202.023 298.141C202.658 295.311 203.292 292.433 203.926 289.554H203.877Z" fill="#164526"/>
<path d="M146.21 27.2235C147.723 26.199 149.187 25.2232 150.699 24.1987C150.211 26.4917 149.772 28.8335 149.284 31.1265C147.284 30.6874 145.283 30.2483 143.283 29.8092C143.283 29.4189 143.381 29.0286 143.43 28.6871C144.357 28.1993 145.332 27.7114 146.259 27.2235H146.21Z" fill="#164526"/>
<path d="M228.078 200.615C227.98 202.029 227.834 203.444 227.737 204.859C227.346 204.859 226.956 204.859 226.566 204.957C224.663 204.274 222.76 203.591 220.906 202.908C220.906 202.371 220.955 201.785 221.004 201.2C223.346 201.005 225.736 200.81 228.078 200.615Z" fill="#164526"/>
<path d="M292.375 1.41486C293.838 3.22 295.302 5.02514 296.766 6.83028C292.375 9.5136 291.643 8.78179 291.009 1.51244C291.448 1.2685 291.936 1.2685 292.375 1.46365V1.41486Z" fill="#164526"/>
<path d="M48.6837 68.7905C46.781 69.2296 44.8295 69.7175 42.9268 70.2054C44.8295 69.7663 46.781 69.2784 48.6837 68.7905Z" fill="#164526"/>
<path d="M233.54 191.784C233.101 191.882 232.711 191.979 232.32 192.028C232.808 191.101 233.296 190.125 233.833 189.198L233.589 191.784H233.54Z" fill="#164526"/>
<path d="M461.328 45.5188H461.915L461.67 46.0075L461.328 45.5188Z" fill="#164526"/>
<path d="M407.37 132.995V132.8C407.809 132.897 408.248 132.995 408.931 133.093C408.248 133.044 407.76 132.995 407.321 132.946L407.37 132.995Z" fill="#164526"/>
<path d="M346.726 143.192C350.043 141.386 353.361 139.63 357.849 137.142C354.873 135.971 353.166 135.239 351.458 134.556C350.921 134.166 350.385 133.824 349.799 133.434L348.384 133.044C346.921 132.068 345.457 131.092 344.042 130.116C343.847 129.629 343.603 129.19 343.359 128.702C347.75 128.019 352.19 127.384 356.581 126.653C360.094 126.067 363.557 125.238 367.07 124.555C370.388 127.531 373.705 130.458 376.974 133.434C376.486 135.678 375.949 137.874 375.462 140.118L375.608 140.606C375.023 140.947 374.437 141.338 373.852 141.679C372.046 141.728 370.241 141.826 368.387 141.874C364.728 140.069 361.264 138.898 359.703 144.362C356.825 145.289 353.946 146.265 351.117 147.192C350.141 145.826 349.214 144.509 348.238 143.143C347.701 143.143 347.165 143.094 346.579 143.094L346.726 143.192Z" fill="#164526"/>
<path d="M224.954 137.727C223.1 136.166 221.246 134.605 219.344 133.044C217.636 131.239 215.929 129.482 214.221 127.677C213.928 127.14 213.684 126.653 213.392 126.116C214.904 123.237 216.368 120.359 217.831 117.529C218.319 117.529 218.807 117.481 219.295 117.432C219.783 117.432 220.222 117.432 220.71 117.432H222.125C229.784 111.821 234.37 112.651 236.468 120.066C233.248 121.725 229.979 123.384 226.564 125.091C228.174 127.092 229.052 128.165 229.931 129.287C228.272 132.117 226.613 134.947 224.954 137.776V137.727Z" fill="#164526"/>
<path d="M368.435 23.0277C371.703 22.9302 375.509 21.7105 378.192 22.9302C382.534 24.8817 386.144 28.4432 390.096 31.3216C381.802 31.4192 373.655 31.0289 368.435 23.0277Z" fill="#164526"/>
<path d="M176.165 138.41C174.702 130.458 173.238 122.554 171.823 114.602C173.726 114.602 175.629 114.602 177.483 114.553C178.117 121.725 178.751 128.946 179.385 136.117C178.849 137.435 178.361 138.703 177.824 140.02C177.287 139.484 176.751 138.947 176.165 138.41Z" fill="#164526"/>
<path d="M245.104 152.217C248.86 150.168 252.617 148.119 256.374 146.07C256.91 146.07 257.496 146.07 258.033 146.119C258.033 146.655 258.081 147.241 258.13 147.778C256.227 151.534 254.373 155.291 252.471 159.096C248.665 158.218 244.957 157.34 245.104 152.217Z" fill="#164526"/>
<path d="M243.542 133.19C243.542 130.36 243.542 127.482 243.542 124.652C246.859 125.091 250.128 125.579 253.446 126.067C251.641 129.482 249.836 132.897 248.03 136.313C246.518 135.288 245.006 134.263 243.493 133.239L243.542 133.19Z" fill="#164526"/>
<path d="M336.871 125.774C332.285 126.848 327.65 127.921 323.064 128.994C322.771 128.458 322.527 127.97 322.283 127.433C325.21 124.994 328.138 122.603 331.065 120.164C333.016 122.067 334.919 123.921 336.871 125.823V125.774Z" fill="#164526"/>
<path d="M356.92 26.9308C359.75 25.955 362.628 24.9793 365.458 23.9547C365.946 25.7599 366.385 27.565 367.165 30.4923C363.701 27.9065 357.993 36.7371 356.871 26.9308H356.92Z" fill="#164526"/>
<path d="M264.175 121.14C268.517 118.895 270.81 117.724 274.176 116.017C274.615 119.188 274.908 121.286 275.347 124.555C271.591 123.433 268.956 122.603 264.175 121.188V121.14Z" fill="#164526"/>
<path d="M288.133 123.237C285.01 124.555 281.888 125.921 278.717 127.238C280.863 123.774 283.01 120.359 285.157 116.895C285.889 117.139 286.62 117.383 287.352 117.627C287.645 119.481 287.889 121.383 288.133 123.237Z" fill="#164526"/>
<path d="M259.448 124.36L253.74 124.701C253.74 123.774 253.447 122.701 253.789 121.92C254.716 120.115 255.935 118.505 257.009 116.797C257.887 118.603 258.863 120.359 259.594 122.262C259.838 122.847 259.497 123.628 259.399 124.311L259.448 124.36Z" fill="#164526"/>
<path d="M190.559 113.285L186.363 111.431C187.29 109.577 188.266 107.772 189.193 105.918C195.487 107.284 191.144 110.601 190.559 113.236V113.285Z" fill="#164526"/>
<path d="M275.348 128.946C273.397 130.897 271.445 132.8 269.542 134.751L266.615 131.775C268.225 126.701 271.64 127.433 275.348 128.946Z" fill="#164526"/>
<path d="M71.6604 118.554L64.2935 116.261C68.4892 111.48 70.2455 114.456 71.6604 118.554Z" fill="#164526"/>
<path d="M401.855 37.3713C401.026 38.8349 400.196 40.2986 399.367 41.7134C398.83 41.3231 398.245 40.9816 397.708 40.5913C398.684 39.2252 399.66 37.8592 400.635 36.5419C401.026 36.8347 401.416 37.0786 401.855 37.3225V37.3713Z" fill="#164526"/>
<path d="M259.688 134.654C260.079 132.751 260.42 130.8 260.811 128.897C264.079 131.531 263.299 133.336 259.688 134.654Z" fill="#164526"/>
<path d="M219.294 117.383C218.806 117.383 218.318 117.432 217.83 117.481C217.001 116.31 216.171 115.139 215.293 113.968C215.878 113.626 216.464 113.236 217.049 112.894C217.781 114.407 218.513 115.871 219.294 117.383Z" fill="#164526"/>
<path d="M200.069 110.943C199.191 111.48 198.362 112.211 198.264 112.114C197.679 111.528 197.142 110.845 196.898 110.114C196.849 109.87 198.02 108.894 198.118 108.943C198.801 109.431 199.289 110.114 200.069 110.943Z" fill="#164526"/>
<path d="M266.615 131.775L269.542 134.751C268.616 135.678 267.737 136.654 266.859 137.581C266.81 135.629 266.713 133.678 266.615 131.775Z" fill="#164526"/>
<path d="M391.368 118.603C389.953 119.091 388.489 119.578 387.074 120.017C387.611 118.651 388.196 117.237 388.782 115.871L391.368 118.603Z" fill="#164526"/>
<path d="M243.296 118.212C242.906 117.48 242.32 116.846 242.418 116.456C242.564 115.968 243.345 115.627 243.833 115.236C244.272 115.822 244.711 116.456 245.101 117.041C244.565 117.383 243.979 117.724 243.247 118.212H243.296Z" fill="#164526"/>
<path d="M294.136 128.897C293.161 127.14 292.234 125.433 291.258 123.677C292.624 125.433 293.941 127.14 295.307 128.897H294.136Z" fill="#164526"/>
<path d="M204.853 120.505L204.17 120.408L203.487 120.554C202.999 120.017 202.511 119.481 202.023 118.944C202.609 118.261 203.194 117.578 203.78 116.895C204.121 118.115 204.512 119.334 204.853 120.554V120.505Z" fill="#164526"/>
<path d="M306.477 118.847C306.184 119.822 305.843 120.798 305.55 121.823C305.843 120.847 306.184 119.871 306.477 118.847Z" fill="#164526"/>
<path d="M332.531 118.749C332.58 118.31 332.726 117.871 332.922 117.432C333.361 117.871 333.8 118.31 334.239 118.798C333.702 118.798 333.117 118.798 332.58 118.798L332.531 118.749Z" fill="#164526"/>
<path d="M258.08 147.778C258.08 147.241 258.031 146.655 257.982 146.119H260.617C259.739 146.655 258.909 147.241 258.031 147.778H258.08Z" fill="#164526"/>
<path d="M474.305 85.9637C474.841 86.3052 475.378 86.6955 475.963 87.037C475.427 86.6955 474.89 86.3052 474.305 85.9637Z" fill="#164526"/>
<path d="M150.697 117.285C150.697 117.285 150.503 117.43 150.552 117.382C150.648 117.334 150.648 117.334 150.697 117.285Z" fill="#164526"/>
<path d="M329.699 115.724C329.162 115.334 328.674 114.944 328.138 114.602C328.674 114.992 329.162 115.383 329.699 115.724Z" fill="#164526"/>
<path d="M342.334 127.433C341.944 127.043 341.602 126.653 341.212 126.311C341.602 126.701 341.944 127.092 342.334 127.433Z" fill="#164526"/>
<path d="M213.778 188.515C201.386 177.587 188.994 166.707 176.7 155.632C175.334 154.364 174.797 152.168 173.87 150.461C177.09 150.949 180.359 151.388 183.579 151.827C184.945 153.778 186.311 155.73 187.677 157.73C188.653 158.169 189.628 158.608 190.555 159.096C200.606 167.829 210.656 176.562 220.706 185.246C218.364 186.32 216.071 187.442 213.73 188.515H213.778Z" fill="#164526"/>
<path d="M229.931 129.238C233.298 133.824 236.469 138.996 243.104 133.434C241.836 135.434 240.518 137.435 239.201 139.435C237.347 142.216 235.444 144.948 233.59 147.68C230.712 144.362 227.834 141.045 224.955 137.727C226.614 134.898 228.273 132.068 229.931 129.238Z" fill="#164526"/>
<path d="M190.851 414.353C191.631 407.62 192.412 400.936 193.241 394.204C194.9 395.862 197.778 397.326 198.022 399.131C198.852 405.474 197.583 411.328 190.851 414.353Z" fill="#164526"/>
<path d="M193.729 379.909C194.704 372.737 195.68 365.565 196.656 358.394C202.169 364.541 200.51 377.03 193.729 379.909Z" fill="#164526"/>
<path d="M190.851 434.405V430.111C193.144 430.014 195.388 429.867 198.218 429.721C198.413 432.941 198.559 435.819 198.803 439.966C195.339 437.576 193.095 436.015 190.851 434.405Z" fill="#164526"/>
<path d="M205.192 250.817C206.022 247.939 206.802 245.06 207.632 242.133C208.754 243.987 209.925 245.841 211.047 247.743C209.095 248.768 207.144 249.792 205.192 250.817Z" fill="#164526"/>
<path d="M193.293 458.75C192.463 455.432 191.634 452.115 190.805 448.748C195.586 451.09 198.806 453.822 193.293 458.75Z" fill="#164526"/>
<path d="M218.903 309.606C218.123 313.021 217.293 316.387 216.513 319.803C215 315.851 210.804 311.265 218.903 309.606Z" fill="#164526"/>
<path d="M222.125 184.856C223.052 182.466 223.979 180.075 224.857 177.636C226.321 177.636 227.833 177.636 229.297 177.636C226.906 180.026 224.516 182.417 222.125 184.807V184.856Z" fill="#164526"/>
<path d="M196.559 356.979L197.925 348.392C202.413 352.051 200.071 354.637 196.559 356.979Z" fill="#164526"/>
<path d="M244.857 143.24C244.369 145.631 243.881 148.022 243.393 150.412C242.125 150.168 240.856 149.875 238.319 149.388C241.003 146.851 242.954 145.045 244.857 143.24Z" fill="#164526"/>
<path d="M227.685 171.879C228.319 169.976 228.953 168.122 229.587 166.219C230.563 167.439 231.49 168.659 232.466 169.878L227.685 171.879Z" fill="#164526"/>
<path d="M215.341 200.615C215.682 200.078 216.024 199.59 216.414 199.102C216.073 199.639 215.731 200.127 215.341 200.615Z" fill="#164526"/>
<path d="M295.255 133.093C295.255 132.653 295.352 132.214 295.548 131.775C296.084 132.605 296.621 133.483 297.206 134.312C296.572 133.873 295.938 133.483 295.304 133.044L295.255 133.093Z" fill="#164526"/>
<path d="M348.335 143.24C349.311 144.606 350.238 145.924 351.213 147.29C350.238 147.387 349.311 147.534 348.335 147.631V143.24Z" fill="#164526"/>
<path d="M294.134 128.897H295.305C295.305 129.433 295.305 129.97 295.256 130.507C294.866 129.97 294.524 129.433 294.134 128.897Z" fill="#164526"/>
<path d="M170.41 147.582L170.264 150.071C168.41 148.851 166.556 147.631 164.702 146.363L163.385 143.094C165.727 144.606 168.068 146.07 170.459 147.534L170.41 147.582Z" fill="#164526"/>
<path d="M377.023 133.434C379.95 132.702 382.926 131.97 385.854 131.19C387.22 132.263 388.586 133.336 389.952 134.361C385.171 136.264 380.341 138.166 375.511 140.118C375.999 137.874 376.535 135.678 377.023 133.434Z" fill="#164526"/>
<path d="M405.76 121.871C405.321 122.31 404.881 122.75 404.394 123.189L403.271 120.603C404.101 121.042 404.93 121.432 405.76 121.871Z" fill="#164526"/>
<path d="M431.519 124.36C431.08 124.555 430.689 124.652 430.201 124.652C429.909 123.774 429.665 122.896 429.372 122.018C429.762 121.871 430.104 121.774 430.494 121.627C430.836 122.554 431.177 123.433 431.519 124.36Z" fill="#164526"/>
<path d="M359.803 144.46C361.364 138.996 364.828 140.118 368.487 141.972C365.608 142.801 362.73 143.631 359.803 144.46Z" fill="#164526"/>
<path d="M461.475 81.6216C462.011 82.0119 462.499 82.4022 463.036 82.7437C462.499 82.3534 462.011 81.9631 461.475 81.6216Z" fill="#164526"/>
<path d="M88.7881 120.554C89.2272 120.359 89.715 120.261 90.1541 120.164C89.715 120.31 89.2272 120.408 88.7881 120.554Z" fill="#164526"/>
<path d="M210.705 575.938C210.705 575.547 210.705 575.206 210.754 574.815C210.9 575.108 211.095 575.45 211.242 575.742C211.047 575.791 210.9 575.889 210.705 575.938Z" fill="#164526"/>
<path d="M183.579 151.827C180.31 151.388 177.09 150.949 173.87 150.461C174.456 150.461 174.992 150.461 175.529 150.558C175.724 146.509 175.919 142.46 176.066 138.41C176.407 137.679 176.749 136.947 177.09 136.215C178.212 137.142 179.286 138.069 180.408 138.996C180.993 141.386 181.627 143.777 182.213 146.168C182.554 146.704 182.896 147.29 183.286 147.826C183.384 149.192 183.481 150.51 183.53 151.876L183.579 151.827Z" fill="#164526"/>
<path d="M190.557 159.048C189.581 158.608 188.606 158.169 187.679 157.682C188.654 158.121 189.63 158.56 190.557 159.048Z" fill="#164526"/>
<path d="M181.68 117.237H182.266L182.022 117.725L181.68 117.237Z" fill="#164526"/>
<path d="M183.34 147.826C182.998 147.29 182.657 146.704 182.267 146.168C182.608 146.704 182.95 147.29 183.34 147.826Z" fill="#164526"/>
<path d="M344.041 130.116C345.505 131.092 346.968 132.068 348.383 133.044C346.919 132.068 345.456 131.092 344.041 130.116Z" fill="#164526"/>
<path d="M349.802 133.434C350.338 133.824 350.875 134.166 351.461 134.556C350.924 134.166 350.387 133.824 349.802 133.434Z" fill="#164526"/>
<path d="M175.483 150.461L175.336 153.827C173.19 151.925 171.043 149.973 168.896 148.07C169.433 147.875 169.97 147.729 170.506 147.534C172.165 148.509 173.824 149.485 175.434 150.51L175.483 150.461Z" fill="#164526"/>
<path d="M32.1377 279.454C41.8219 279.454 47.7806 282.405 50.0137 288.307L50.3555 290.597C50.3555 292.351 49.3757 294.983 47.416 298.492V298.663C47.416 299.187 48.6693 299.95 51.1758 300.953C54.89 302.867 56.7471 305.704 56.7471 309.464L56.918 310.968C56.918 315.798 52.8734 320.937 44.7842 326.383C41.9359 328.342 31.6478 329.322 13.9199 329.322H9.33984V329.493C9.33984 331.772 8.46257 332.911 6.70801 332.911C5.31803 332.911 4.39518 331.829 3.93945 329.664C3.11914 329.664 2.57227 328.513 2.29883 326.212V325.391C2.29883 324.184 2.8457 322.543 3.93945 320.47V320.299L3.76855 306.866H3.25586L3.11914 307.003C1.70638 306.524 1 305.214 1 303.072C1 300.634 1.86589 298.72 3.59766 297.33V297.159L3.42676 289.947C1.35319 288.056 0.316406 286.415 0.316406 285.025C0.316406 283.499 1.46712 282.621 3.76855 282.393C4.24707 281.528 5.06738 281.095 6.22949 281.095L8.17773 282.086C17.224 280.764 25.2106 279.887 32.1377 279.454ZM8.69043 291.759V297.022H14.2617C31.625 297.022 41.0358 295.815 42.4941 293.399C43.0866 293.399 43.5765 292.522 43.9639 290.767C43.9639 289.127 41.1725 288.307 35.5898 288.307H32.3086C24.8118 288.307 17.1556 289.07 9.33984 290.597C8.9069 290.916 8.69043 291.303 8.69043 291.759ZM8.86133 306.524L8.99805 313.907V317.667L9.16895 320.47H9.33984C27.9336 320.47 38.1647 319.923 40.0332 318.829C47.5755 316.345 51.3467 313.611 51.3467 310.626C51.3467 305.932 46.3109 303.585 36.2393 303.585C20.152 304.815 11.026 305.795 8.86133 306.524ZM112.293 280.035C119.311 280.035 124.997 282.872 129.349 288.546C131.855 292.374 133.109 296.145 133.109 299.859C133.109 309.156 126.227 317.963 112.464 326.28C105.947 329.128 100.421 330.553 95.8869 330.553C88.8459 330.553 83.3202 327.157 79.3098 320.367C77.8286 317.154 77.0083 313.873 76.8488 310.523C76.8488 303.938 80.1301 297.33 86.6926 290.699C91.4777 286.142 97.8238 282.861 105.731 280.855L112.293 280.035ZM83.2404 309.224V311.036C83.2404 315.297 85.9178 318.521 91.2727 320.709C92.7082 321.37 94.6223 321.7 97.0148 321.7H98.3479C103.999 321.7 111.541 318.419 120.975 311.856C124.689 308.461 126.546 305.18 126.546 302.013V300.03C126.546 296.544 125.019 293.923 121.966 292.169C118.935 289.981 115.381 288.888 111.302 288.888C103.76 288.888 95.8869 292.442 87.6838 299.552C84.7216 303.084 83.2404 306.308 83.2404 309.224ZM183.699 278.121C190.056 278.121 195.627 280.525 200.413 285.333C202.053 287.384 202.873 289.731 202.873 292.374C202.873 298.64 198.122 303.072 188.621 305.67L186.98 305.841L174.675 305.02V305.191L202.566 319.786C203.113 320.378 203.546 321.689 203.865 323.717C203.5 326.223 202.406 327.476 200.583 327.476C200.105 327.476 186.057 320.538 158.44 306.661H157.927V306.832L158.098 329.63C158.098 330.837 157.164 331.601 155.295 331.92C153.609 331.92 152.47 331.213 151.877 329.801L152.014 324.879V314.864L151.877 303.38C149.69 302.742 148.596 301.101 148.596 298.458L148.425 296.988C148.425 295.165 149.576 294.071 151.877 293.707V290.255C150.67 289.594 149.849 288.443 149.416 286.803C148.642 285.663 148.254 284.627 148.254 283.692C148.254 282.234 149.565 281.3 152.185 280.89C152.185 280.252 153.062 279.648 154.817 279.078L157.449 280.24C170.095 278.827 178.845 278.121 183.699 278.121ZM157.927 289.434V294.527C157.927 294.869 163.236 295.689 173.855 296.988C179.324 297.535 183.528 297.808 186.467 297.808C191.64 297.808 194.875 296.111 196.174 292.716L196.482 291.383C195.115 288.215 192.004 286.632 187.151 286.632C180.93 286.632 171.189 287.566 157.927 289.434ZM268.844 277.882C271.032 277.882 272.126 279.477 272.126 282.667H272.296C272.296 284.718 271.146 286.085 268.844 286.768L239.313 302.491V302.833C242.389 304.542 255.628 311.104 279.03 322.52C279.577 323.022 279.85 323.842 279.85 324.981C279.144 328.468 277.834 330.211 275.92 330.211L267.716 326.143C244.064 314.545 232.078 308.746 231.759 308.746L231.93 326.28V327.613C231.93 329.687 230.893 330.724 228.82 330.724H228.478C227.134 330.724 226.211 330.017 225.71 328.604L225.88 326.143V308.097C225.106 306.684 224.718 305.26 224.718 303.824C223.625 301.454 223.078 299.757 223.078 298.731C223.078 297.843 224.012 297.239 225.88 296.92L225.71 290.87V283.966L225.539 281.334C225.539 280.149 226.632 279.329 228.82 278.873C230.278 278.873 231.258 279.91 231.759 281.983L231.623 282.667L231.759 296.099H232.101C255.913 283.954 268.104 277.882 268.673 277.882H268.844ZM331.568 277.301C333.391 277.301 334.815 278.896 335.841 282.086V282.564L335.362 285.196C342.13 301.716 345.901 310.626 346.676 311.925C349.843 312.494 351.427 313.975 351.427 316.368C351.427 317.257 350.88 318.453 349.786 319.957C350.561 323.079 351.541 325.597 352.725 327.511V328.023C352.27 330.302 351.13 331.441 349.307 331.441C347.029 331.441 345.707 329.915 345.343 326.861L342.882 321.119L334.371 320.948H326.168L310.582 321.29C310.035 321.335 308.28 323.796 305.318 328.673C304.361 329.653 303.438 330.142 302.55 330.142C300.681 330.142 299.53 328.935 299.097 326.519H298.927C298.927 325.95 300.18 323.933 302.686 320.47L302.857 320.299V320.128C302.288 319.33 301.912 318.35 301.729 317.188C302.527 313.907 304.167 312.266 306.651 312.266H307.95C320.414 293.946 326.646 284.262 326.646 283.214L326.475 282.393C326.475 280.571 327.797 278.987 330.44 277.642L331.568 277.301ZM316.153 311.925V312.266H338.131L338.951 312.096V311.754L330.44 290.767H330.098C328.777 292.385 324.128 299.438 316.153 311.925ZM450.829 276.412C457.529 276.412 463.818 279.693 469.696 286.256C470.585 287.76 471.029 289.07 471.029 290.186C471.029 293.149 468.238 296.92 462.655 301.5C460.331 303.368 457.164 304.303 453.154 304.303L451.171 304.132C446.272 304.132 437.249 303.528 424.101 302.32V302.491L424.579 327.75C424.579 329.049 423.543 329.926 421.469 330.382H421.298C419.908 330.382 418.928 329.504 418.359 327.75L418.529 325.118L418.188 303.141C418.188 301.864 417.698 300.714 416.718 299.688L416.547 298.219C416.547 295.051 417.037 293.468 418.017 293.468L417.88 291.485V288.204L415.556 284.444C415.237 283.92 415.077 283.214 415.077 282.325C415.077 281.345 415.955 280.411 417.709 279.522C417.709 277.996 418.803 277.061 420.99 276.72C421.834 276.72 422.756 277.437 423.759 278.873H423.93C433.614 277.665 442.581 276.845 450.829 276.412ZM423.93 287.896V294.117C437.123 295.325 446.864 295.929 453.154 295.929C458.691 295.929 462.291 294.504 463.954 291.656V290.528C463.954 288.25 462.154 286.711 458.554 285.914L447.548 285.606C443.036 285.606 435.164 286.37 423.93 287.896ZM496.121 277.642C496.554 277.642 497.546 277.973 499.095 278.634H514.51L529.447 278.805C530.905 278.805 532.158 280.445 533.206 283.726L533.377 284.854C532.808 286.837 531.327 287.828 528.934 287.828L498.924 288.307L499.095 292.75V297.979H524.525C527.1 297.979 528.74 299.073 529.447 301.261L529.754 303.243C529.754 305.636 528.342 306.832 525.516 306.832H499.266V320.299H499.403L529.754 320.47C531.144 320.47 532.352 322.213 533.377 325.699C533.377 327.385 532.124 328.479 529.618 328.98L499.915 329.493C499.209 331.567 498.058 332.603 496.463 332.603C494.686 332.603 493.478 331.122 492.84 328.16C490.995 325.357 490.072 323.717 490.072 323.238C490.072 321.78 491.165 320.743 493.353 320.128L493.182 319V306.182C490.995 304.2 489.901 302.457 489.901 300.953C489.901 299.381 490.938 298.39 493.011 297.979V287.965C491.234 286.165 490.197 284.148 489.901 281.915C489.901 280.16 491.108 279.067 493.524 278.634C494.823 277.973 495.689 277.642 496.121 277.642ZM569.441 278.053C571.173 278.053 572.164 279.089 572.415 281.163H582.566C585.551 281.163 587.522 283.02 588.479 286.734V287.076C588.479 288.307 587.499 289.127 585.54 289.537H572.586C572.722 315.126 572.882 327.921 573.064 327.921C573.064 329.265 572.027 330.142 569.954 330.553H569.783C567.709 330.074 566.672 329.14 566.672 327.75L566.98 325.46L566.672 292.818L566.502 289.537H561.101C555.951 289.537 553.377 289.207 553.377 288.546C552.283 287.133 551.736 285.663 551.736 284.137C551.736 282.336 552.944 281.345 555.359 281.163H566.502C566.821 279.089 567.8 278.053 569.441 278.053ZM643.273 278.121C649.631 278.121 655.202 280.525 659.987 285.333C661.628 287.384 662.448 289.731 662.448 292.374C662.448 298.64 657.697 303.072 648.195 305.67L646.555 305.841L634.25 305.02V305.191L662.14 319.786C662.687 320.378 663.12 321.689 663.439 323.717C663.075 326.223 661.981 327.476 660.158 327.476C659.68 327.476 645.632 320.538 618.014 306.661H617.502V306.832L617.673 329.63C617.673 330.837 616.738 331.601 614.87 331.92C613.184 331.92 612.044 331.213 611.452 329.801L611.589 324.879V314.864L611.452 303.38C609.264 302.742 608.171 301.101 608.171 298.458L608 296.988C608 295.165 609.151 294.071 611.452 293.707V290.255C610.244 289.594 609.424 288.443 608.991 286.803C608.216 285.663 607.829 284.627 607.829 283.692C607.829 282.234 609.139 281.3 611.76 280.89C611.76 280.252 612.637 279.648 614.391 279.078L617.023 280.24C629.67 278.827 638.42 278.121 643.273 278.121ZM617.502 289.434V294.527C617.502 294.869 622.811 295.689 633.43 296.988C638.898 297.535 643.102 297.808 646.042 297.808C651.214 297.808 654.45 296.111 655.749 292.716L656.056 291.383C654.689 288.215 651.579 286.632 646.725 286.632C640.505 286.632 630.763 287.566 617.502 289.434ZM718.097 280.035C725.115 280.035 730.8 282.872 735.152 288.546C737.659 292.374 738.912 296.145 738.912 299.859C738.912 309.156 732.031 317.963 718.268 326.28C711.751 329.128 706.225 330.553 701.69 330.553C694.649 330.553 689.124 327.157 685.113 320.367C683.632 317.154 682.812 313.873 682.652 310.523C682.652 303.938 685.934 297.33 692.496 290.699C697.281 286.142 703.627 282.861 711.534 280.855L718.097 280.035ZM689.044 309.224V311.036C689.044 315.297 691.721 318.521 697.076 320.709C698.512 321.37 700.426 321.7 702.818 321.7H704.151C709.802 321.7 717.345 318.419 726.778 311.856C730.493 308.461 732.35 305.18 732.35 302.013V300.03C732.35 296.544 730.823 293.923 727.77 292.169C724.739 289.981 721.184 288.888 717.105 288.888C709.563 288.888 701.69 292.442 693.487 299.552C690.525 303.084 689.044 306.308 689.044 309.224ZM803.277 284.307C805.783 285.037 807.036 286.78 807.036 289.537C807.036 290.471 805.567 292.613 802.627 295.963L780.65 323.512V323.99C781.834 326.018 782.427 327.34 782.427 327.955C782.131 329.915 781.151 330.894 779.487 330.894C778.348 330.894 777.311 330.188 776.377 328.775H776.206L774.395 329.596C772.458 329.596 771.262 327.727 770.806 323.99C770.806 323.307 771.296 322.327 772.276 321.051C768.379 313.121 762.694 302.844 755.22 290.221C754.445 289.514 754.058 288.694 754.058 287.76C754.058 286.37 755.311 285.378 757.818 284.786C759.208 284.786 760.301 286.153 761.099 288.888C767.388 299.438 772.424 308.359 776.206 315.65H776.377C776.651 315.65 781.948 309.031 792.271 295.792C797.603 288.979 800.781 285.208 801.807 284.478L803.277 284.307ZM829.428 279.522H829.599C831.786 279.887 832.88 280.867 832.88 282.462L832.402 287.213V319.376L832.573 327.408C832.573 328.798 831.581 329.675 829.599 330.04C827.639 329.789 826.66 328.855 826.66 327.237H826.489L826.66 324.469V289.366L826.489 281.812C827.081 280.286 828.061 279.522 829.428 279.522ZM885.179 279.83C889.326 279.83 895.069 281.197 902.406 283.932C903.158 284.661 903.534 285.652 903.534 286.905C903.534 289.412 902.383 290.938 900.082 291.485C894.453 290.072 889.532 289.366 885.316 289.366H885.179C876.748 289.366 869.639 292.864 863.851 299.859C861.983 302.753 861.048 305.92 861.048 309.361C861.048 317.359 865.64 321.358 874.823 321.358H875.814C884.587 321.358 893.063 318.567 901.244 312.984C902.338 311.891 903.431 311.344 904.525 311.344C907.032 311.685 908.285 312.836 908.285 314.796V315.274C908.285 317.918 906.599 320.048 903.226 321.666C899.489 324.377 894.613 326.622 888.597 328.399C883.63 329.493 879.859 330.04 877.284 330.04C865.845 330.04 858.793 325.665 856.127 316.915C855.033 312.745 854.486 309.623 854.486 307.55C854.486 300.281 858.747 293.228 867.269 286.392C874.629 282.017 880.599 279.83 885.179 279.83Z" fill="#164526"/>
</svg>
